<svg baseProfile="full" width="300" height="300" viewBox="0 0 300 300" version="1.1"
xmlns="http://www.w3.org/2000/svg" xmlns:ev="http://www.w3.org/2001/xml-events"
xmlns:xlink="http://www.w3.org/1999/xlink">

<style>rect.s{mask:url(#mask);}</style>
<defs>
  <pattern id="white" width="4" height="4" patternUnits="userSpaceOnUse" patternTransform="rotate(45)">
    <rect width="2" height="2" transform="translate(0,0)" fill="white"></rect>
  </pattern>
  <mask id="mask">
    <rect x="0" y="0" width="100%" height="100%" fill="url(#white)"></rect>
  </mask>
</defs>

<circle cx="150.0" cy="150.0" fill="#6ccb08" r="35.625" stroke="white" stroke-width="1" />
<path d="M 150.0 185.625 L 150.0 221.25 A 71.25 71.25 0 0 0 158.628901137 79.2744419239 L 154.314450568 114.637220962 A 35.625 35.625 0 0 1 150.0 185.625 z" fill="#48cc10" stroke="white" stroke-width="1" />
<path d="M 150.0 221.25 L 150.0 256.875 A 106.875 106.875 0 0 0 151.402684311 256.865794816 L 150.935122874 221.243863211 A 71.25 71.25 0 0 1 150.0 221.25 z" fill="#4c1" stroke="white" stroke-width="1" />
<path d="M 150.935122874 221.243863211 L 151.402684311 256.865794816 A 106.875 106.875 0 0 0 152.6103667 256.843116815 L 151.740244467 221.228744543 A 71.25 71.25 0 0 1 150.935122874 221.243863211 z" fill="#4c1" stroke="white" stroke-width="1" />
<path d="M 151.740244467 221.228744543 L 152.6103667 256.843116815 A 106.875 106.875 0 0 0 155.258093675 256.745576376 L 153.505395783 221.163717584 A 71.25 71.25 0 0 1 151.740244467 221.228744543 z" fill="#4c1" stroke="white" stroke-width="1" />
<path d="M 153.505395783 221.163717584 L 155.258093675 256.745576376 A 106.875 106.875 0 0 0 155.919584017 256.71093735 L 153.946389344 221.1406249 A 71.25 71.25 0 0 1 153.505395783 221.163717584 z" fill="#4c1" stroke="white" stroke-width="1" />
<path d="M 153.946389344 221.1406249 L 155.919584017 256.71093735 A 106.875 106.875 0 0 0 157.16410517 256.634615497 L 154.776070114 221.089743664 A 71.25 71.25 0 0 1 153.946389344 221.1406249 z" fill="#4c1" stroke="white" stroke-width="1" />
<path d="M 154.776070114 221.089743664 L 157.16410517 256.634615497 A 106.875 106.875 0 0 0 157.824871187 256.588165459 L 155.216580791 221.058776973 A 71.25 71.25 0 0 1 154.776070114 221.089743664 z" fill="#4c1" stroke="white" stroke-width="1" />
<path d="M 155.216580791 221.058776973 L 157.824871187 256.588165459 A 106.875 106.875 0 0 0 159.378383942 256.462723709 L 156.252255961 220.97514914 A 71.25 71.25 0 0 1 155.216580791 221.058776973 z" fill="#4c1" stroke="white" stroke-width="1" />
<path d="M 156.252255961 220.97514914 L 159.378383942 256.462723709 A 106.875 106.875 0 0 0 160.929902226 256.314640865 L 157.286601484 220.876427244 A 71.25 71.25 0 0 1 156.252255961 220.97514914 z" fill="#4c1" stroke="white" stroke-width="1" />
<path d="M 157.286601484 220.876427244 L 160.929902226 256.314640865 A 106.875 106.875 0 0 0 161.35617622 256.269952887 L 157.570784147 220.846635258 A 71.25 71.25 0 0 1 157.286601484 220.876427244 z" fill="#4c1" stroke="white" stroke-width="1" />
<path d="M 157.570784147 220.846635258 L 161.35617622 256.269952887 A 106.875 106.875 0 0 0 162.633874934 256.125637002 L 158.422583289 220.750424668 A 71.25 71.25 0 0 1 157.570784147 220.846635258 z" fill="#4c1" stroke="white" stroke-width="1" />
<path d="M 158.422583289 220.750424668 L 162.633874934 256.125637002 A 106.875 106.875 0 0 0 165.376422924 255.763090174 L 160.250948616 220.508726782 A 71.25 71.25 0 0 1 158.422583289 220.750424668 z" fill="#4c1" stroke="white" stroke-width="1" />
<path d="M 160.250948616 220.508726782 L 165.376422924 255.763090174 A 106.875 106.875 0 0 0 169.642735713 255.054407612 L 163.095157142 220.036271741 A 71.25 71.25 0 0 1 160.250948616 220.508726782 z" fill="#4c1" stroke="white" stroke-width="1" />
<path d="M 163.095157142 220.036271741 L 169.642735713 255.054407612 A 106.875 106.875 0 0 0 170.484712858 254.893480084 L 163.656475239 219.928986723 A 71.25 71.25 0 0 1 163.095157142 220.036271741 z" fill="#4c1" stroke="white" stroke-width="1" />
<path d="M 163.656475239 219.928986723 L 170.484712858 254.893480084 A 106.875 106.875 0 0 0 171.859626292 254.615593309 L 164.573084195 219.743728873 A 71.25 71.25 0 0 1 163.656475239 219.928986723 z" fill="#4c1" stroke="white" stroke-width="1" />
<path d="M 164.573084195 219.743728873 L 171.859626292 254.615593309 A 106.875 106.875 0 0 0 175.544848431 253.777292042 L 167.029898954 219.184861362 A 71.25 71.25 0 0 1 164.573084195 219.743728873 z" fill="#4c1" stroke="white" stroke-width="1" />
<path d="M 167.029898954 219.184861362 L 175.544848431 253.777292042 A 106.875 106.875 0 0 0 176.829250008 253.452679854 L 167.886166672 218.968453236 A 71.25 71.25 0 0 1 167.029898954 219.184861362 z" fill="#4c1" stroke="white" stroke-width="1" />
<path d="M 167.886166672 218.968453236 L 176.829250008 253.452679854 A 106.875 106.875 0 0 0 177.31926601 253.324359808 L 168.212844007 218.882906538 A 71.25 71.25 0 0 1 167.886166672 218.968453236 z" fill="#4c1" stroke="white" stroke-width="1" />
<path d="M 168.212844007 218.882906538 L 177.31926601 253.324359808 A 106.875 106.875 0 0 0 179.123154299 252.830479473 L 169.415436199 218.553652982 A 71.25 71.25 0 0 1 168.212844007 218.882906538 z" fill="#4c1" stroke="white" stroke-width="1" />
<path d="M 169.415436199 218.553652982 L 179.123154299 252.830479473 A 106.875 106.875 0 0 0 179.984390711 252.582659054 L 169.989593807 218.38843937 A 71.25 71.25 0 0 1 169.415436199 218.553652982 z" fill="#4c1" stroke="white" stroke-width="1" />
<path d="M 169.989593807 218.38843937 L 179.984390711 252.582659054 A 106.875 106.875 0 0 0 180.507593193 252.428279213 L 170.338395462 218.285519475 A 71.25 71.25 0 0 1 169.989593807 218.38843937 z" fill="#9bc405" stroke="white" stroke-width="1" />
<path d="M 170.338395462 218.285519475 L 180.507593193 252.428279213 A 106.875 106.875 0 0 0 185.105425654 250.944909305 L 173.403617102 217.296606204 A 71.25 71.25 0 0 1 170.338395462 218.285519475 z" fill="#4c1" stroke="white" stroke-width="1" />
<path d="M 173.403617102 217.296606204 L 185.105425654 250.944909305 A 106.875 106.875 0 0 0 185.656936577 250.75141934 L 173.771291051 217.167612893 A 71.25 71.25 0 0 1 173.403617102 217.296606204 z" fill="#4c1" stroke="white" stroke-width="1" />
<path d="M 173.771291051 217.167612893 L 185.656936577 250.75141934 A 106.875 106.875 0 0 0 187.4510208 250.098384932 L 174.9673472 216.732256621 A 71.25 71.25 0 0 1 173.771291051 217.167612893 z" fill="#4c1" stroke="white" stroke-width="1" />
<path d="M 174.9673472 216.732256621 L 187.4510208 250.098384932 A 106.875 106.875 0 0 0 191.972301892 248.288308048 L 177.981534595 215.525538698 A 71.25 71.25 0 0 1 174.9673472 216.732256621 z" fill="#4c1" stroke="white" stroke-width="1" />
<path d="M 177.981534595 215.525538698 L 191.972301892 248.288308048 A 106.875 106.875 0 0 0 192.330362441 248.134632218 L 178.220241627 215.423088146 A 71.25 71.25 0 0 1 177.981534595 215.525538698 z" fill="#4c1" stroke="white" stroke-width="1" />
<path d="M 178.220241627 215.423088146 L 192.330362441 248.134632218 A 106.875 106.875 0 0 0 193.721378594 247.522852085 L 179.147585729 215.015234724 A 71.25 71.25 0 0 1 178.220241627 215.423088146 z" fill="#4c1" stroke="white" stroke-width="1" />
<path d="M 179.147585729 215.015234724 L 193.721378594 247.522852085 A 106.875 106.875 0 0 0 195.385961315 246.759393035 L 180.257307543 214.506262024 A 71.25 71.25 0 0 1 179.147585729 215.015234724 z" fill="#4c1" stroke="white" stroke-width="1" />
<path d="M 180.257307543 214.506262024 L 195.385961315 246.759393035 A 106.875 106.875 0 0 0 195.808845003 246.559905471 L 180.539230002 214.373270314 A 71.25 71.25 0 0 1 180.257307543 214.506262024 z" fill="#4c1" stroke="white" stroke-width="1" />
<path d="M 180.539230002 214.373270314 L 195.808845003 246.559905471 A 106.875 106.875 0 0 0 198.986602344 244.987253965 L 182.657734896 213.324835977 A 71.25 71.25 0 0 1 180.539230002 214.373270314 z" fill="#4c1" stroke="white" stroke-width="1" />
<path d="M 182.657734896 213.324835977 L 198.986602344 244.987253965 A 106.875 106.875 0 0 0 201.155212756 243.837145272 L 184.103475171 212.558096848 A 71.25 71.25 0 0 1 182.657734896 213.324835977 z" fill="#4c1" stroke="white" stroke-width="1" />
<path d="M 184.103475171 212.558096848 L 201.155212756 243.837145272 A 106.875 106.875 0 0 0 201.496984227 243.650019971 L 184.331322818 212.433346647 A 71.25 71.25 0 0 1 184.103475171 212.558096848 z" fill="#4c1" stroke="white" stroke-width="1" />
<path d="M 184.331322818 212.433346647 L 201.496984227 243.650019971 A 106.875 106.875 0 0 0 202.246465667 243.233966184 L 184.830977111 212.155977456 A 71.25 71.25 0 0 1 184.331322818 212.433346647 z" fill="#4c1" stroke="white" stroke-width="1" />
<path d="M 184.830977111 212.155977456 L 202.246465667 243.233966184 A 106.875 106.875 0 0 0 205.009992296 241.63059736 L 186.673328197 211.087064907 A 71.25 71.25 0 0 1 184.830977111 212.155977456 z" fill="#4c1" stroke="white" stroke-width="1" />
<path d="M 186.673328197 211.087064907 L 205.009992296 241.63059736 A 106.875 106.875 0 0 0 207.034033205 240.384648483 L 188.022688803 210.256432322 A 71.25 71.25 0 0 1 186.673328197 211.087064907 z" fill="#4c1" stroke="white" stroke-width="1" />
<path d="M 188.022688803 210.256432322 L 207.034033205 240.384648483 A 106.875 106.875 0 0 0 207.855465439 239.861063558 L 188.570310293 209.907375705 A 71.25 71.25 0 0 1 188.022688803 210.256432322 z" fill="#4c1" stroke="white" stroke-width="1" />
<path d="M 188.570310293 209.907375705 L 207.855465439 239.861063558 A 106.875 106.875 0 0 0 211.793844711 237.19969255 L 191.195896474 208.133128367 A 71.25 71.25 0 0 1 188.570310293 209.907375705 z" fill="#4c1" stroke="white" stroke-width="1" />
<path d="M 191.195896474 208.133128367 L 211.793844711 237.19969255 A 106.875 106.875 0 0 0 211.984444711 237.064310937 L 191.32296314 208.042873958 A 71.25 71.25 0 0 1 191.195896474 208.133128367 z" fill="#4c1" stroke="white" stroke-width="1" />
<path d="M 191.32296314 208.042873958 L 211.984444711 237.064310937 A 106.875 106.875 0 0 0 215.763674853 234.246096022 L 193.842449902 206.164064014 A 71.25 71.25 0 0 1 191.32296314 208.042873958 z" fill="#4c1" stroke="white" stroke-width="1" />
<path d="M 193.842449902 206.164064014 L 215.763674853 234.246096022 A 106.875 106.875 0 0 0 217.651012225 232.73817843 L 195.100674816 205.15878562 A 71.25 71.25 0 0 1 193.842449902 206.164064014 z" fill="#4c1" stroke="white" stroke-width="1" />
<path d="M 195.100674816 205.15878562 L 217.651012225 232.73817843 A 106.875 106.875 0 0 0 217.952209454 232.490986509 L 195.30147297 204.993991006 A 71.25 71.25 0 0 1 195.100674816 205.15878562 z" fill="#4c1" stroke="white" stroke-width="1" />
<path d="M 195.30147297 204.993991006 L 217.952209454 232.490986509 A 106.875 106.875 0 0 0 218.222514827 232.267576211 L 195.481676551 204.845050808 A 71.25 71.25 0 0 1 195.30147297 204.993991006 z" fill="#4c1" stroke="white" stroke-width="1" />
<path d="M 195.481676551 204.845050808 L 218.222514827 232.267576211 A 106.875 106.875 0 0 0 218.909951339 231.692620422 L 195.939967559 204.461746948 A 71.25 71.25 0 0 1 195.481676551 204.845050808 z" fill="#4c1" stroke="white" stroke-width="1" />
<path d="M 195.939967559 204.461746948 L 218.909951339 231.692620422 A 106.875 106.875 0 0 0 220.152733496 230.62790837 L 196.768488997 203.751938913 A 71.25 71.25 0 0 1 195.939967559 204.461746948 z" fill="#4c1" stroke="white" stroke-width="1" />
<path d="M 196.768488997 203.751938913 L 220.152733496 230.62790837 A 106.875 106.875 0 0 0 220.88469405 229.985159714 L 197.2564627 203.323439809 A 71.25 71.25 0 0 1 196.768488997 203.751938913 z" fill="#4c1" stroke="white" stroke-width="1" />
<path d="M 197.2564627 203.323439809 L 220.88469405 229.985159714 A 106.875 106.875 0 0 0 221.755268358 229.205095088 L 197.836845572 202.803396725 A 71.25 71.25 0 0 1 197.2564627 203.323439809 z" fill="#4c1" stroke="white" stroke-width="1" />
<path d="M 197.836845572 202.803396725 L 221.755268358 229.205095088 A 106.875 106.875 0 0 0 225.261441181 225.881361983 L 200.17429412 200.587574655 A 71.25 71.25 0 0 1 197.836845572 202.803396725 z" fill="#4c1" stroke="white" stroke-width="1" />
<path d="M 200.17429412 200.587574655 L 225.261441181 225.881361983 A 106.875 106.875 0 0 0 226.004734746 225.136847959 L 200.669823164 200.091231972 A 71.25 71.25 0 0 1 200.17429412 200.587574655 z" fill="#4c1" stroke="white" stroke-width="1" />
<path d="M 200.669823164 200.091231972 L 226.004734746 225.136847959 A 106.875 106.875 0 0 0 226.223558766 224.914849756 L 200.815705844 199.943233171 A 71.25 71.25 0 0 1 200.669823164 200.091231972 z" fill="#4c1" stroke="white" stroke-width="1" />
<path d="M 200.815705844 199.943233171 L 226.223558766 224.914849756 A 106.875 106.875 0 0 0 230.049734475 220.811761985 L 203.36648965 197.207841324 A 71.25 71.25 0 0 1 200.815705844 199.943233171 z" fill="#4c1" stroke="white" stroke-width="1" />
<path d="M 203.36648965 197.207841324 L 230.049734475 220.811761985 A 106.875 106.875 0 0 0 232.280011154 218.207517105 L 204.853340769 195.47167807 A 71.25 71.25 0 0 1 203.36648965 197.207841324 z" fill="#4c1" stroke="white" stroke-width="1" />
<path d="M 204.853340769 195.47167807 L 232.280011154 218.207517105 A 106.875 106.875 0 0 0 233.119151346 217.182380908 L 205.412767564 194.788253939 A 71.25 71.25 0 0 1 204.853340769 195.47167807 z" fill="#4c1" stroke="white" stroke-width="1" />
<path d="M 205.412767564 194.788253939 L 233.119151346 217.182380908 A 106.875 106.875 0 0 0 233.582528148 216.605004417 L 205.721685432 194.403336278 A 71.25 71.25 0 0 1 205.412767564 194.788253939 z" fill="#4c1" stroke="white" stroke-width="1" />
<path d="M 205.721685432 194.403336278 L 233.582528148 216.605004417 A 106.875 106.875 0 0 0 236.116550511 213.294591815 L 207.411033674 192.196394543 A 71.25 71.25 0 0 1 205.721685432 194.403336278 z" fill="#4c1" stroke="white" stroke-width="1" />
<path d="M 207.411033674 192.196394543 L 236.116550511 213.294591815 A 106.875 106.875 0 0 0 238.932256381 209.273260413 L 209.28817092 189.515506942 A 71.25 71.25 0 0 1 207.411033674 192.196394543 z" fill="#4c1" stroke="white" stroke-width="1" />
<path d="M 209.28817092 189.515506942 L 238.932256381 209.273260413 A 106.875 106.875 0 0 0 240.27010253 207.215157207 L 210.180068353 188.143438138 A 71.25 71.25 0 0 1 209.28817092 189.515506942 z" fill="#4c1" stroke="white" stroke-width="1" />
<path d="M 210.180068353 188.143438138 L 240.27010253 207.215157207 A 106.875 106.875 0 0 0 242.510972878 203.516217376 L 211.673981918 185.677478251 A 71.25 71.25 0 0 1 210.180068353 188.143438138 z" fill="#4c1" stroke="white" stroke-width="1" />
<path d="M 211.673981918 185.677478251 L 242.510972878 203.516217376 A 106.875 106.875 0 0 0 245.031863439 198.900005688 L 213.354575626 182.600003792 A 71.25 71.25 0 0 1 211.673981918 185.677478251 z" fill="#4c1" stroke="white" stroke-width="1" />
<path d="M 213.354575626 182.600003792 L 245.031863439 198.900005688 A 106.875 106.875 0 0 0 245.700186031 197.578776977 L 213.800124021 181.719184652 A 71.25 71.25 0 0 1 213.354575626 182.600003792 z" fill="#4c1" stroke="white" stroke-width="1" />
<path d="M 213.800124021 181.719184652 L 245.700186031 197.578776977 A 106.875 106.875 0 0 0 246.350140677 196.248416368 L 214.233427118 180.832277579 A 71.25 71.25 0 0 1 213.800124021 181.719184652 z" fill="#4c1" stroke="white" stroke-width="1" />
<path d="M 214.233427118 180.832277579 L 246.350140677 196.248416368 A 106.875 106.875 0 0 0 246.467855772 196.002374154 L 214.311903848 180.668249436 A 71.25 71.25 0 0 1 214.233427118 180.832277579 z" fill="#4c1" stroke="white" stroke-width="1" />
<path d="M 214.311903848 180.668249436 L 246.467855772 196.002374154 A 106.875 106.875 0 0 0 246.634930098 195.650365935 L 214.423286732 180.43357729 A 71.25 71.25 0 0 1 214.311903848 180.668249436 z" fill="#4c1" stroke="white" stroke-width="1" />
<path d="M 214.423286732 180.43357729 L 246.634930098 195.650365935 A 106.875 106.875 0 0 0 246.850206122 195.191848814 L 214.566804081 180.127899209 A 71.25 71.25 0 0 1 214.423286732 180.43357729 z" fill="#4c1" stroke="white" stroke-width="1" />
<path d="M 214.566804081 180.127899209 L 246.850206122 195.191848814 A 106.875 106.875 0 0 0 246.98160263 194.909179199 L 214.654401753 179.939452799 A 71.25 71.25 0 0 1 214.566804081 180.127899209 z" fill="#4c1" stroke="white" stroke-width="1" />
<path d="M 214.654401753 179.939452799 L 246.98160263 194.909179199 A 106.875 106.875 0 0 0 248.250011489 192.061869518 L 215.50000766 178.041246345 A 71.25 71.25 0 0 1 214.654401753 179.939452799 z" fill="#4c1" stroke="white" stroke-width="1" />
<path d="M 215.50000766 178.041246345 L 248.250011489 192.061869518 A 106.875 106.875 0 0 0 249.434846702 189.178781074 L 216.289897801 176.119187383 A 71.25 71.25 0 0 1 215.50000766 178.041246345 z" fill="#4c1" stroke="white" stroke-width="1" />
<path d="M 216.289897801 176.119187383 L 249.434846702 189.178781074 A 106.875 106.875 0 0 0 249.745889164 188.379984625 L 216.497259443 175.586656416 A 71.25 71.25 0 0 1 216.289897801 176.119187383 z" fill="#4c1" stroke="white" stroke-width="1" />
<path d="M 216.497259443 175.586656416 L 249.745889164 188.379984625 A 106.875 106.875 0 0 0 249.954285657 187.83393191 L 216.636190438 175.222621273 A 71.25 71.25 0 0 1 216.497259443 175.586656416 z" fill="#4c1" stroke="white" stroke-width="1" />
<path d="M 216.636190438 175.222621273 L 249.954285657 187.83393191 A 106.875 106.875 0 0 0 250.118850847 187.396274281 L 216.745900565 174.93084952 A 71.25 71.25 0 0 1 216.636190438 175.222621273 z" fill="#4c1" stroke="white" stroke-width="1" />
<path d="M 216.745900565 174.93084952 L 250.118850847 187.396274281 A 106.875 106.875 0 0 0 250.561514815 186.189050321 L 217.041009877 174.126033547 A 71.25 71.25 0 0 1 216.745900565 174.93084952 z" fill="#4c1" stroke="white" stroke-width="1" />
<path d="M 217.041009877 174.126033547 L 250.561514815 186.189050321 A 106.875 106.875 0 0 0 250.964092355 185.050216545 L 217.309394904 173.36681103 A 71.25 71.25 0 0 1 217.041009877 174.126033547 z" fill="#4c1" stroke="white" stroke-width="1" />
<path d="M 217.309394904 173.36681103 L 250.964092355 185.050216545 A 106.875 106.875 0 0 0 251.452236566 183.611148757 L 217.634824377 172.407432505 A 71.25 71.25 0 0 1 217.309394904 173.36681103 z" fill="#4c1" stroke="white" stroke-width="1" />
<path d="M 217.634824377 172.407432505 L 251.452236566 183.611148757 A 106.875 106.875 0 0 0 252.588123216 179.96569038 L 218.392082144 169.97712692 A 71.25 71.25 0 0 1 217.634824377 172.407432505 z" fill="#4c1" stroke="white" stroke-width="1" />
<path d="M 218.392082144 169.97712692 L 252.588123216 179.96569038 A 106.875 106.875 0 0 0 253.753966037 175.639425825 L 219.169310691 167.09295055 A 71.25 71.25 0 0 1 218.392082144 169.97712692 z" fill="#4c1" stroke="white" stroke-width="1" />
<path d="M 219.169310691 167.09295055 L 253.753966037 175.639425825 A 106.875 106.875 0 0 0 253.855955477 175.223127028 L 219.237303651 166.815418019 A 71.25 71.25 0 0 1 219.169310691 167.09295055 z" fill="#4c1" stroke="white" stroke-width="1" />
<path d="M 219.237303651 166.815418019 L 253.855955477 175.223127028 A 106.875 106.875 0 0 0 254.019243592 174.541038844 L 219.346162395 166.360692563 A 71.25 71.25 0 0 1 219.237303651 166.815418019 z" fill="#4c1" stroke="white" stroke-width="1" />
<path d="M 219.346162395 166.360692563 L 254.019243592 174.541038844 A 106.875 106.875 0 0 0 254.143148766 174.009793627 L 219.428765844 166.006529085 A 71.25 71.25 0 0 1 219.346162395 166.360692563 z" fill="#4c1" stroke="white" stroke-width="1" />
<path d="M 219.428765844 166.006529085 L 254.143148766 174.009793627 A 106.875 106.875 0 0 0 254.674974143 171.573488663 L 219.783316096 164.382325776 A 71.25 71.25 0 0 1 219.428765844 166.006529085 z" fill="#4c1" stroke="white" stroke-width="1" />
<path d="M 219.783316096 164.382325776 L 254.674974143 171.573488663 A 106.875 106.875 0 0 0 255.259587864 168.511747288 L 220.173058576 162.341164858 A 71.25 71.25 0 0 1 219.783316096 164.382325776 z" fill="#4c1" stroke="white" stroke-width="1" />
<path d="M 220.173058576 162.341164858 L 255.259587864 168.511747288 A 106.875 106.875 0 0 0 255.662834128 166.050891225 L 220.441889418 160.70059415 A 71.25 71.25 0 0 1 220.173058576 162.341164858 z" fill="#4c1" stroke="white" stroke-width="1" />
<path d="M 220.441889418 160.70059415 L 255.662834128 166.050891225 A 106.875 106.875 0 0 0 255.726354569 165.627014253 L 220.48423638 160.418009502 A 71.25 71.25 0 0 1 220.441889418 160.70059415 z" fill="#4c1" stroke="white" stroke-width="1" />
<path d="M 220.48423638 160.418009502 L 255.726354569 165.627014253 A 106.875 106.875 0 0 0 255.880367705 164.546936435 L 220.586911803 159.697957623 A 71.25 71.25 0 0 1 220.48423638 160.418009502 z" fill="#4c1" stroke="white" stroke-width="1" />
<path d="M 220.586911803 159.697957623 L 255.880367705 164.546936435 A 106.875 106.875 0 0 0 255.95323765 164.006322021 L 220.635491766 159.337548014 A 71.25 71.25 0 0 1 220.586911803 159.697957623 z" fill="#4c1" stroke="white" stroke-width="1" />
<path d="M 220.635491766 159.337548014 L 255.95323765 164.006322021 A 106.875 106.875 0 0 0 256.422467541 159.824664238 L 220.948311694 156.549776159 A 71.25 71.25 0 0 1 220.635491766 159.337548014 z" fill="#4c1" stroke="white" stroke-width="1" />
<path d="M 220.948311694 156.549776159 L 256.422467541 159.824664238 A 106.875 106.875 0 0 0 256.726724656 155.627776568 L 221.151149771 153.751851045 A 71.25 71.25 0 0 1 220.948311694 156.549776159 z" fill="#4c1" stroke="white" stroke-width="1" />
<path d="M 221.151149771 153.751851045 L 256.726724656 155.627776568 A 106.875 106.875 0 0 0 256.775275276 154.615865534 L 221.183516851 153.07724369 A 71.25 71.25 0 0 1 221.151149771 153.751851045 z" fill="#4c1" stroke="white" stroke-width="1" />
<path d="M 221.183516851 153.07724369 L 256.775275276 154.615865534 A 106.875 106.875 0 0 0 256.872824754 150.68187538 L 221.248549836 150.454583586 A 71.25 71.25 0 0 1 221.183516851 153.07724369 z" fill="#4c1" stroke="white" stroke-width="1" />
<path d="M 221.248549836 150.454583586 L 256.872824754 150.68187538 A 106.875 106.875 0 0 0 256.766683596 145.189501173 L 221.177789064 146.793000782 A 71.25 71.25 0 0 1 221.248549836 150.454583586 z" fill="#4c1" stroke="white" stroke-width="1" />
<path d="M 221.177789064 146.793000782 L 256.766683596 145.189501173 A 106.875 106.875 0 0 0 256.600859596 142.350009254 L 221.067239731 144.900006169 A 71.25 71.25 0 0 1 221.177789064 146.793000782 z" fill="#4c1" stroke="white" stroke-width="1" />
<path d="M 221.067239731 144.900006169 L 256.600859596 142.350009254 A 106.875 106.875 0 0 0 256.529842767 141.417562991 L 221.019895178 144.278375327 A 71.25 71.25 0 0 1 221.067239731 144.900006169 z" fill="#4c1" stroke="white" stroke-width="1" />
<path d="M 221.019895178 144.278375327 L 256.529842767 141.417562991 A 106.875 106.875 0 0 0 256.433149536 140.291740376 L 220.955433024 143.527826918 A 71.25 71.25 0 0 1 221.019895178 144.278375327 z" fill="#4c1" stroke="white" stroke-width="1" />
<path d="M 220.955433024 143.527826918 L 256.433149536 140.291740376 A 106.875 106.875 0 0 0 256.348001395 139.399612072 L 220.898667597 142.933074714 A 71.25 71.25 0 0 1 220.955433024 143.527826918 z" fill="#4c1" stroke="white" stroke-width="1" />
<path d="M 220.898667597 142.933074714 L 256.348001395 139.399612072 A 106.875 106.875 0 0 0 256.246967917 138.430754845 L 220.831311945 142.287169897 A 71.25 71.25 0 0 1 220.898667597 142.933074714 z" fill="#4c1" stroke="white" stroke-width="1" />
<path d="M 220.831311945 142.287169897 L 256.246967917 138.430754845 A 106.875 106.875 0 0 0 256.0906948 137.075987394 L 220.727129867 141.383991596 A 71.25 71.25 0 0 1 220.831311945 142.287169897 z" fill="#4c1" stroke="white" stroke-width="1" />
<path d="M 220.727129867 141.383991596 L 256.0906948 137.075987394 A 106.875 106.875 0 0 0 255.922345561 135.761940585 L 220.61489704 140.50796039 A 71.25 71.25 0 0 1 220.727129867 141.383991596 z" fill="#4c1" stroke="white" stroke-width="1" />
<path d="M 220.61489704 140.50796039 L 255.922345561 135.761940585 A 106.875 106.875 0 0 0 255.573476851 133.371512079 L 220.382317901 138.914341386 A 71.25 71.25 0 0 1 220.61489704 140.50796039 z" fill="#4c1" stroke="white" stroke-width="1" />
<path d="M 220.382317901 138.914341386 L 255.573476851 133.371512079 A 106.875 106.875 0 0 0 255.505941351 132.948256258 L 220.337294234 138.632170839 A 71.25 71.25 0 0 1 220.382317901 138.914341386 z" fill="#4c1" stroke="white" stroke-width="1" />
<path d="M 220.337294234 138.632170839 L 255.505941351 132.948256258 A 106.875 106.875 0 0 0 254.391175045 127.092616961 L 219.594116697 134.728411307 A 71.25 71.25 0 0 1 220.337294234 138.632170839 z" fill="#4c1" stroke="white" stroke-width="1" />
<path d="M 219.594116697 134.728411307 L 254.391175045 127.092616961 A 106.875 106.875 0 0 0 254.186743257 126.180089116 L 219.457828838 134.120059411 A 71.25 71.25 0 0 1 219.594116697 134.728411307 z" fill="#4c1" stroke="white" stroke-width="1" />
<path d="M 219.457828838 134.120059411 L 254.186743257 126.180089116 A 106.875 106.875 0 0 0 254.072677826 125.686560197 L 219.381785218 133.791040131 A 71.25 71.25 0 0 1 219.457828838 134.120059411 z" fill="#4c1" stroke="white" stroke-width="1" />
<path d="M 219.381785218 133.791040131 L 254.072677826 125.686560197 A 106.875 106.875 0 0 0 253.846752707 124.739010763 L 219.231168471 133.159340509 A 71.25 71.25 0 0 1 219.381785218 133.791040131 z" fill="#4c1" stroke="white" stroke-width="1" />
<path d="M 219.231168471 133.159340509 L 253.846752707 124.739010763 A 106.875 106.875 0 0 0 253.659800279 123.982478384 L 219.10653352 132.65498559 A 71.25 71.25 0 0 1 219.231168471 133.159340509 z" fill="#4c1" stroke="white" stroke-width="1" />
<path d="M 219.10653352 132.65498559 L 253.659800279 123.982478384 A 106.875 106.875 0 0 0 253.564256686 123.604728416 L 219.042837791 132.403152277 A 71.25 71.25 0 0 1 219.10653352 132.65498559 z" fill="#4c1" stroke="white" stroke-width="1" />
<path d="M 219.042837791 132.403152277 L 253.564256686 123.604728416 A 106.875 106.875 0 0 0 253.398674049 122.963361341 L 218.932449366 131.975574227 A 71.25 71.25 0 0 1 219.042837791 132.403152277 z" fill="#4c1" stroke="white" stroke-width="1" />
<path d="M 218.932449366 131.975574227 L 253.398674049 122.963361341 A 106.875 106.875 0 0 0 252.478192513 119.660493011 L 218.318795008 129.773662007 A 71.25 71.25 0 0 1 218.932449366 131.975574227 z" fill="#4c1" stroke="white" stroke-width="1" />
<path d="M 218.318795008 129.773662007 L 252.478192513 119.660493011 A 106.875 106.875 0 0 0 252.059616825 118.280916809 L 218.03974455 128.853944539 A 71.25 71.25 0 0 1 218.318795008 129.773662007 z" fill="#4c1" stroke="white" stroke-width="1" />
<path d="M 218.03974455 128.853944539 L 252.059616825 118.280916809 A 106.875 106.875 0 0 0 251.931590592 117.871874247 L 217.954393728 128.581249498 A 71.25 71.25 0 0 1 218.03974455 128.853944539 z" fill="#4c1" stroke="white" stroke-width="1" />
<path d="M 217.954393728 128.581249498 L 251.931590592 117.871874247 A 106.875 106.875 0 0 0 251.682626284 117.092415207 L 217.788417523 128.061610138 A 71.25 71.25 0 0 1 217.954393728 128.581249498 z" fill="#4c1" stroke="white" stroke-width="1" />
<path d="M 217.788417523 128.061610138 L 251.682626284 117.092415207 A 106.875 106.875 0 0 0 251.610398222 116.870064925 L 217.740265482 127.913376616 A 71.25 71.25 0 0 1 217.788417523 128.061610138 z" fill="#4c1" stroke="white" stroke-width="1" />
<path d="M 217.740265482 127.913376616 L 251.610398222 116.870064925 A 106.875 106.875 0 0 0 251.464483802 116.425841013 L 217.642989202 127.617227342 A 71.25 71.25 0 0 1 217.740265482 127.913376616 z" fill="#4c1" stroke="white" stroke-width="1" />
<path d="M 217.642989202 127.617227342 L 251.464483802 116.425841013 A 106.875 106.875 0 0 0 250.482111285 113.59105966 L 216.98807419 125.727373107 A 71.25 71.25 0 0 1 217.642989202 127.617227342 z" fill="#4c1" stroke="white" stroke-width="1" />
<path d="M 216.98807419 125.727373107 L 250.482111285 113.59105966 A 106.875 106.875 0 0 0 250.375492043 113.298144159 L 216.916994695 125.532096106 A 71.25 71.25 0 0 1 216.98807419 125.727373107 z" fill="#4c1" stroke="white" stroke-width="1" />
<path d="M 216.916994695 125.532096106 L 250.375492043 113.298144159 A 106.875 106.875 0 0 0 250.213962447 112.859357091 L 216.809308298 125.239571394 A 71.25 71.25 0 0 1 216.916994695 125.532096106 z" fill="#4c1" stroke="white" stroke-width="1" />
<path d="M 216.809308298 125.239571394 L 250.213962447 112.859357091 A 106.875 106.875 0 0 0 249.21910342 110.278026969 L 216.146068947 123.518684646 A 71.25 71.25 0 0 1 216.809308298 125.239571394 z" fill="#4c1" stroke="white" stroke-width="1" />
<path d="M 216.146068947 123.518684646 L 249.21910342 110.278026969 A 106.875 106.875 0 0 0 248.778721441 109.195223128 L 215.85248096 122.796815419 A 71.25 71.25 0 0 1 216.146068947 123.518684646 z" fill="#4c1" stroke="white" stroke-width="1" />
<path d="M 215.85248096 122.796815419 L 248.778721441 109.195223128 A 106.875 106.875 0 0 0 247.095897851 105.338470184 L 214.730598567 120.225646789 A 71.25 71.25 0 0 1 215.85248096 122.796815419 z" fill="#4c1" stroke="white" stroke-width="1" />
<path d="M 214.730598567 120.225646789 L 247.095897851 105.338470184 A 106.875 106.875 0 0 0 246.651566922 104.384868337 L 214.434377948 119.589912225 A 71.25 71.25 0 0 1 214.730598567 120.225646789 z" fill="#4c1" stroke="white" stroke-width="1" />
<path d="M 214.434377948 119.589912225 L 246.651566922 104.384868337 A 106.875 106.875 0 0 0 246.501373287 104.067978723 L 214.334248858 119.378652482 A 71.25 71.25 0 0 1 214.434377948 119.589912225 z" fill="#4c1" stroke="white" stroke-width="1" />
<path d="M 214.334248858 119.378652482 L 246.501373287 104.067978723 A 106.875 106.875 0 0 0 246.366995557 103.786714115 L 214.244663705 119.191142743 A 71.25 71.25 0 0 1 214.334248858 119.378652482 z" fill="#4c1" stroke="white" stroke-width="1" />
<path d="M 214.244663705 119.191142743 L 246.366995557 103.786714115 A 106.875 106.875 0 0 0 245.890225325 102.805399545 L 213.926816883 118.53693303 A 71.25 71.25 0 0 1 214.244663705 119.191142743 z" fill="#4c1" stroke="white" stroke-width="1" />
<path d="M 213.926816883 118.53693303 L 245.890225325 102.805399545 A 106.875 106.875 0 0 0 245.700186031 102.421223023 L 213.800124021 118.280815348 A 71.25 71.25 0 0 1 213.926816883 118.53693303 z" fill="#4c1" stroke="white" stroke-width="1" />
<path d="M 213.800124021 118.280815348 L 245.700186031 102.421223023 A 106.875 106.875 0 0 0 245.403462592 101.829003016 L 213.602308395 117.886002011 A 71.25 71.25 0 0 1 213.800124021 118.280815348 z" fill="#4c1" stroke="white" stroke-width="1" />
<path d="M 213.602308395 117.886002011 L 245.403462592 101.829003016 A 106.875 106.875 0 0 0 244.924668141 100.892230723 L 213.283112094 117.261487148 A 71.25 71.25 0 0 1 213.602308395 117.886002011 z" fill="#4c1" stroke="white" stroke-width="1" />
<path d="M 213.283112094 117.261487148 L 244.924668141 100.892230723 A 106.875 106.875 0 0 0 243.033278927 97.3970092379 L 212.022185951 114.931339492 A 71.25 71.25 0 0 1 213.283112094 117.261487148 z" fill="#4c1" stroke="white" stroke-width="1" />
<path d="M 212.022185951 114.931339492 L 243.033278927 97.3970092379 A 106.875 106.875 0 0 0 241.257487623 94.3732386558 L 210.838325082 112.915492437 A 71.25 71.25 0 0 1 212.022185951 114.931339492 z" fill="#4c1" stroke="white" stroke-width="1" />
<path d="M 210.838325082 112.915492437 L 241.257487623 94.3732386558 A 106.875 106.875 0 0 0 241.033669432 94.0077089702 L 210.689112955 112.67180598 A 71.25 71.25 0 0 1 210.838325082 112.915492437 z" fill="#4c1" stroke="white" stroke-width="1" />
<path d="M 210.689112955 112.67180598 L 241.033669432 94.0077089702 A 106.875 106.875 0 0 0 240.808387128 93.6430798196 L 210.538924752 112.42871988 A 71.25 71.25 0 0 1 210.689112955 112.67180598 z" fill="#4c1" stroke="white" stroke-width="1" />
<path d="M 210.538924752 112.42871988 L 240.808387128 93.6430798196 A 106.875 106.875 0 0 0 238.7155669 90.4029043105 L 209.143711267 110.268602874 A 71.25 71.25 0 0 1 210.538924752 112.42871988 z" fill="#4c1" stroke="white" stroke-width="1" />
<path d="M 209.143711267 110.268602874 L 238.7155669 90.4029043105 A 106.875 106.875 0 0 0 238.168690544 89.5967912045 L 208.779127029 109.731194136 A 71.25 71.25 0 0 1 209.143711267 110.268602874 z" fill="#4c1" stroke="white" stroke-width="1" />
<path d="M 208.779127029 109.731194136 L 238.168690544 89.5967912045 A 106.875 106.875 0 0 0 237.525140884 88.6679909164 L 208.350093923 109.111993944 A 71.25 71.25 0 0 1 208.779127029 109.731194136 z" fill="#4c1" stroke="white" stroke-width="1" />
<path d="M 208.350093923 109.111993944 L 237.525140884 88.6679909164 A 106.875 106.875 0 0 0 237.143334216 88.1267026356 L 208.095556144 108.75113509 A 71.25 71.25 0 0 1 208.350093923 109.111993944 z" fill="#4c1" stroke="white" stroke-width="1" />
<path d="M 208.095556144 108.75113509 L 237.143334216 88.1267026356 A 106.875 106.875 0 0 0 236.68986531 87.4929373783 L 207.79324354 108.328624919 A 71.25 71.25 0 0 1 208.095556144 108.75113509 z" fill="#4c1" stroke="white" stroke-width="1" />
<path d="M 207.79324354 108.328624919 L 236.68986531 87.4929373783 A 106.875 106.875 0 0 0 234.114057793 84.0675276773 L 206.076038529 106.045018452 A 71.25 71.25 0 0 1 207.79324354 108.328624919 z" fill="#4c1" stroke="white" stroke-width="1" />
<path d="M 206.076038529 106.045018452 L 234.114057793 84.0675276773 A 106.875 106.875 0 0 0 233.533940123 83.3340681267 L 205.689293415 105.556045418 A 71.25 71.25 0 0 1 206.076038529 106.045018452 z" fill="#4c1" stroke="white" stroke-width="1" />
<path d="M 205.689293415 105.556045418 L 233.533940123 83.3340681267 A 106.875 106.875 0 0 0 233.217036548 82.9389050705 L 205.478024365 105.29260338 A 71.25 71.25 0 0 1 205.689293415 105.556045418 z" fill="#4c1" stroke="white" stroke-width="1" />
<path d="M 205.478024365 105.29260338 L 233.217036548 82.9389050705 A 106.875 106.875 0 0 0 232.701169671 82.3037507683 L 205.134113114 104.869167179 A 71.25 71.25 0 0 1 205.478024365 105.29260338 z" fill="#4c1" stroke="white" stroke-width="1" />
<path d="M 205.134113114 104.869167179 L 232.701169671 82.3037507683 A 106.875 106.875 0 0 0 231.755394592 81.1645361737 L 204.503596394 104.109690782 A 71.25 71.25 0 0 1 205.134113114 104.869167179 z" fill="#4c1" stroke="white" stroke-width="1" />
<path d="M 204.503596394 104.109690782 L 231.755394592 81.1645361737 A 106.875 106.875 0 0 0 229.218174068 78.2591711621 L 202.812116045 102.172780775 A 71.25 71.25 0 0 1 204.503596394 104.109690782 z" fill="#4c1" stroke="white" stroke-width="1" />
<path d="M 202.812116045 102.172780775 L 229.218174068 78.2591711621 A 106.875 106.875 0 0 0 227.576444772 76.487002227 L 201.717629848 100.991334818 A 71.25 71.25 0 0 1 202.812116045 102.172780775 z" fill="#4c1" stroke="white" stroke-width="1" />
<path d="M 201.717629848 100.991334818 L 227.576444772 76.487002227 A 106.875 106.875 0 0 0 226.141575646 75.0018261342 L 200.76105043 100.001217423 A 71.25 71.25 0 0 1 201.717629848 100.991334818 z" fill="#4c1" stroke="white" stroke-width="1" />
<path d="M 200.76105043 100.001217423 L 226.141575646 75.0018261342 A 106.875 106.875 0 0 0 225.757784977 74.614168172 L 200.505189985 99.7427787814 A 71.25 71.25 0 0 1 200.76105043 100.001217423 z" fill="#4c1" stroke="white" stroke-width="1" />
<path d="M 200.505189985 99.7427787814 L 225.757784977 74.614168172 A 106.875 106.875 0 0 0 224.761856201 73.6263757419 L 199.841237468 99.0842504946 A 71.25 71.25 0 0 1 200.505189985 99.7427787814 z" fill="#4c1" stroke="white" stroke-width="1" />
<path d="M 199.841237468 99.0842504946 L 224.761856201 73.6263757419 A 106.875 106.875 0 0 0 224.399041228 73.2728972959 L 199.599360819 98.8485981973 A 71.25 71.25 0 0 1 199.841237468 99.0842504946 z" fill="#4c1" stroke="white" stroke-width="1" />
<path d="M 199.599360819 98.8485981973 L 224.399041228 73.2728972959 A 106.875 106.875 0 0 0 224.231023993 73.110334232 L 199.487349329 98.7402228213 A 71.25 71.25 0 0 1 199.599360819 98.8485981973 z" fill="#4c1" stroke="white" stroke-width="1" />
<path d="M 199.487349329 98.7402228213 L 224.231023993 73.110334232 A 106.875 106.875 0 0 0 222.70298183 71.6639159898 L 198.468654553 97.7759439932 A 71.25 71.25 0 0 1 199.487349329 98.7402228213 z" fill="#4c1" stroke="white" stroke-width="1" />
<path d="M 198.468654553 97.7759439932 L 222.70298183 71.6639159898 A 106.875 106.875 0 0 0 222.330888839 71.3202176875 L 198.220592559 97.5468117917 A 71.25 71.25 0 0 1 198.468654553 97.7759439932 z" fill="#4c1" stroke="white" stroke-width="1" />
<path d="M 198.220592559 97.5468117917 L 222.330888839 71.3202176875 A 106.875 106.875 0 0 0 219.147926379 68.5087127202 L 196.098617586 95.6724751468 A 71.25 71.25 0 0 1 198.220592559 97.5468117917 z" fill="#4c1" stroke="white" stroke-width="1" />
<path d="M 196.098617586 95.6724751468 L 219.147926379 68.5087127202 A 106.875 106.875 0 0 0 218.521992537 67.9816961663 L 195.681328358 95.3211307775 A 71.25 71.25 0 0 1 196.098617586 95.6724751468 z" fill="#4c1" stroke="white" stroke-width="1" />
<path d="M 195.681328358 95.3211307775 L 218.521992537 67.9816961663 A 106.875 106.875 0 0 0 216.620239602 66.429614693 L 194.413493068 94.2864097954 A 71.25 71.25 0 0 1 195.681328358 95.3211307775 z" fill="#4c1" stroke="white" stroke-width="1" />
<path d="M 194.413493068 94.2864097954 L 216.620239602 66.429614693 A 106.875 106.875 0 0 0 214.185957526 64.5457521158 L 192.790638351 93.0305014106 A 71.25 71.25 0 0 1 194.413493068 94.2864097954 z" fill="#4c1" stroke="white" stroke-width="1" />
<path d="M 192.790638351 93.0305014106 L 214.185957526 64.5457521158 A 106.875 106.875 0 0 0 212.364753996 63.2077014703 L 191.576502664 92.1384676469 A 71.25 71.25 0 0 1 192.790638351 93.0305014106 z" fill="#4c1" stroke="white" stroke-width="1" />
<path d="M 191.576502664 92.1384676469 L 212.364753996 63.2077014703 A 106.875 106.875 0 0 0 212.079633542 63.003536139 L 191.386422361 92.002357426 A 71.25 71.25 0 0 1 191.576502664 92.1384676469 z" fill="#4c1" stroke="white" stroke-width="1" />
<path d="M 191.386422361 92.002357426 L 212.079633542 63.003536139 A 106.875 106.875 0 0 0 209.742563379 61.3823282527 L 189.828375586 90.9215521685 A 71.25 71.25 0 0 1 191.386422361 92.002357426 z" fill="#4c1" stroke="white" stroke-width="1" />
<path d="M 189.828375586 90.9215521685 L 209.742563379 61.3823282527 A 106.875 106.875 0 0 0 207.363178494 59.8238868763 L 188.242118996 89.8825912509 A 71.25 71.25 0 0 1 189.828375586 90.9215521685 z" fill="#4c1" stroke="white" stroke-width="1" />
<path d="M 188.242118996 89.8825912509 L 207.363178494 59.8238868763 A 106.875 106.875 0 0 0 205.243660189 58.5100899883 L 186.829106793 89.0067266589 A 71.25 71.25 0 0 1 188.242118996 89.8825912509 z" fill="#4c1" stroke="white" stroke-width="1" />
<path d="M 186.829106793 89.0067266589 L 205.243660189 58.5100899883 A 106.875 106.875 0 0 0 204.541583188 58.0898192342 L 186.361055458 88.7265461562 A 71.25 71.25 0 0 1 186.829106793 89.0067266589 z" fill="#4c1" stroke="white" stroke-width="1" />
<path d="M 186.361055458 88.7265461562 L 204.541583188 58.0898192342 A 106.875 106.875 0 0 0 203.634220807 57.5573908662 L 185.756147204 88.3715939108 A 71.25 71.25 0 0 1 186.361055458 88.7265461562 z" fill="#4c1" stroke="white" stroke-width="1" />
<path d="M 185.756147204 88.3715939108 L 203.634220807 57.5573908662 A 106.875 106.875 0 0 0 203.026419877 57.207411826 L 185.350946585 88.1382745507 A 71.25 71.25 0 0 1 185.756147204 88.3715939108 z" fill="#4c1" stroke="white" stroke-width="1" />
<path d="M 185.350946585 88.1382745507 L 203.026419877 57.207411826 A 106.875 106.875 0 0 0 202.619948961 56.9763116387 L 185.079965974 87.9842077592 A 71.25 71.25 0 0 1 185.350946585 88.1382745507 z" fill="#4c1" stroke="white" stroke-width="1" />
<path d="M 185.079965974 87.9842077592 L 202.619948961 56.9763116387 A 106.875 106.875 0 0 0 199.988130985 55.5359730607 L 183.325420657 87.0239820404 A 71.25 71.25 0 0 1 185.079965974 87.9842077592 z" fill="#4c1" stroke="white" stroke-width="1" />
<path d="M 183.325420657 87.0239820404 L 199.988130985 55.5359730607 A 106.875 106.875 0 0 0 196.932226347 53.981086472 L 181.288150898 85.9873909813 A 71.25 71.25 0 0 1 183.325420657 87.0239820404 z" fill="#4c1" stroke="white" stroke-width="1" />
<path d="M 181.288150898 85.9873909813 L 196.932226347 53.981086472 A 106.875 106.875 0 0 0 196.195718339 53.6245818058 L 180.79714556 85.7497212039 A 71.25 71.25 0 0 1 181.288150898 85.9873909813 z" fill="#4c1" stroke="white" stroke-width="1" />
<path d="M 180.79714556 85.7497212039 L 196.195718339 53.6245818058 A 106.875 106.875 0 0 0 192.723579 52.0359176919 L 178.482386 84.6906117946 A 71.25 71.25 0 0 1 180.79714556 85.7497212039 z" fill="#4c1" stroke="white" stroke-width="1" />
<path d="M 178.482386 84.6906117946 L 192.723579 52.0359176919 A 106.875 106.875 0 0 0 190.209830553 50.9776027765 L 176.806553702 83.9850685177 A 71.25 71.25 0 0 1 178.482386 84.6906117946 z" fill="#4c1" stroke="white" stroke-width="1" />
<path d="M 176.806553702 83.9850685177 L 190.209830553 50.9776027765 A 106.875 106.875 0 0 0 185.068620747 49.0422986398 L 173.379080498 82.6948657599 A 71.25 71.25 0 0 1 176.806553702 83.9850685177 z" fill="#4c1" stroke="white" stroke-width="1" />
<path d="M 173.379080498 82.6948657599 L 185.068620747 49.0422986398 A 106.875 106.875 0 0 0 184.626599683 48.8898411662 L 173.084399789 82.5932274441 A 71.25 71.25 0 0 1 173.379080498 82.6948657599 z" fill="#4c1" stroke="white" stroke-width="1" />
<path d="M 173.084399789 82.5932274441 L 184.626599683 48.8898411662 A 106.875 106.875 0 0 0 182.703625346 48.2515920802 L 171.802416897 82.1677280535 A 71.25 71.25 0 0 1 173.084399789 82.5932274441 z" fill="#4c1" stroke="white" stroke-width="1" />
<path d="M 171.802416897 82.1677280535 L 182.703625346 48.2515920802 A 106.875 106.875 0 0 0 181.439897645 47.8540335545 L 170.959931763 81.9026890363 A 71.25 71.25 0 0 1 171.802416897 82.1677280535 z" fill="#4c1" stroke="white" stroke-width="1" />
<path d="M 170.959931763 81.9026890363 L 181.439897645 47.8540335545 A 106.875 106.875 0 0 0 181.030000889 47.7287690999 L 170.686667259 81.8191793999 A 71.25 71.25 0 0 1 170.959931763 81.9026890363 z" fill="#4c1" stroke="white" stroke-width="1" />
<path d="M 170.686667259 81.8191793999 L 181.030000889 47.7287690999 A 106.875 106.875 0 0 0 177.507570898 46.7256122348 L 168.338380599 81.1504081565 A 71.25 71.25 0 0 1 170.686667259 81.8191793999 z" fill="#4c1" stroke="white" stroke-width="1" />
<path d="M 168.338380599 81.1504081565 L 177.507570898 46.7256122348 A 106.875 106.875 0 0 0 176.149773699 46.3734833139 L 167.433182466 80.9156555426 A 71.25 71.25 0 0 1 168.338380599 81.1504081565 z" fill="#4c1" stroke="white" stroke-width="1" />
<path d="M 167.433182466 80.9156555426 L 176.149773699 46.3734833139 A 106.875 106.875 0 0 0 175.923029892 46.3165290598 L 167.282019928 80.8776860399 A 71.25 71.25 0 0 1 167.433182466 80.9156555426 z" fill="#4c1" stroke="white" stroke-width="1" />
<path d="M 167.282019928 80.8776860399 L 175.923029892 46.3165290598 A 106.875 106.875 0 0 0 175.317776253 46.167077328 L 166.878517502 80.778051552 A 71.25 71.25 0 0 1 167.282019928 80.8776860399 z" fill="#4c1" stroke="white" stroke-width="1" />
<path d="M 166.878517502 80.778051552 L 175.317776253 46.167077328 A 106.875 106.875 0 0 0 174.825372381 46.0482491193 L 166.550248254 80.6988327462 A 71.25 71.25 0 0 1 166.878517502 80.778051552 z" fill="#4c1" stroke="white" stroke-width="1" />
<path d="M 166.550248254 80.6988327462 L 174.825372381 46.0482491193 A 106.875 106.875 0 0 0 174.256521822 45.9140414172 L 166.171014548 80.6093609448 A 71.25 71.25 0 0 1 166.550248254 80.6988327462 z" fill="#4c1" stroke="white" stroke-width="1" />
<path d="M 166.171014548 80.6093609448 L 174.256521822 45.9140414172 A 106.875 106.875 0 0 0 173.572945078 45.7571015112 L 165.715296719 80.5047343408 A 71.25 71.25 0 0 1 166.171014548 80.6093609448 z" fill="#4c1" stroke="white" stroke-width="1" />
<path d="M 165.715296719 80.5047343408 L 173.572945078 45.7571015112 A 106.875 106.875 0 0 0 170.255211144 45.0619609174 L 163.503474096 80.0413072783 A 71.25 71.25 0 0 1 165.715296719 80.5047343408 z" fill="#4c1" stroke="white" stroke-width="1" />
<path d="M 163.503474096 80.0413072783 L 170.255211144 45.0619609174 A 106.875 106.875 0 0 0 170.025612508 45.0179040565 L 163.350408339 80.0119360377 A 71.25 71.25 0 0 1 163.503474096 80.0413072783 z" fill="#4c1" stroke="white" stroke-width="1" />
<path d="M 163.350408339 80.0119360377 L 170.025612508 45.0179040565 A 106.875 106.875 0 0 0 169.566128861 44.9312975887 L 163.044085907 79.9541983925 A 71.25 71.25 0 0 1 163.350408339 80.0119360377 z" fill="#4c1" stroke="white" stroke-width="1" />
<path d="M 163.044085907 79.9541983925 L 169.566128861 44.9312975887 A 106.875 106.875 0 0 0 167.762961119 44.6114672402 L 161.84197408 79.7409781601 A 71.25 71.25 0 0 1 163.044085907 79.9541983925 z" fill="#4c1" stroke="white" stroke-width="1" />
<path d="M 161.84197408 79.7409781601 L 167.762961119 44.6114672402 A 106.875 106.875 0 0 0 162.943351705 43.9116628859 L 158.628901137 79.2744419239 A 71.25 71.25 0 0 1 161.84197408 79.7409781601 z" fill="#4c1" stroke="white" stroke-width="1" />
<path d="M 154.314450568 114.637220962 L 158.628901137 79.2744419239 A 71.25 71.25 0 0 0 83.8057680866 176.360693492 L 116.902884043 163.180346746 A 35.625 35.625 0 0 1 154.314450568 114.637220962 z" fill="#8eca02" stroke="white" stroke-width="1" />
<path d="M 158.628901137 79.2744419239 L 162.943351705 43.9116628859 A 106.875 106.875 0 0 0 109.141209997 51.2436082855 L 122.760806664 84.1624055237 A 71.25 71.25 0 0 1 158.628901137 79.2744419239 z" fill="#74cb06" stroke="white" stroke-width="1" />
<path d="M 162.943351705 43.9116628859 L 167.257802274 8.5488838479 A 142.5 142.5 0 0 0 160.277715384 7.8711198718 L 157.708286538 43.4033399039 A 106.875 106.875 0 0 1 162.943351705 43.9116628859 z" fill="#e3b116" stroke="white" stroke-width="1" />
<path d="M 157.708286538 43.4033399039 L 160.277715384 7.8711198718 A 142.5 142.5 0 0 0 156.958901253 7.67001829076 L 155.21917594 43.2525137181 A 106.875 106.875 0 0 1 157.708286538 43.4033399039 z" fill="#5bcc0c" stroke="white" stroke-width="1" />
<path d="M 155.21917594 43.2525137181 L 156.958901253 7.67001829076 A 142.5 142.5 0 0 0 142.210969421 7.71303291364 L 144.158227065 43.2847746852 A 106.875 106.875 0 0 1 155.21917594 43.2525137181 z" fill="#93ca01" stroke="white" stroke-width="1" />
<path d="M 144.158227065 43.2847746852 L 142.210969421 7.71303291364 A 142.5 142.5 0 0 0 142.107221311 7.71875020028 L 144.080415983 43.2890626502 A 106.875 106.875 0 0 1 144.158227065 43.2847746852 z" fill="#4c1" stroke="white" stroke-width="1" />
<path d="M 144.080415983 43.2890626502 L 142.107221311 7.71875020028 A 142.5 142.5 0 0 0 136.926314291 8.10099104649 L 140.194735718 43.5757432849 A 106.875 106.875 0 0 1 144.080415983 43.2890626502 z" fill="#4c1" stroke="white" stroke-width="1" />
<path d="M 140.194735718 43.5757432849 L 136.926314291 8.10099104649 A 142.5 142.5 0 0 0 127.187414202 9.33786604341 L 132.890560652 44.5033995326 A 106.875 106.875 0 0 1 140.194735718 43.5757432849 z" fill="#4c1" stroke="white" stroke-width="1" />
<path d="M 132.890560652 44.5033995326 L 127.187414202 9.33786604341 A 142.5 142.5 0 0 0 95.5216133289 18.3248110474 L 109.141209997 51.2436082855 A 106.875 106.875 0 0 1 132.890560652 44.5033995326 z" fill="#57cc0c" stroke="white" stroke-width="1" />
<path d="M 122.760806664 84.1624055237 L 109.141209997 51.2436082855 A 106.875 106.875 0 0 0 92.374054041 59.9915782978 L 111.582702694 89.9943855318 A 71.25 71.25 0 0 1 122.760806664 84.1624055237 z" fill="#4c1" stroke="white" stroke-width="1" />
<path d="M 109.141209997 51.2436082855 L 95.5216133289 18.3248110474 A 142.5 142.5 0 0 0 94.4193979434 18.7862557693 L 108.314548458 51.589691827 A 106.875 106.875 0 0 1 109.141209997 51.2436082855 z" fill="#4c1" stroke="white" stroke-width="1" />
<path d="M 108.314548458 51.589691827 L 94.4193979434 18.7862557693 A 142.5 142.5 0 0 0 74.1744319962 29.3487122451 L 93.1308239972 59.5115341839 A 106.875 106.875 0 0 1 108.314548458 51.589691827 z" fill="#4c1" stroke="white" stroke-width="1" />
<path d="M 93.1308239972 59.5115341839 L 74.1744319962 29.3487122451 A 142.5 142.5 0 0 0 73.165405388 29.9887710637 L 92.374054041 59.9915782978 A 106.875 106.875 0 0 1 93.1308239972 59.5115341839 z" fill="#4c1" stroke="white" stroke-width="1" />
<path d="M 111.582702694 89.9943855318 L 92.374054041 59.9915782978 A 106.875 106.875 0 0 0 86.3449064971 64.1495795227 L 107.563270998 92.7663863484 A 71.25 71.25 0 0 1 111.582702694 89.9943855318 z" fill="#4c1" stroke="white" stroke-width="1" />
<path d="M 92.374054041 59.9915782978 L 73.165405388 29.9887710637 A 142.5 142.5 0 0 0 72.641096921 30.3260675234 L 91.9808226907 60.2445506426 A 106.875 106.875 0 0 1 92.374054041 59.9915782978 z" fill="#4c1" stroke="white" stroke-width="1" />
<path d="M 91.9808226907 60.2445506426 L 72.641096921 30.3260675234 A 142.5 142.5 0 0 0 72.1182691287 30.6656545814 L 91.5887018466 60.499240936 A 106.875 106.875 0 0 1 91.9808226907 60.2445506426 z" fill="#4c1" stroke="white" stroke-width="1" />
<path d="M 91.5887018466 60.499240936 L 72.1182691287 30.6656545814 A 142.5 142.5 0 0 0 65.1265419961 35.5327726969 L 86.3449064971 64.1495795227 A 106.875 106.875 0 0 1 91.5887018466 60.499240936 z" fill="#4c1" stroke="white" stroke-width="1" />
<path d="M 107.563270998 92.7663863484 L 86.3449064971 64.1495795227 A 106.875 106.875 0 0 0 85.4097502023 64.8509233399 L 106.939833468 93.2339488932 A 71.25 71.25 0 0 1 107.563270998 92.7663863484 z" fill="#4c1" stroke="white" stroke-width="1" />
<path d="M 86.3449064971 64.1495795227 L 65.1265419961 35.5327726969 A 142.5 142.5 0 0 0 64.2526544827 36.1859290916 L 85.6894908621 64.6394468187 A 106.875 106.875 0 0 1 86.3449064971 64.1495795227 z" fill="#4c1" stroke="white" stroke-width="1" />
<path d="M 85.6894908621 64.6394468187 L 64.2526544827 36.1859290916 A 142.5 142.5 0 0 0 63.8796669364 36.4678977865 L 85.4097502023 64.8509233399 A 106.875 106.875 0 0 1 85.6894908621 64.6394468187 z" fill="#4c1" stroke="white" stroke-width="1" />
<path d="M 106.939833468 93.2339488932 L 85.4097502023 64.8509233399 A 106.875 106.875 0 0 0 83.4102329817 66.4053317882 L 105.606821988 94.2702211921 A 71.25 71.25 0 0 1 106.939833468 93.2339488932 z" fill="#4c1" stroke="white" stroke-width="1" />
<path d="M 85.4097502023 64.8509233399 L 63.8796669364 36.4678977865 A 142.5 142.5 0 0 0 62.0695941174 37.8639499477 L 84.0521955881 65.8979624608 A 106.875 106.875 0 0 1 85.4097502023 64.8509233399 z" fill="#4c1" stroke="white" stroke-width="1" />
<path d="M 84.0521955881 65.8979624608 L 62.0695941174 37.8639499477 A 142.5 142.5 0 0 0 61.6613529089 38.1852718551 L 83.7460146816 66.1389538914 A 106.875 106.875 0 0 1 84.0521955881 65.8979624608 z" fill="#4c1" stroke="white" stroke-width="1" />
<path d="M 83.7460146816 66.1389538914 L 61.6613529089 38.1852718551 A 142.5 142.5 0 0 0 61.2136439756 38.5404423842 L 83.4102329817 66.4053317882 A 106.875 106.875 0 0 1 83.7460146816 66.1389538914 z" fill="#4c1" stroke="white" stroke-width="1" />
<path d="M 105.606821988 94.2702211921 L 83.4102329817 66.4053317882 A 106.875 106.875 0 0 0 51.2510580913 109.123208334 L 84.1673720608 122.748805556 A 71.25 71.25 0 0 1 105.606821988 94.2702211921 z" fill="#4fcc0e" stroke="white" stroke-width="1" />
<path d="M 83.4102329817 66.4053317882 L 61.2136439756 38.5404423842 A 142.5 142.5 0 0 0 59.5575483678 39.8800066166 L 82.1681612758 67.4100049625 A 106.875 106.875 0 0 1 83.4102329817 66.4053317882 z" fill="#4c1" stroke="white" stroke-width="1" />
<path d="M 82.1681612758 67.4100049625 L 59.5575483678 39.8800066166 A 142.5 142.5 0 0 0 58.5974796263 40.6755778916 L 81.4481097197 68.0066834187 A 106.875 106.875 0 0 1 82.1681612758 67.4100049625 z" fill="#4c1" stroke="white" stroke-width="1" />
<path d="M 81.4481097197 68.0066834187 L 58.5974796263 40.6755778916 A 142.5 142.5 0 0 0 31.8576269606 70.3217112845 L 61.3932202205 90.2412834634 A 106.875 106.875 0 0 1 81.4481097197 68.0066834187 z" fill="#57cc0c" stroke="white" stroke-width="1" />
<path d="M 61.3932202205 90.2412834634 L 31.8576269606 70.3217112845 A 142.5 142.5 0 0 0 25.7515902407 80.224770353 L 56.8136926806 97.6685777647 A 106.875 106.875 0 0 1 61.3932202205 90.2412834634 z" fill="#4c1" stroke="white" stroke-width="1" />
<path d="M 56.8136926806 97.6685777647 L 25.7515902407 80.224770353 A 142.5 142.5 0 0 0 25.1207922399 81.3601175029 L 56.3405941799 98.5200881272 A 106.875 106.875 0 0 1 56.8136926806 97.6685777647 z" fill="#4c1" stroke="white" stroke-width="1" />
<path d="M 56.3405941799 98.5200881272 L 25.1207922399 81.3601175029 A 142.5 142.5 0 0 0 23.0068142434 85.3549632888 L 54.7551106825 101.516222467 A 106.875 106.875 0 0 1 56.3405941799 98.5200881272 z" fill="#4c1" stroke="white" stroke-width="1" />
<path d="M 54.7551106825 101.516222467 L 23.0068142434 85.3549632888 A 142.5 142.5 0 0 0 18.3347441217 95.497611112 L 51.2510580913 109.123208334 A 106.875 106.875 0 0 1 54.7551106825 101.516222467 z" fill="#4ccc0f" stroke="white" stroke-width="1" />
<path d="M 84.1673720608 122.748805556 L 51.2510580913 109.123208334 A 106.875 106.875 0 0 0 49.6781378389 113.151803334 L 83.1187585593 125.434535556 A 71.25 71.25 0 0 1 84.1673720608 122.748805556 z" fill="#4c1" stroke="white" stroke-width="1" />
<path d="M 51.2510580913 109.123208334 L 18.3347441217 95.497611112 A 142.5 142.5 0 0 0 18.0975586535 96.0741623447 L 51.0731689901 109.555621759 A 106.875 106.875 0 0 1 51.2510580913 109.123208334 z" fill="#4c1" stroke="white" stroke-width="1" />
<path d="M 51.0731689901 109.555621759 L 18.0975586535 96.0741623447 A 142.5 142.5 0 0 0 18.0779070957 96.1222550236 L 51.0584303217 109.591691268 A 106.875 106.875 0 0 1 51.0731689901 109.555621759 z" fill="#4c1" stroke="white" stroke-width="1" />
<path d="M 51.0584303217 109.591691268 L 18.0779070957 96.1222550236 A 142.5 142.5 0 0 0 17.8434568747 96.699923929 L 50.882592656 110.024942947 A 106.875 106.875 0 0 1 51.0584303217 109.591691268 z" fill="#4c1" stroke="white" stroke-width="1" />
<path d="M 50.882592656 110.024942947 L 17.8434568747 96.699923929 A 142.5 142.5 0 0 0 16.2375171186 100.869071112 L 49.6781378389 113.151803334 A 106.875 106.875 0 0 1 50.882592656 110.024942947 z" fill="#4c1" stroke="white" stroke-width="1" />
<path d="M 83.1187585593 125.434535556 L 49.6781378389 113.151803334 A 106.875 106.875 0 0 0 45.6845511066 173.249790261 L 80.4563674044 165.499860174 A 71.25 71.25 0 0 1 83.1187585593 125.434535556 z" fill="#c0b01b" stroke="white" stroke-width="1" />
<path d="M 49.6781378389 113.151803334 L 16.2375171186 100.869071112 A 142.5 142.5 0 0 0 13.2596171783 109.896163453 L 47.4447128838 119.92212259 A 106.875 106.875 0 0 1 49.6781378389 113.151803334 z" fill="#4c1" stroke="white" stroke-width="1" />
<path d="M 47.4447128838 119.92212259 L 13.2596171783 109.896163453 A 142.5 142.5 0 0 0 9.29240519359 127.46951479 L 44.4693038952 133.102136093 A 106.875 106.875 0 0 1 47.4447128838 119.92212259 z" fill="#9dc008" stroke="white" stroke-width="1" />
<path d="M 44.4693038952 133.102136093 L 9.29240519359 127.46951479 A 142.5 142.5 0 0 0 8.20266480631 135.866149429 L 43.6519986047 139.399612072 A 106.875 106.875 0 0 1 44.4693038952 133.102136093 z" fill="#57cc0c" stroke="white" stroke-width="1" />
<path d="M 43.6519986047 139.399612072 L 8.20266480631 135.866149429 A 142.5 142.5 0 0 0 7.93958570864 138.815694417 L 43.4546892815 141.611770813 A 106.875 106.875 0 0 1 43.6519986047 139.399612072 z" fill="#e05d44" stroke="white" stroke-width="1" />
<path d="M 43.4546892815 141.611770813 L 7.93958570864 138.815694417 A 142.5 142.5 0 0 0 7.53818567584 146.701294274 L 43.1536392569 147.525970705 A 106.875 106.875 0 0 1 43.4546892815 141.611770813 z" fill="#a4a61d" stroke="white" stroke-width="1" />
<path d="M 43.1536392569 147.525970705 L 7.53818567584 146.701294274 A 142.5 142.5 0 0 0 7.50824161407 151.532576943 L 43.1311812106 151.149432707 A 106.875 106.875 0 0 1 43.1536392569 147.525970705 z" fill="#b7ae1c" stroke="white" stroke-width="1" />
<path d="M 43.1311812106 151.149432707 L 7.50824161407 151.532576943 A 142.5 142.5 0 0 0 7.76246266953 158.644823547 L 43.3218470021 156.48361766 A 106.875 106.875 0 0 1 43.1311812106 151.149432707 z" fill="#8eca02" stroke="white" stroke-width="1" />
<path d="M 43.3218470021 156.48361766 L 7.76246266953 158.644823547 A 142.5 142.5 0 0 0 8.5966015564 167.644514972 L 43.9474511673 163.233386229 A 106.875 106.875 0 0 1 43.3218470021 156.48361766 z" fill="#9ac603" stroke="white" stroke-width="1" />
<path d="M 43.9474511673 163.233386229 L 8.5966015564 167.644514972 A 142.5 142.5 0 0 0 10.9127348089 180.999720348 L 45.6845511066 173.249790261 A 106.875 106.875 0 0 1 43.9474511673 163.233386229 z" fill="#e05d44" stroke="white" stroke-width="1" />
<path d="M 80.4563674044 165.499860174 L 45.6845511066 173.249790261 A 106.875 106.875 0 0 0 50.70865213 189.541040239 L 83.8057680866 176.360693492 A 71.25 71.25 0 0 1 80.4563674044 165.499860174 z" fill="#4c1" stroke="white" stroke-width="1" />
<path d="M 45.6845511066 173.249790261 L 10.9127348089 180.999720348 A 142.5 142.5 0 0 0 17.3821494304 202.141688794 L 50.5366120728 189.106266595 A 106.875 106.875 0 0 1 45.6845511066 173.249790261 z" fill="#4c1" stroke="white" stroke-width="1" />
<path d="M 50.5366120728 189.106266595 L 17.3821494304 202.141688794 A 142.5 142.5 0 0 0 17.6115361733 202.721386985 L 50.70865213 189.541040239 A 106.875 106.875 0 0 1 50.5366120728 189.106266595 z" fill="#4c1" stroke="white" stroke-width="1" />
<path d="M 116.902884043 163.180346746 L 83.8057680866 176.360693492 A 71.25 71.25 0 0 0 90.2690207084 188.842922301 L 120.134510354 169.42146115 A 35.625 35.625 0 0 1 116.902884043 163.180346746 z" fill="#b4ad1c" stroke="white" stroke-width="1" />
<path d="M 83.8057680866 176.360693492 L 50.70865213 189.541040239 A 106.875 106.875 0 0 0 51.6125031137 191.739263068 L 84.4083354092 177.826175379 A 71.25 71.25 0 0 1 83.8057680866 176.360693492 z" fill="#98c802" stroke="white" stroke-width="1" />
<path d="M 84.4083354092 177.826175379 L 51.6125031137 191.739263068 A 106.875 106.875 0 0 0 55.3815168428 199.695153386 L 86.9210112286 183.130102257 A 71.25 71.25 0 0 1 84.4083354092 177.826175379 z" fill="#c3b11b" stroke="white" stroke-width="1" />
<path d="M 86.9210112286 183.130102257 L 55.3815168428 199.695153386 A 106.875 106.875 0 0 0 59.9810751369 207.609537331 L 89.9873834246 188.406358221 A 71.25 71.25 0 0 1 86.9210112286 183.130102257 z" fill="#bdb01b" stroke="white" stroke-width="1" />
<path d="M 89.9873834246 188.406358221 L 59.9810751369 207.609537331 A 106.875 106.875 0 0 0 60.4035310626 208.264383451 L 90.2690207084 188.842922301 A 71.25 71.25 0 0 1 89.9873834246 188.406358221 z" fill="#a3b114" stroke="white" stroke-width="1" />
<path d="M 120.134510354 169.42146115 L 90.2690207084 188.842922301 A 71.25 71.25 0 0 0 143.747744039 220.97514914 L 146.873872019 185.48757457 A 35.625 35.625 0 0 1 120.134510354 169.42146115 z" fill="#85cb03" stroke="white" stroke-width="1" />
<path d="M 90.2690207084 188.842922301 L 60.4035310626 208.264383451 A 106.875 106.875 0 0 0 63.8834494888 213.294591815 L 92.5889663258 192.196394543 A 71.25 71.25 0 0 1 90.2690207084 188.842922301 z" fill="#4fcc0e" stroke="white" stroke-width="1" />
<path d="M 92.5889663258 192.196394543 L 63.8834494888 213.294591815 A 106.875 106.875 0 0 0 68.6222673656 219.281528969 L 95.7481782437 196.187685979 A 71.25 71.25 0 0 1 92.5889663258 192.196394543 z" fill="#4c1" stroke="white" stroke-width="1" />
<path d="M 95.7481782437 196.187685979 L 68.6222673656 219.281528969 A 106.875 106.875 0 0 0 85.3476799434 235.1019573 L 106.898453296 206.7346382 A 71.25 71.25 0 0 1 95.7481782437 196.187685979 z" fill="#78cb06" stroke="white" stroke-width="1" />
<path d="M 106.898453296 206.7346382 L 85.3476799434 235.1019573 A 106.875 106.875 0 0 0 101.255970614 245.11196152 L 117.503980409 213.407974347 A 71.25 71.25 0 0 1 106.898453296 206.7346382 z" fill="#4c1" stroke="white" stroke-width="1" />
<path d="M 117.503980409 213.407974347 L 101.255970614 245.11196152 A 106.875 106.875 0 0 0 122.718405881 253.33431302 L 131.812270587 218.889542013 A 71.25 71.25 0 0 1 117.503980409 213.407974347 z" fill="#bdb01b" stroke="white" stroke-width="1" />
<path d="M 131.812270587 218.889542013 L 122.718405881 253.33431302 A 106.875 106.875 0 0 0 124.03917083 253.674013011 L 132.692780553 219.116008674 A 71.25 71.25 0 0 1 131.812270587 218.889542013 z" fill="#4c1" stroke="white" stroke-width="1" />
<path d="M 132.692780553 219.116008674 L 124.03917083 253.674013011 A 106.875 106.875 0 0 0 131.622582429 255.283123759 L 137.748388286 220.188749173 A 71.25 71.25 0 0 1 132.692780553 219.116008674 z" fill="#5fcc0b" stroke="white" stroke-width="1" />
<path d="M 137.748388286 220.188749173 L 131.622582429 255.283123759 A 106.875 106.875 0 0 0 140.621616058 256.462723709 L 143.747744039 220.97514914 A 71.25 71.25 0 0 1 137.748388286 220.188749173 z" fill="#4c1" stroke="white" stroke-width="1" />
<path d="M 146.873872019 185.48757457 L 143.747744039 220.97514914 A 71.25 71.25 0 0 0 150.0 221.25 L 150.0 185.625 A 35.625 35.625 0 0 1 146.873872019 185.48757457 z" fill="#4c1" stroke="white" stroke-width="1" />
<path d="M 143.747744039 220.97514914 L 140.621616058 256.462723709 A 106.875 106.875 0 0 0 141.903134608 256.56784879 L 144.602089739 221.045232527 A 71.25 71.25 0 0 1 143.747744039 220.97514914 z" fill="#4c1" stroke="white" stroke-width="1" />
<path d="M 140.621616058 256.462723709 L 137.495488077 291.950298279 A 142.5 142.5 0 0 0 137.806031857 291.977312064 L 140.854523893 256.482984048 A 106.875 106.875 0 0 1 140.621616058 256.462723709 z" fill="#4c1" stroke="white" stroke-width="1" />
<path d="M 140.854523893 256.482984048 L 137.806031857 291.977312064 A 142.5 142.5 0 0 0 138.427292978 292.029301386 L 141.320469734 256.521976039 A 106.875 106.875 0 0 1 140.854523893 256.482984048 z" fill="#4c1" stroke="white" stroke-width="1" />
<path d="M 141.320469734 256.521976039 L 138.427292978 292.029301386 A 142.5 142.5 0 0 0 138.893384833 292.066509423 L 141.670038624 256.549882067 A 106.875 106.875 0 0 1 141.320469734 256.521976039 z" fill="#4c1" stroke="white" stroke-width="1" />
<path d="M 141.670038624 256.549882067 L 138.893384833 292.066509423 A 142.5 142.5 0 0 0 139.204179478 292.090465054 L 141.903134608 256.56784879 A 106.875 106.875 0 0 1 141.670038624 256.549882067 z" fill="#4c1" stroke="white" stroke-width="1" />
<path d="M 144.602089739 221.045232527 L 141.903134608 256.56784879 A 106.875 106.875 0 0 0 142.408307333 256.605027215 L 144.938871555 221.070018143 A 71.25 71.25 0 0 1 144.602089739 221.045232527 z" fill="#4c1" stroke="white" stroke-width="1" />
<path d="M 141.903134608 256.56784879 L 139.204179478 292.090465054 A 142.5 142.5 0 0 0 139.61865244 292.12134823 L 142.21398933 256.591011173 A 106.875 106.875 0 0 1 141.903134608 256.56784879 z" fill="#4c1" stroke="white" stroke-width="1" />
<path d="M 142.21398933 256.591011173 L 139.61865244 292.12134823 A 142.5 142.5 0 0 0 139.87774311 292.140036286 L 142.408307333 256.605027215 A 106.875 106.875 0 0 1 142.21398933 256.591011173 z" fill="#4c1" stroke="white" stroke-width="1" />
<path d="M 144.938871555 221.070018143 L 142.408307333 256.605027215 A 106.875 106.875 0 0 0 143.10805639 256.652551485 L 145.405370926 221.10170099 A 71.25 71.25 0 0 1 144.938871555 221.070018143 z" fill="#4c1" stroke="white" stroke-width="1" />
<path d="M 142.408307333 256.605027215 L 139.87774311 292.140036286 A 142.5 142.5 0 0 0 140.188696239 292.161838475 L 142.64152218 256.621378856 A 106.875 106.875 0 0 1 142.408307333 256.605027215 z" fill="#4c1" stroke="white" stroke-width="1" />
<path d="M 142.64152218 256.621378856 L 140.188696239 292.161838475 A 142.5 142.5 0 0 0 140.810741853 292.20340198 L 143.10805639 256.652551485 A 106.875 106.875 0 0 1 142.64152218 256.621378856 z" fill="#4c1" stroke="white" stroke-width="1" />
<path d="M 145.405370926 221.10170099 L 143.10805639 256.652551485 A 106.875 106.875 0 0 0 143.885902138 256.699969224 L 145.923934759 221.133312816 A 71.25 71.25 0 0 1 145.405370926 221.10170099 z" fill="#4c1" stroke="white" stroke-width="1" />
<path d="M 143.10805639 256.652551485 L 140.810741853 292.20340198 A 142.5 142.5 0 0 0 141.432963352 292.242243666 L 143.574722514 256.681682749 A 106.875 106.875 0 0 1 143.10805639 256.652551485 z" fill="#4c1" stroke="white" stroke-width="1" />
<path d="M 143.574722514 256.681682749 L 141.432963352 292.242243666 A 142.5 142.5 0 0 0 141.847869517 292.266625632 L 143.885902138 256.699969224 A 106.875 106.875 0 0 1 143.574722514 256.681682749 z" fill="#4c1" stroke="white" stroke-width="1" />
<path d="M 145.923934759 221.133312816 L 143.885902138 256.699969224 A 106.875 106.875 0 0 0 145.286815861 256.771023786 L 146.857877241 221.180682524 A 71.25 71.25 0 0 1 145.923934759 221.133312816 z" fill="#4c1" stroke="white" stroke-width="1" />
<path d="M 143.885902138 256.699969224 L 141.847869517 292.266625632 A 142.5 142.5 0 0 0 142.159094845 292.284117899 L 144.119321134 256.713088424 A 106.875 106.875 0 0 1 143.885902138 256.699969224 z" fill="#4c1" stroke="white" stroke-width="1" />
<path d="M 144.119321134 256.713088424 L 142.159094845 292.284117899 A 142.5 142.5 0 0 0 142.729770983 292.3144187 L 144.547328237 256.735814025 A 106.875 106.875 0 0 1 144.119321134 256.713088424 z" fill="#4c1" stroke="white" stroke-width="1" />
<path d="M 144.547328237 256.735814025 L 142.729770983 292.3144187 A 142.5 142.5 0 0 0 143.041098747 292.329981709 L 144.78082406 256.747486282 A 106.875 106.875 0 0 1 144.547328237 256.735814025 z" fill="#4c1" stroke="white" stroke-width="1" />
<path d="M 144.78082406 256.747486282 L 143.041098747 292.329981709 A 142.5 142.5 0 0 0 143.715754482 292.361365048 L 145.286815861 256.771023786 A 106.875 106.875 0 0 1 144.78082406 256.747486282 z" fill="#4c1" stroke="white" stroke-width="1" />
<path d="M 146.857877241 221.180682524 L 145.286815861 256.771023786 A 106.875 106.875 0 0 0 147.23382434 256.839196446 L 148.155882893 221.226130964 A 71.25 71.25 0 0 1 146.857877241 221.180682524 z" fill="#4c1" stroke="white" stroke-width="1" />
<path d="M 145.286815861 256.771023786 L 143.715754482 292.361365048 A 142.5 142.5 0 0 0 144.390551381 292.389550481 L 145.792913536 256.792162861 A 106.875 106.875 0 0 1 145.286815861 256.771023786 z" fill="#4c1" stroke="white" stroke-width="1" />
<path d="M 145.792913536 256.792162861 L 144.390551381 292.389550481 A 142.5 142.5 0 0 0 144.9616324 292.41090145 L 146.2212243 256.808176088 A 106.875 106.875 0 0 1 145.792913536 256.792162861 z" fill="#4c1" stroke="white" stroke-width="1" />
<path d="M 146.2212243 256.808176088 L 144.9616324 292.41090145 A 142.5 142.5 0 0 0 145.636650086 292.433181448 L 146.727487564 256.824886086 A 106.875 106.875 0 0 1 146.2212243 256.808176088 z" fill="#4c1" stroke="white" stroke-width="1" />
<path d="M 146.727487564 256.824886086 L 145.636650086 292.433181448 A 142.5 142.5 0 0 0 146.311765786 292.452261928 L 147.23382434 256.839196446 A 106.875 106.875 0 0 1 146.727487564 256.824886086 z" fill="#4c1" stroke="white" stroke-width="1" />
<path d="M 148.155882893 221.226130964 L 147.23382434 256.839196446 A 106.875 106.875 0 0 0 149.53242663 256.873977189 L 149.68828442 221.249318126 A 71.25 71.25 0 0 1 148.155882893 221.226130964 z" fill="#4c1" stroke="white" stroke-width="1" />
<path d="M 147.23382434 256.839196446 L 146.311765786 292.452261928 A 142.5 142.5 0 0 0 147.194732058 292.472384945 L 147.896049044 256.854288708 A 106.875 106.875 0 0 1 147.23382434 256.839196446 z" fill="#4c1" stroke="white" stroke-width="1" />
<path d="M 147.896049044 256.854288708 L 147.194732058 292.472384945 A 142.5 142.5 0 0 0 147.766122724 292.482489423 L 148.324592043 256.861867068 A 106.875 106.875 0 0 1 147.896049044 256.854288708 z" fill="#4c1" stroke="white" stroke-width="1" />
<path d="M 148.324592043 256.861867068 L 147.766122724 292.482489423 A 142.5 142.5 0 0 0 148.441448204 292.491476644 L 148.831086153 256.868607483 A 106.875 106.875 0 0 1 148.324592043 256.861867068 z" fill="#4c1" stroke="white" stroke-width="1" />
<path d="M 148.831086153 256.868607483 L 148.441448204 292.491476644 A 142.5 142.5 0 0 0 149.376568841 292.498636252 L 149.53242663 256.873977189 A 106.875 106.875 0 0 1 148.831086153 256.868607483 z" fill="#4c1" stroke="white" stroke-width="1" />
<path d="M 149.68828442 221.249318126 L 149.53242663 256.873977189 A 106.875 106.875 0 0 0 150.0 256.875 L 150.0 221.25 A 71.25 71.25 0 0 1 149.68828442 221.249318126 z" fill="#4c1" stroke="white" stroke-width="1" />
<path d="M 149.53242663 256.873977189 L 149.376568841 292.498636252 A 142.5 142.5 0 0 0 149.636331058 292.499535946 L 149.727248294 256.87465196 A 106.875 106.875 0 0 1 149.53242663 256.873977189 z" fill="#4c1" stroke="white" stroke-width="1" />
<path d="M 149.727248294 256.87465196 L 149.636331058 292.499535946 A 142.5 142.5 0 0 0 150.0 292.5 L 150.0 256.875 A 106.875 106.875 0 0 1 149.727248294 256.87465196 z" fill="#4c1" stroke="white" stroke-width="1" />
</svg>