<?xml version="1.0" encoding="UTF-8" standalone="no"?>
<!DOCTYPE svg PUBLIC "-//W3C//DTD SVG 1.1//EN"
 "http://www.w3.org/Graphics/SVG/1.1/DTD/svg11.dtd">
<!-- Generated by graphviz version 2.26.3 (20100126.1600)
 -->
<!-- Title: git&#45;storage Pages: 1 -->
<svg width="384pt" height="456pt"
 viewBox="0.00 0.00 384.00 456.00" xmlns="http://www.w3.org/2000/svg" xmlns:xlink="http://www.w3.org/1999/xlink">
<g id="graph1" class="graph" transform="scale(1 1) rotate(0) translate(4 452)">
<title>git&#45;storage</title>
<polygon fill="white" stroke="white" points="-4,5 -4,-452 381,-452 381,5 -4,5"/>
<!-- blob -->
<g id="node1" class="node"><title>blob</title>
<ellipse fill="none" stroke="black" cx="178" cy="-19" rx="31.8198" ry="18.3848"/>
<text text-anchor="middle" x="178" y="-15.4" font-family="Times Roman,serif" font-size="14.00">blob</text>
</g>
<!-- tree -->
<g id="node2" class="node"><title>tree</title>
<ellipse fill="none" stroke="black" cx="178" cy="-129" rx="31.8198" ry="18.3848"/>
<text text-anchor="middle" x="178" y="-125.4" font-family="Times Roman,serif" font-size="14.00">tree</text>
</g>
<!-- tree&#45;&gt;blob -->
<g id="edge2" class="edge"><title>tree&#45;&gt;blob</title>
<path fill="none" stroke="black" d="M178,-110.34C178,-93.1939 178,-67.5191 178,-47.7527"/>
<polygon fill="black" stroke="black" points="181.5,-47.7515 178,-37.7515 174.5,-47.7516 181.5,-47.7515"/>
<text text-anchor="start" x="178" y="-79.4" font-family="Times Roman,serif" font-size="14.00">+filename</text>
<text text-anchor="start" x="178" y="-61.4" font-family="Times Roman,serif" font-size="14.00">+mode</text>
</g>
<!-- tree&#45;&gt;tree -->
<g id="edge4" class="edge"><title>tree&#45;&gt;tree</title>
<path fill="none" stroke="black" d="M207.772,-136.109C218.867,-136.342 228,-133.973 228,-129 228,-125.659 223.877,-123.493 217.807,-122.502"/>
<polygon fill="black" stroke="black" points="217.966,-119.005 207.772,-121.891 217.541,-125.992 217.966,-119.005"/>
<text text-anchor="start" x="228" y="-134.4" font-family="Times Roman,serif" font-size="14.00">subdir</text>
<text text-anchor="middle" x="263.5" y="-116.4" font-family="Times Roman,serif" font-size="14.00">+filename</text>
</g>
<!-- commit -->
<g id="node5" class="node"><title>commit</title>
<ellipse fill="none" stroke="black" cx="178" cy="-217" rx="60.8112" ry="31.1127"/>
<text text-anchor="start" x="143" y="-222.4" font-family="Times Roman,serif" font-size="14.00">commit</text>
<text text-anchor="start" x="143" y="-204.4" font-family="Times Roman,serif" font-size="14.00">&#45; message</text>
</g>
<!-- commit&#45;&gt;tree -->
<g id="edge6" class="edge"><title>commit&#45;&gt;tree</title>
<path fill="none" stroke="black" d="M178,-185.727C178,-176.665 178,-166.816 178,-157.906"/>
<polygon fill="black" stroke="black" points="181.5,-157.62 178,-147.621 174.5,-157.621 181.5,-157.62"/>
</g>
<!-- commit&#45;&gt;commit -->
<g id="edge8" class="edge"><title>commit&#45;&gt;commit</title>
<path fill="none" stroke="black" d="M236.568,-226.017C248.474,-225.035 257,-222.029 257,-217 257,-213.542 252.97,-211.041 246.583,-209.496"/>
<polygon fill="black" stroke="black" points="246.979,-206.017 236.568,-207.983 245.933,-212.938 246.979,-206.017"/>
<text text-anchor="middle" x="283.5" y="-213.4" font-family="Times Roman,serif" font-size="14.00">parents</text>
</g>
<!-- tag -->
<g id="node8" class="node"><title>tag</title>
<ellipse fill="none" stroke="black" cx="61" cy="-330" rx="60.8112" ry="43.8406"/>
<text text-anchor="start" x="26" y="-344.4" font-family="Times Roman,serif" font-size="14.00">tag</text>
<text text-anchor="start" x="26" y="-326.4" font-family="Times Roman,serif" font-size="14.00">&#45; name</text>
<text text-anchor="start" x="26" y="-308.4" font-family="Times Roman,serif" font-size="14.00">&#45; message</text>
</g>
<!-- tag&#45;&gt;commit -->
<g id="edge10" class="edge"><title>tag&#45;&gt;commit</title>
<path fill="none" stroke="black" d="M97.6985,-294.556C111.722,-281.012 127.695,-265.585 141.683,-252.076"/>
<polygon fill="black" stroke="black" points="144.463,-254.257 149.224,-244.792 139.6,-249.222 144.463,-254.257"/>
</g>
<!-- branchname -->
<g id="node11" class="node"><title>branchname</title>
<polygon fill="yellow" stroke="black" points="216,-340 140,-340 140,-320 216,-320 216,-340"/>
<text text-anchor="middle" x="178" y="-327.9" font-family="Times Roman,serif" font-size="9.00">branchname</text>
</g>
<!-- branchname&#45;&gt;commit -->
<g id="edge13" class="edge"><title>branchname&#45;&gt;commit</title>
<path fill="none" stroke="black" d="M178,-319.972C178,-306.263 178,-280.842 178,-258.689"/>
<polygon fill="black" stroke="black" points="181.5,-258.47 178,-248.47 174.5,-258.47 181.5,-258.47"/>
</g>
<!-- HEAD -->
<g id="node13" class="node"><title>HEAD</title>
<polygon fill="yellow" stroke="black" points="205,-448 151,-448 151,-428 205,-428 205,-448"/>
<text text-anchor="middle" x="178" y="-435.9" font-family="Times Roman,serif" font-size="9.00">HEAD</text>
</g>
<!-- HEAD&#45;&gt;branchname -->
<g id="edge15" class="edge"><title>HEAD&#45;&gt;branchname</title>
<path fill="none" stroke="black" stroke-dasharray="1,5" d="M178,-427.645C178,-409.859 178,-373.206 178,-350.214"/>
<polygon fill="black" stroke="black" points="181.5,-350.166 178,-340.166 174.5,-350.166 181.5,-350.166"/>
<text text-anchor="middle" x="189.5" y="-397.4" font-family="Times Roman,serif" font-size="14.00">ref:</text>
</g>
<!-- remote -->
<g id="node15" class="node"><title>remote</title>
<polygon fill="lightblue" stroke="black" points="376,-340 234,-340 234,-320 376,-320 376,-340"/>
<text text-anchor="middle" x="305" y="-327.9" font-family="Times Roman,serif" font-size="9.00">remotes/MYSERVER/master</text>
</g>
<!-- remote&#45;&gt;commit -->
<g id="edge17" class="edge"><title>remote&#45;&gt;commit</title>
<path fill="none" stroke="black" d="M293.73,-319.972C276.491,-304.634 242.775,-274.634 216.161,-250.955"/>
<polygon fill="black" stroke="black" points="218.308,-248.18 208.511,-244.147 213.655,-253.409 218.308,-248.18"/>
</g>
<!-- tagname -->
<g id="node17" class="node"><title>tagname</title>
<polygon fill="darkorange" stroke="black" points="90,-448 32,-448 32,-428 90,-428 90,-448"/>
<text text-anchor="middle" x="61" y="-435.9" font-family="Times Roman,serif" font-size="9.00">tagname</text>
</g>
<!-- tagname&#45;&gt;tag -->
<g id="edge19" class="edge"><title>tagname&#45;&gt;tag</title>
<path fill="none" stroke="black" d="M61,-427.645C61,-417.414 61,-400.94 61,-384.414"/>
<polygon fill="black" stroke="black" points="64.5001,-384.174 61,-374.174 57.5001,-384.174 64.5001,-384.174"/>
</g>
</g>
</svg>
