<?xml version="1.0" encoding="utf-8" standalone="no"?>
<!DOCTYPE svg PUBLIC "-//W3C//DTD SVG 1.1//EN"
  "http://www.w3.org/Graphics/SVG/1.1/DTD/svg11.dtd">
<svg xmlns:xlink="http://www.w3.org/1999/xlink" width="720pt" height="432pt" viewBox="0 0 720 432" xmlns="http://www.w3.org/2000/svg" version="1.1">
 <metadata>
  <rdf:RDF xmlns:dc="http://purl.org/dc/elements/1.1/" xmlns:cc="http://creativecommons.org/ns#" xmlns:rdf="http://www.w3.org/1999/02/22-rdf-syntax-ns#">
   <cc:Work>
    <dc:type rdf:resource="http://purl.org/dc/dcmitype/StillImage"/>
    <dc:date>2022-05-20T21:47:46.586476</dc:date>
    <dc:format>image/svg+xml</dc:format>
    <dc:creator>
     <cc:Agent>
      <dc:title>Matplotlib v3.5.2, https://matplotlib.org/</dc:title>
     </cc:Agent>
    </dc:creator>
   </cc:Work>
  </rdf:RDF>
 </metadata>
 <defs>
  <style type="text/css">*{stroke-linejoin: round; stroke-linecap: butt}</style>
 </defs>
 <g id="figure_1">
  <g id="patch_1">
   <path d="M 0 432 
L 720 432 
L 720 0 
L 0 0 
z
" style="fill: #ffffff"/>
  </g>
  <g id="axes_1">
   <g id="patch_2">
    <path d="M 52.07125 383.280313 
L 668.864743 383.280313 
L 668.864743 28.08 
L 52.07125 28.08 
z
" style="fill: #ffffff"/>
   </g>
   <g id="matplotlib.axis_1">
    <g id="xtick_1">
     <g id="line2d_1">
      <path d="M 579.343151 383.280313 
L 579.343151 28.08 
" clip-path="url(#p1cec53c80a)" style="fill: none; stroke: #cccccc; stroke-linecap: round"/>
     </g>
     <g id="text_1">
      <!-- 1 -->
      <g style="fill: #262626" transform="translate(575.843776 401.138594)scale(0.11 -0.11)">
       <defs>
        <path id="DejaVuSans-31" d="M 794 531 
L 1825 531 
L 1825 4091 
L 703 3866 
L 703 4441 
L 1819 4666 
L 2450 4666 
L 2450 531 
L 3481 531 
L 3481 0 
L 794 0 
L 794 531 
z
" transform="scale(0.015625)"/>
       </defs>
       <use xlink:href="#DejaVuSans-31"/>
      </g>
     </g>
    </g>
    <g id="text_2">
     <!-- Time (seconds) -->
     <g style="fill: #262626" transform="translate(314.673934 416.544375)scale(0.12 -0.12)">
      <defs>
       <path id="DejaVuSans-54" d="M -19 4666 
L 3928 4666 
L 3928 4134 
L 2272 4134 
L 2272 0 
L 1638 0 
L 1638 4134 
L -19 4134 
L -19 4666 
z
" transform="scale(0.015625)"/>
       <path id="DejaVuSans-69" d="M 603 3500 
L 1178 3500 
L 1178 0 
L 603 0 
L 603 3500 
z
M 603 4863 
L 1178 4863 
L 1178 4134 
L 603 4134 
L 603 4863 
z
" transform="scale(0.015625)"/>
       <path id="DejaVuSans-6d" d="M 3328 2828 
Q 3544 3216 3844 3400 
Q 4144 3584 4550 3584 
Q 5097 3584 5394 3201 
Q 5691 2819 5691 2113 
L 5691 0 
L 5113 0 
L 5113 2094 
Q 5113 2597 4934 2840 
Q 4756 3084 4391 3084 
Q 3944 3084 3684 2787 
Q 3425 2491 3425 1978 
L 3425 0 
L 2847 0 
L 2847 2094 
Q 2847 2600 2669 2842 
Q 2491 3084 2119 3084 
Q 1678 3084 1418 2786 
Q 1159 2488 1159 1978 
L 1159 0 
L 581 0 
L 581 3500 
L 1159 3500 
L 1159 2956 
Q 1356 3278 1631 3431 
Q 1906 3584 2284 3584 
Q 2666 3584 2933 3390 
Q 3200 3197 3328 2828 
z
" transform="scale(0.015625)"/>
       <path id="DejaVuSans-65" d="M 3597 1894 
L 3597 1613 
L 953 1613 
Q 991 1019 1311 708 
Q 1631 397 2203 397 
Q 2534 397 2845 478 
Q 3156 559 3463 722 
L 3463 178 
Q 3153 47 2828 -22 
Q 2503 -91 2169 -91 
Q 1331 -91 842 396 
Q 353 884 353 1716 
Q 353 2575 817 3079 
Q 1281 3584 2069 3584 
Q 2775 3584 3186 3129 
Q 3597 2675 3597 1894 
z
M 3022 2063 
Q 3016 2534 2758 2815 
Q 2500 3097 2075 3097 
Q 1594 3097 1305 2825 
Q 1016 2553 972 2059 
L 3022 2063 
z
" transform="scale(0.015625)"/>
       <path id="DejaVuSans-20" transform="scale(0.015625)"/>
       <path id="DejaVuSans-28" d="M 1984 4856 
Q 1566 4138 1362 3434 
Q 1159 2731 1159 2009 
Q 1159 1288 1364 580 
Q 1569 -128 1984 -844 
L 1484 -844 
Q 1016 -109 783 600 
Q 550 1309 550 2009 
Q 550 2706 781 3412 
Q 1013 4119 1484 4856 
L 1984 4856 
z
" transform="scale(0.015625)"/>
       <path id="DejaVuSans-73" d="M 2834 3397 
L 2834 2853 
Q 2591 2978 2328 3040 
Q 2066 3103 1784 3103 
Q 1356 3103 1142 2972 
Q 928 2841 928 2578 
Q 928 2378 1081 2264 
Q 1234 2150 1697 2047 
L 1894 2003 
Q 2506 1872 2764 1633 
Q 3022 1394 3022 966 
Q 3022 478 2636 193 
Q 2250 -91 1575 -91 
Q 1294 -91 989 -36 
Q 684 19 347 128 
L 347 722 
Q 666 556 975 473 
Q 1284 391 1588 391 
Q 1994 391 2212 530 
Q 2431 669 2431 922 
Q 2431 1156 2273 1281 
Q 2116 1406 1581 1522 
L 1381 1569 
Q 847 1681 609 1914 
Q 372 2147 372 2553 
Q 372 3047 722 3315 
Q 1072 3584 1716 3584 
Q 2034 3584 2315 3537 
Q 2597 3491 2834 3397 
z
" transform="scale(0.015625)"/>
       <path id="DejaVuSans-63" d="M 3122 3366 
L 3122 2828 
Q 2878 2963 2633 3030 
Q 2388 3097 2138 3097 
Q 1578 3097 1268 2742 
Q 959 2388 959 1747 
Q 959 1106 1268 751 
Q 1578 397 2138 397 
Q 2388 397 2633 464 
Q 2878 531 3122 666 
L 3122 134 
Q 2881 22 2623 -34 
Q 2366 -91 2075 -91 
Q 1284 -91 818 406 
Q 353 903 353 1747 
Q 353 2603 823 3093 
Q 1294 3584 2113 3584 
Q 2378 3584 2631 3529 
Q 2884 3475 3122 3366 
z
" transform="scale(0.015625)"/>
       <path id="DejaVuSans-6f" d="M 1959 3097 
Q 1497 3097 1228 2736 
Q 959 2375 959 1747 
Q 959 1119 1226 758 
Q 1494 397 1959 397 
Q 2419 397 2687 759 
Q 2956 1122 2956 1747 
Q 2956 2369 2687 2733 
Q 2419 3097 1959 3097 
z
M 1959 3584 
Q 2709 3584 3137 3096 
Q 3566 2609 3566 1747 
Q 3566 888 3137 398 
Q 2709 -91 1959 -91 
Q 1206 -91 779 398 
Q 353 888 353 1747 
Q 353 2609 779 3096 
Q 1206 3584 1959 3584 
z
" transform="scale(0.015625)"/>
       <path id="DejaVuSans-6e" d="M 3513 2113 
L 3513 0 
L 2938 0 
L 2938 2094 
Q 2938 2591 2744 2837 
Q 2550 3084 2163 3084 
Q 1697 3084 1428 2787 
Q 1159 2491 1159 1978 
L 1159 0 
L 581 0 
L 581 3500 
L 1159 3500 
L 1159 2956 
Q 1366 3272 1645 3428 
Q 1925 3584 2291 3584 
Q 2894 3584 3203 3211 
Q 3513 2838 3513 2113 
z
" transform="scale(0.015625)"/>
       <path id="DejaVuSans-64" d="M 2906 2969 
L 2906 4863 
L 3481 4863 
L 3481 0 
L 2906 0 
L 2906 525 
Q 2725 213 2448 61 
Q 2172 -91 1784 -91 
Q 1150 -91 751 415 
Q 353 922 353 1747 
Q 353 2572 751 3078 
Q 1150 3584 1784 3584 
Q 2172 3584 2448 3432 
Q 2725 3281 2906 2969 
z
M 947 1747 
Q 947 1113 1208 752 
Q 1469 391 1925 391 
Q 2381 391 2643 752 
Q 2906 1113 2906 1747 
Q 2906 2381 2643 2742 
Q 2381 3103 1925 3103 
Q 1469 3103 1208 2742 
Q 947 2381 947 1747 
z
" transform="scale(0.015625)"/>
       <path id="DejaVuSans-29" d="M 513 4856 
L 1013 4856 
Q 1481 4119 1714 3412 
Q 1947 2706 1947 2009 
Q 1947 1309 1714 600 
Q 1481 -109 1013 -844 
L 513 -844 
Q 928 -128 1133 580 
Q 1338 1288 1338 2009 
Q 1338 2731 1133 3434 
Q 928 4138 513 4856 
z
" transform="scale(0.015625)"/>
      </defs>
      <use xlink:href="#DejaVuSans-54"/>
      <use xlink:href="#DejaVuSans-69" x="57.958984"/>
      <use xlink:href="#DejaVuSans-6d" x="85.742188"/>
      <use xlink:href="#DejaVuSans-65" x="183.154297"/>
      <use xlink:href="#DejaVuSans-20" x="244.677734"/>
      <use xlink:href="#DejaVuSans-28" x="276.464844"/>
      <use xlink:href="#DejaVuSans-73" x="315.478516"/>
      <use xlink:href="#DejaVuSans-65" x="367.578125"/>
      <use xlink:href="#DejaVuSans-63" x="429.101562"/>
      <use xlink:href="#DejaVuSans-6f" x="484.082031"/>
      <use xlink:href="#DejaVuSans-6e" x="545.263672"/>
      <use xlink:href="#DejaVuSans-64" x="608.642578"/>
      <use xlink:href="#DejaVuSans-73" x="672.119141"/>
      <use xlink:href="#DejaVuSans-29" x="724.21875"/>
     </g>
    </g>
   </g>
   <g id="matplotlib.axis_2">
    <g id="ytick_1">
     <g id="line2d_2">
      <path d="M 52.07125 383.280313 
L 668.864743 383.280313 
" clip-path="url(#p1cec53c80a)" style="fill: none; stroke: #cccccc; stroke-linecap: round"/>
     </g>
     <g id="text_3">
      <!-- 0 -->
      <g style="fill: #262626" transform="translate(35.5725 387.459453)scale(0.11 -0.11)">
       <defs>
        <path id="DejaVuSans-30" d="M 2034 4250 
Q 1547 4250 1301 3770 
Q 1056 3291 1056 2328 
Q 1056 1369 1301 889 
Q 1547 409 2034 409 
Q 2525 409 2770 889 
Q 3016 1369 3016 2328 
Q 3016 3291 2770 3770 
Q 2525 4250 2034 4250 
z
M 2034 4750 
Q 2819 4750 3233 4129 
Q 3647 3509 3647 2328 
Q 3647 1150 3233 529 
Q 2819 -91 2034 -91 
Q 1250 -91 836 529 
Q 422 1150 422 2328 
Q 422 3509 836 4129 
Q 1250 4750 2034 4750 
z
" transform="scale(0.015625)"/>
       </defs>
       <use xlink:href="#DejaVuSans-30"/>
      </g>
     </g>
    </g>
    <g id="ytick_2">
     <g id="line2d_3">
      <path d="M 52.07125 317.594948 
L 668.864743 317.594948 
" clip-path="url(#p1cec53c80a)" style="fill: none; stroke: #cccccc; stroke-linecap: round"/>
     </g>
     <g id="text_4">
      <!-- 5 -->
      <g style="fill: #262626" transform="translate(35.5725 321.774088)scale(0.11 -0.11)">
       <defs>
        <path id="DejaVuSans-35" d="M 691 4666 
L 3169 4666 
L 3169 4134 
L 1269 4134 
L 1269 2991 
Q 1406 3038 1543 3061 
Q 1681 3084 1819 3084 
Q 2600 3084 3056 2656 
Q 3513 2228 3513 1497 
Q 3513 744 3044 326 
Q 2575 -91 1722 -91 
Q 1428 -91 1123 -41 
Q 819 9 494 109 
L 494 744 
Q 775 591 1075 516 
Q 1375 441 1709 441 
Q 2250 441 2565 725 
Q 2881 1009 2881 1497 
Q 2881 1984 2565 2268 
Q 2250 2553 1709 2553 
Q 1456 2553 1204 2497 
Q 953 2441 691 2322 
L 691 4666 
z
" transform="scale(0.015625)"/>
       </defs>
       <use xlink:href="#DejaVuSans-35"/>
      </g>
     </g>
    </g>
    <g id="ytick_3">
     <g id="line2d_4">
      <path d="M 52.07125 251.909583 
L 668.864743 251.909583 
" clip-path="url(#p1cec53c80a)" style="fill: none; stroke: #cccccc; stroke-linecap: round"/>
     </g>
     <g id="text_5">
      <!-- 10 -->
      <g style="fill: #262626" transform="translate(28.57375 256.088723)scale(0.11 -0.11)">
       <use xlink:href="#DejaVuSans-31"/>
       <use xlink:href="#DejaVuSans-30" x="63.623047"/>
      </g>
     </g>
    </g>
    <g id="ytick_4">
     <g id="line2d_5">
      <path d="M 52.07125 186.224218 
L 668.864743 186.224218 
" clip-path="url(#p1cec53c80a)" style="fill: none; stroke: #cccccc; stroke-linecap: round"/>
     </g>
     <g id="text_6">
      <!-- 15 -->
      <g style="fill: #262626" transform="translate(28.57375 190.403358)scale(0.11 -0.11)">
       <use xlink:href="#DejaVuSans-31"/>
       <use xlink:href="#DejaVuSans-35" x="63.623047"/>
      </g>
     </g>
    </g>
    <g id="ytick_5">
     <g id="line2d_6">
      <path d="M 52.07125 120.538853 
L 668.864743 120.538853 
" clip-path="url(#p1cec53c80a)" style="fill: none; stroke: #cccccc; stroke-linecap: round"/>
     </g>
     <g id="text_7">
      <!-- 20 -->
      <g style="fill: #262626" transform="translate(28.57375 124.717993)scale(0.11 -0.11)">
       <defs>
        <path id="DejaVuSans-32" d="M 1228 531 
L 3431 531 
L 3431 0 
L 469 0 
L 469 531 
Q 828 903 1448 1529 
Q 2069 2156 2228 2338 
Q 2531 2678 2651 2914 
Q 2772 3150 2772 3378 
Q 2772 3750 2511 3984 
Q 2250 4219 1831 4219 
Q 1534 4219 1204 4116 
Q 875 4013 500 3803 
L 500 4441 
Q 881 4594 1212 4672 
Q 1544 4750 1819 4750 
Q 2544 4750 2975 4387 
Q 3406 4025 3406 3419 
Q 3406 3131 3298 2873 
Q 3191 2616 2906 2266 
Q 2828 2175 2409 1742 
Q 1991 1309 1228 531 
z
" transform="scale(0.015625)"/>
       </defs>
       <use xlink:href="#DejaVuSans-32"/>
       <use xlink:href="#DejaVuSans-30" x="63.623047"/>
      </g>
     </g>
    </g>
    <g id="ytick_6">
     <g id="line2d_7">
      <path d="M 52.07125 54.853488 
L 668.864743 54.853488 
" clip-path="url(#p1cec53c80a)" style="fill: none; stroke: #cccccc; stroke-linecap: round"/>
     </g>
     <g id="text_8">
      <!-- 25 -->
      <g style="fill: #262626" transform="translate(28.57375 59.032628)scale(0.11 -0.11)">
       <use xlink:href="#DejaVuSans-32"/>
       <use xlink:href="#DejaVuSans-35" x="63.623047"/>
      </g>
     </g>
    </g>
    <g id="text_9">
     <!-- Efficiency (MDoF/s/GPU) -->
     <g style="fill: #262626" transform="translate(22.078125 278.007344)rotate(-90)scale(0.12 -0.12)">
      <defs>
       <path id="DejaVuSans-45" d="M 628 4666 
L 3578 4666 
L 3578 4134 
L 1259 4134 
L 1259 2753 
L 3481 2753 
L 3481 2222 
L 1259 2222 
L 1259 531 
L 3634 531 
L 3634 0 
L 628 0 
L 628 4666 
z
" transform="scale(0.015625)"/>
       <path id="DejaVuSans-66" d="M 2375 4863 
L 2375 4384 
L 1825 4384 
Q 1516 4384 1395 4259 
Q 1275 4134 1275 3809 
L 1275 3500 
L 2222 3500 
L 2222 3053 
L 1275 3053 
L 1275 0 
L 697 0 
L 697 3053 
L 147 3053 
L 147 3500 
L 697 3500 
L 697 3744 
Q 697 4328 969 4595 
Q 1241 4863 1831 4863 
L 2375 4863 
z
" transform="scale(0.015625)"/>
       <path id="DejaVuSans-79" d="M 2059 -325 
Q 1816 -950 1584 -1140 
Q 1353 -1331 966 -1331 
L 506 -1331 
L 506 -850 
L 844 -850 
Q 1081 -850 1212 -737 
Q 1344 -625 1503 -206 
L 1606 56 
L 191 3500 
L 800 3500 
L 1894 763 
L 2988 3500 
L 3597 3500 
L 2059 -325 
z
" transform="scale(0.015625)"/>
       <path id="DejaVuSans-4d" d="M 628 4666 
L 1569 4666 
L 2759 1491 
L 3956 4666 
L 4897 4666 
L 4897 0 
L 4281 0 
L 4281 4097 
L 3078 897 
L 2444 897 
L 1241 4097 
L 1241 0 
L 628 0 
L 628 4666 
z
" transform="scale(0.015625)"/>
       <path id="DejaVuSans-44" d="M 1259 4147 
L 1259 519 
L 2022 519 
Q 2988 519 3436 956 
Q 3884 1394 3884 2338 
Q 3884 3275 3436 3711 
Q 2988 4147 2022 4147 
L 1259 4147 
z
M 628 4666 
L 1925 4666 
Q 3281 4666 3915 4102 
Q 4550 3538 4550 2338 
Q 4550 1131 3912 565 
Q 3275 0 1925 0 
L 628 0 
L 628 4666 
z
" transform="scale(0.015625)"/>
       <path id="DejaVuSans-46" d="M 628 4666 
L 3309 4666 
L 3309 4134 
L 1259 4134 
L 1259 2759 
L 3109 2759 
L 3109 2228 
L 1259 2228 
L 1259 0 
L 628 0 
L 628 4666 
z
" transform="scale(0.015625)"/>
       <path id="DejaVuSans-2f" d="M 1625 4666 
L 2156 4666 
L 531 -594 
L 0 -594 
L 1625 4666 
z
" transform="scale(0.015625)"/>
       <path id="DejaVuSans-47" d="M 3809 666 
L 3809 1919 
L 2778 1919 
L 2778 2438 
L 4434 2438 
L 4434 434 
Q 4069 175 3628 42 
Q 3188 -91 2688 -91 
Q 1594 -91 976 548 
Q 359 1188 359 2328 
Q 359 3472 976 4111 
Q 1594 4750 2688 4750 
Q 3144 4750 3555 4637 
Q 3966 4525 4313 4306 
L 4313 3634 
Q 3963 3931 3569 4081 
Q 3175 4231 2741 4231 
Q 1884 4231 1454 3753 
Q 1025 3275 1025 2328 
Q 1025 1384 1454 906 
Q 1884 428 2741 428 
Q 3075 428 3337 486 
Q 3600 544 3809 666 
z
" transform="scale(0.015625)"/>
       <path id="DejaVuSans-50" d="M 1259 4147 
L 1259 2394 
L 2053 2394 
Q 2494 2394 2734 2622 
Q 2975 2850 2975 3272 
Q 2975 3691 2734 3919 
Q 2494 4147 2053 4147 
L 1259 4147 
z
M 628 4666 
L 2053 4666 
Q 2838 4666 3239 4311 
Q 3641 3956 3641 3272 
Q 3641 2581 3239 2228 
Q 2838 1875 2053 1875 
L 1259 1875 
L 1259 0 
L 628 0 
L 628 4666 
z
" transform="scale(0.015625)"/>
       <path id="DejaVuSans-55" d="M 556 4666 
L 1191 4666 
L 1191 1831 
Q 1191 1081 1462 751 
Q 1734 422 2344 422 
Q 2950 422 3222 751 
Q 3494 1081 3494 1831 
L 3494 4666 
L 4128 4666 
L 4128 1753 
Q 4128 841 3676 375 
Q 3225 -91 2344 -91 
Q 1459 -91 1007 375 
Q 556 841 556 1753 
L 556 4666 
z
" transform="scale(0.015625)"/>
      </defs>
      <use xlink:href="#DejaVuSans-45"/>
      <use xlink:href="#DejaVuSans-66" x="63.183594"/>
      <use xlink:href="#DejaVuSans-66" x="98.388672"/>
      <use xlink:href="#DejaVuSans-69" x="133.59375"/>
      <use xlink:href="#DejaVuSans-63" x="161.376953"/>
      <use xlink:href="#DejaVuSans-69" x="216.357422"/>
      <use xlink:href="#DejaVuSans-65" x="244.140625"/>
      <use xlink:href="#DejaVuSans-6e" x="305.664062"/>
      <use xlink:href="#DejaVuSans-63" x="369.042969"/>
      <use xlink:href="#DejaVuSans-79" x="424.023438"/>
      <use xlink:href="#DejaVuSans-20" x="483.203125"/>
      <use xlink:href="#DejaVuSans-28" x="514.990234"/>
      <use xlink:href="#DejaVuSans-4d" x="554.003906"/>
      <use xlink:href="#DejaVuSans-44" x="640.283203"/>
      <use xlink:href="#DejaVuSans-6f" x="717.285156"/>
      <use xlink:href="#DejaVuSans-46" x="778.466797"/>
      <use xlink:href="#DejaVuSans-2f" x="835.986328"/>
      <use xlink:href="#DejaVuSans-73" x="869.677734"/>
      <use xlink:href="#DejaVuSans-2f" x="921.777344"/>
      <use xlink:href="#DejaVuSans-47" x="955.46875"/>
      <use xlink:href="#DejaVuSans-50" x="1032.958984"/>
      <use xlink:href="#DejaVuSans-55" x="1093.261719"/>
      <use xlink:href="#DejaVuSans-29" x="1166.455078"/>
     </g>
    </g>
   </g>
   <g id="line2d_8">
    <path d="M 142.871871 167.33323 
L 301.696779 170.579639 
L 463.553618 149.552002 
L 633.763216 127.384088 
" clip-path="url(#p1cec53c80a)" style="fill: none; stroke: #ddaa33; stroke-opacity: 0.9; stroke-width: 5; stroke-linecap: round"/>
   </g>
   <g id="line2d_9">
    <path d="M 128.583342 130.774525 
L 273.837984 132.10729 
L 438.442325 124.929378 
L 635.685434 129.09443 
" clip-path="url(#p1cec53c80a)" style="fill: none; stroke-dasharray: 20,7.5; stroke-dashoffset: 0; stroke: #ddaa33; stroke-opacity: 0.9; stroke-width: 5"/>
   </g>
   <g id="line2d_10">
    <path d="M 63.42216 273.879793 
L 94.190114 254.379459 
L 107.604572 198.44641 
L 161.673457 223.911178 
L 212.199387 230.05255 
L 301.955206 219.290755 
" clip-path="url(#p1cec53c80a)" style="fill: none; stroke: #bb5566; stroke-opacity: 0.9; stroke-width: 5; stroke-linecap: round"/>
   </g>
   <g id="line2d_11">
    <path d="M 70.952403 288.22614 
L 109.723604 279.5308 
L 146.589306 266.702306 
L 169.828352 236.267456 
L 204.014465 220.200779 
L 300.002861 217.76958 
" clip-path="url(#p1cec53c80a)" style="fill: none; stroke-dasharray: 20,7.5; stroke-dashoffset: 0; stroke: #bb5566; stroke-opacity: 0.9; stroke-width: 5"/>
   </g>
   <g id="line2d_12">
    <path d="M 101.27426 208.314652 
L 144.659447 204.200164 
L 158.429525 136.507211 
L 227.142757 178.066468 
L 275.248886 172.613243 
" clip-path="url(#p1cec53c80a)" style="fill: none; stroke: #005bb5; stroke-opacity: 0.9; stroke-width: 5; stroke-linecap: round"/>
   </g>
   <g id="line2d_13">
    <path d="M 106.315034 101.255076 
L 180.719815 84.565361 
L 267.997813 80.855037 
L 368.044234 83.819258 
" clip-path="url(#p1cec53c80a)" style="fill: none; stroke: #000000; stroke-opacity: 0.9; stroke-width: 5; stroke-linecap: round"/>
   </g>
   <g id="line2d_14">
    <path d="M 114.488693 130.455004 
L 166.220166 42.843846 
L 248.732848 40.467911 
L 341.093516 41.042813 
" clip-path="url(#p1cec53c80a)" style="fill: none; stroke-dasharray: 20,7.5; stroke-dashoffset: 0; stroke: #000000; stroke-opacity: 0.9; stroke-width: 5"/>
   </g>
   <g id="line2d_15"/>
   <g id="line2d_16"/>
   <g id="line2d_17"/>
   <g id="line2d_18"/>
   <g id="line2d_19"/>
   <g id="line2d_20"/>
   <g id="line2d_21"/>
   <g id="line2d_22">
    <path d="M 142.871871 167.33323 
" clip-path="url(#p1cec53c80a)" style="fill: none; stroke: #ddaa33; stroke-width: 1.5; stroke-linecap: round"/>
    <defs>
     <path id="maf1c1c7cae" d="M 0 3 
C 0.795609 3 1.55874 2.683901 2.12132 2.12132 
C 2.683901 1.55874 3 0.795609 3 0 
C 3 -0.795609 2.683901 -1.55874 2.12132 -2.12132 
C 1.55874 -2.683901 0.795609 -3 0 -3 
C -0.795609 -3 -1.55874 -2.683901 -2.12132 -2.12132 
C -2.683901 -1.55874 -3 -0.795609 -3 0 
C -3 0.795609 -2.683901 1.55874 -2.12132 2.12132 
C -1.55874 2.683901 -0.795609 3 0 3 
z
" style="stroke: #ddaa33"/>
    </defs>
    <g clip-path="url(#p1cec53c80a)">
     <use xlink:href="#maf1c1c7cae" x="142.871871" y="167.33323" style="fill: #ddaa33; stroke: #ddaa33"/>
    </g>
   </g>
   <g id="line2d_23">
    <path d="M 128.583342 130.774525 
" clip-path="url(#p1cec53c80a)" style="fill: none; stroke: #ddaa33; stroke-width: 1.5; stroke-linecap: round"/>
    <g clip-path="url(#p1cec53c80a)">
     <use xlink:href="#maf1c1c7cae" x="128.583342" y="130.774525" style="fill: #ddaa33; stroke: #ddaa33"/>
    </g>
   </g>
   <g id="line2d_24">
    <path d="M 633.763216 127.384088 
" clip-path="url(#p1cec53c80a)" style="fill: none; stroke: #ddaa33; stroke-width: 1.5; stroke-linecap: round"/>
    <defs>
     <path id="me22cd212c6" d="M 0 2.625 
C 0.696158 2.625 1.363897 2.348413 1.856155 1.856155 
C 2.348413 1.363897 2.625 0.696158 2.625 0 
C 2.625 -0.696158 2.348413 -1.363897 1.856155 -1.856155 
C 1.363897 -2.348413 0.696158 -2.625 0 -2.625 
C -0.696158 -2.625 -1.363897 -2.348413 -1.856155 -1.856155 
C -2.348413 -1.363897 -2.625 -0.696158 -2.625 0 
C -2.625 0.696158 -2.348413 1.363897 -1.856155 1.856155 
C -1.363897 2.348413 -0.696158 2.625 0 2.625 
z
" style="stroke: #ddaa33"/>
    </defs>
    <g clip-path="url(#p1cec53c80a)">
     <use xlink:href="#me22cd212c6" x="633.763216" y="127.384088" style="fill: #ddaa33; stroke: #ddaa33"/>
    </g>
   </g>
   <g id="line2d_25">
    <path d="M 635.685434 129.09443 
" clip-path="url(#p1cec53c80a)" style="fill: none; stroke: #ddaa33; stroke-width: 1.5; stroke-linecap: round"/>
    <g clip-path="url(#p1cec53c80a)">
     <use xlink:href="#me22cd212c6" x="635.685434" y="129.09443" style="fill: #ddaa33; stroke: #ddaa33"/>
    </g>
   </g>
   <g id="line2d_26">
    <path d="M 63.42216 273.879793 
" clip-path="url(#p1cec53c80a)" style="fill: none; stroke: #bb5566; stroke-width: 1.5; stroke-linecap: round"/>
    <defs>
     <path id="m91dea372e8" d="M 0 3 
C 0.795609 3 1.55874 2.683901 2.12132 2.12132 
C 2.683901 1.55874 3 0.795609 3 0 
C 3 -0.795609 2.683901 -1.55874 2.12132 -2.12132 
C 1.55874 -2.683901 0.795609 -3 0 -3 
C -0.795609 -3 -1.55874 -2.683901 -2.12132 -2.12132 
C -2.683901 -1.55874 -3 -0.795609 -3 0 
C -3 0.795609 -2.683901 1.55874 -2.12132 2.12132 
C -1.55874 2.683901 -0.795609 3 0 3 
z
" style="stroke: #bb5566"/>
    </defs>
    <g clip-path="url(#p1cec53c80a)">
     <use xlink:href="#m91dea372e8" x="63.42216" y="273.879793" style="fill: #bb5566; stroke: #bb5566"/>
    </g>
   </g>
   <g id="line2d_27">
    <path d="M 70.952403 288.22614 
" clip-path="url(#p1cec53c80a)" style="fill: none; stroke: #bb5566; stroke-width: 1.5; stroke-linecap: round"/>
    <g clip-path="url(#p1cec53c80a)">
     <use xlink:href="#m91dea372e8" x="70.952403" y="288.22614" style="fill: #bb5566; stroke: #bb5566"/>
    </g>
   </g>
   <g id="line2d_28">
    <path d="M 301.955206 219.290755 
" clip-path="url(#p1cec53c80a)" style="fill: none; stroke: #bb5566; stroke-width: 1.5; stroke-linecap: round"/>
    <defs>
     <path id="mf361af34f4" d="M 0 2.625 
C 0.696158 2.625 1.363897 2.348413 1.856155 1.856155 
C 2.348413 1.363897 2.625 0.696158 2.625 0 
C 2.625 -0.696158 2.348413 -1.363897 1.856155 -1.856155 
C 1.363897 -2.348413 0.696158 -2.625 0 -2.625 
C -0.696158 -2.625 -1.363897 -2.348413 -1.856155 -1.856155 
C -2.348413 -1.363897 -2.625 -0.696158 -2.625 0 
C -2.625 0.696158 -2.348413 1.363897 -1.856155 1.856155 
C -1.363897 2.348413 -0.696158 2.625 0 2.625 
z
" style="stroke: #bb5566"/>
    </defs>
    <g clip-path="url(#p1cec53c80a)">
     <use xlink:href="#mf361af34f4" x="301.955206" y="219.290755" style="fill: #bb5566; stroke: #bb5566"/>
    </g>
   </g>
   <g id="line2d_29">
    <path d="M 300.002861 217.76958 
" clip-path="url(#p1cec53c80a)" style="fill: none; stroke: #bb5566; stroke-width: 1.5; stroke-linecap: round"/>
    <g clip-path="url(#p1cec53c80a)">
     <use xlink:href="#mf361af34f4" x="300.002861" y="217.76958" style="fill: #bb5566; stroke: #bb5566"/>
    </g>
   </g>
   <g id="line2d_30">
    <path d="M 101.27426 208.314652 
" clip-path="url(#p1cec53c80a)" style="fill: none; stroke: #005bb5; stroke-width: 1.5; stroke-linecap: round"/>
    <defs>
     <path id="m37594c4e6c" d="M 0 3 
C 0.795609 3 1.55874 2.683901 2.12132 2.12132 
C 2.683901 1.55874 3 0.795609 3 0 
C 3 -0.795609 2.683901 -1.55874 2.12132 -2.12132 
C 1.55874 -2.683901 0.795609 -3 0 -3 
C -0.795609 -3 -1.55874 -2.683901 -2.12132 -2.12132 
C -2.683901 -1.55874 -3 -0.795609 -3 0 
C -3 0.795609 -2.683901 1.55874 -2.12132 2.12132 
C -1.55874 2.683901 -0.795609 3 0 3 
z
" style="stroke: #005bb5"/>
    </defs>
    <g clip-path="url(#p1cec53c80a)">
     <use xlink:href="#m37594c4e6c" x="101.27426" y="208.314652" style="fill: #005bb5; stroke: #005bb5"/>
    </g>
   </g>
   <g id="line2d_31">
    <path d="M 275.248886 172.613243 
" clip-path="url(#p1cec53c80a)" style="fill: none; stroke: #005bb5; stroke-width: 1.5; stroke-linecap: round"/>
    <defs>
     <path id="me194572075" d="M 0 2.625 
C 0.696158 2.625 1.363897 2.348413 1.856155 1.856155 
C 2.348413 1.363897 2.625 0.696158 2.625 0 
C 2.625 -0.696158 2.348413 -1.363897 1.856155 -1.856155 
C 1.363897 -2.348413 0.696158 -2.625 0 -2.625 
C -0.696158 -2.625 -1.363897 -2.348413 -1.856155 -1.856155 
C -2.348413 -1.363897 -2.625 -0.696158 -2.625 0 
C -2.625 0.696158 -2.348413 1.363897 -1.856155 1.856155 
C -1.363897 2.348413 -0.696158 2.625 0 2.625 
z
" style="stroke: #005bb5"/>
    </defs>
    <g clip-path="url(#p1cec53c80a)">
     <use xlink:href="#me194572075" x="275.248886" y="172.613243" style="fill: #005bb5; stroke: #005bb5"/>
    </g>
   </g>
   <g id="line2d_32">
    <path d="M 106.315034 101.255076 
" clip-path="url(#p1cec53c80a)" style="fill: none; stroke: #000000; stroke-width: 1.5; stroke-linecap: round"/>
    <defs>
     <path id="mafdafffc47" d="M 0 3 
C 0.795609 3 1.55874 2.683901 2.12132 2.12132 
C 2.683901 1.55874 3 0.795609 3 0 
C 3 -0.795609 2.683901 -1.55874 2.12132 -2.12132 
C 1.55874 -2.683901 0.795609 -3 0 -3 
C -0.795609 -3 -1.55874 -2.683901 -2.12132 -2.12132 
C -2.683901 -1.55874 -3 -0.795609 -3 0 
C -3 0.795609 -2.683901 1.55874 -2.12132 2.12132 
C -1.55874 2.683901 -0.795609 3 0 3 
z
" style="stroke: #000000"/>
    </defs>
    <g clip-path="url(#p1cec53c80a)">
     <use xlink:href="#mafdafffc47" x="106.315034" y="101.255076" style="stroke: #000000"/>
    </g>
   </g>
   <g id="line2d_33">
    <path d="M 114.488693 130.455004 
" clip-path="url(#p1cec53c80a)" style="fill: none; stroke: #000000; stroke-width: 1.5; stroke-linecap: round"/>
    <g clip-path="url(#p1cec53c80a)">
     <use xlink:href="#mafdafffc47" x="114.488693" y="130.455004" style="stroke: #000000"/>
    </g>
   </g>
   <g id="line2d_34">
    <path d="M 368.044234 83.819258 
" clip-path="url(#p1cec53c80a)" style="fill: none; stroke: #000000; stroke-width: 1.5; stroke-linecap: round"/>
    <defs>
     <path id="m26def1dace" d="M 0 2.625 
C 0.696158 2.625 1.363897 2.348413 1.856155 1.856155 
C 2.348413 1.363897 2.625 0.696158 2.625 0 
C 2.625 -0.696158 2.348413 -1.363897 1.856155 -1.856155 
C 1.363897 -2.348413 0.696158 -2.625 0 -2.625 
C -0.696158 -2.625 -1.363897 -2.348413 -1.856155 -1.856155 
C -2.348413 -1.363897 -2.625 -0.696158 -2.625 0 
C -2.625 0.696158 -2.348413 1.363897 -1.856155 1.856155 
C -1.363897 2.348413 -0.696158 2.625 0 2.625 
z
" style="stroke: #000000"/>
    </defs>
    <g clip-path="url(#p1cec53c80a)">
     <use xlink:href="#m26def1dace" x="368.044234" y="83.819258" style="stroke: #000000"/>
    </g>
   </g>
   <g id="line2d_35">
    <path d="M 341.093516 41.042813 
" clip-path="url(#p1cec53c80a)" style="fill: none; stroke: #000000; stroke-width: 1.5; stroke-linecap: round"/>
    <g clip-path="url(#p1cec53c80a)">
     <use xlink:href="#m26def1dace" x="341.093516" y="41.042813" style="stroke: #000000"/>
    </g>
   </g>
   <g id="patch_3">
    <path d="M 52.07125 383.280313 
L 52.07125 28.08 
" style="fill: none; stroke: #cccccc; stroke-width: 1.25; stroke-linejoin: miter; stroke-linecap: square"/>
   </g>
   <g id="patch_4">
    <path d="M 52.07125 383.280313 
L 668.864743 383.280313 
" style="fill: none; stroke: #cccccc; stroke-width: 1.25; stroke-linejoin: miter; stroke-linecap: square"/>
   </g>
   <g id="text_10">
    <!-- 11 -->
    <g style="fill: #262626" transform="translate(138.137759 181.045726)scale(0.12 -0.12)">
     <use xlink:href="#DejaVuSans-31"/>
     <use xlink:href="#DejaVuSans-31" x="63.623047"/>
    </g>
   </g>
   <g id="text_11">
    <!-- 94 -->
    <g style="fill: #262626" transform="translate(124.211024 144.487021)scale(0.12 -0.12)">
     <defs>
      <path id="DejaVuSans-39" d="M 703 97 
L 703 672 
Q 941 559 1184 500 
Q 1428 441 1663 441 
Q 2288 441 2617 861 
Q 2947 1281 2994 2138 
Q 2813 1869 2534 1725 
Q 2256 1581 1919 1581 
Q 1219 1581 811 2004 
Q 403 2428 403 3163 
Q 403 3881 828 4315 
Q 1253 4750 1959 4750 
Q 2769 4750 3195 4129 
Q 3622 3509 3622 2328 
Q 3622 1225 3098 567 
Q 2575 -91 1691 -91 
Q 1453 -91 1209 -44 
Q 966 3 703 97 
z
M 1959 2075 
Q 2384 2075 2632 2365 
Q 2881 2656 2881 3163 
Q 2881 3666 2632 3958 
Q 2384 4250 1959 4250 
Q 1534 4250 1286 3958 
Q 1038 3666 1038 3163 
Q 1038 2656 1286 2365 
Q 1534 2075 1959 2075 
z
" transform="scale(0.015625)"/>
      <path id="DejaVuSans-34" d="M 2419 4116 
L 825 1625 
L 2419 1625 
L 2419 4116 
z
M 2253 4666 
L 3047 4666 
L 3047 1625 
L 3713 1625 
L 3713 1100 
L 3047 1100 
L 3047 0 
L 2419 0 
L 2419 1100 
L 313 1100 
L 313 1709 
L 2253 4666 
z
" transform="scale(0.015625)"/>
     </defs>
     <use xlink:href="#DejaVuSans-39"/>
     <use xlink:href="#DejaVuSans-34" x="63.623047"/>
    </g>
   </g>
   <g id="text_12">
    <!-- 184 MDoF -->
    <g style="fill: #262626" transform="translate(633.763216 127.384088)scale(0.12 -0.12)">
     <defs>
      <path id="DejaVuSans-38" d="M 2034 2216 
Q 1584 2216 1326 1975 
Q 1069 1734 1069 1313 
Q 1069 891 1326 650 
Q 1584 409 2034 409 
Q 2484 409 2743 651 
Q 3003 894 3003 1313 
Q 3003 1734 2745 1975 
Q 2488 2216 2034 2216 
z
M 1403 2484 
Q 997 2584 770 2862 
Q 544 3141 544 3541 
Q 544 4100 942 4425 
Q 1341 4750 2034 4750 
Q 2731 4750 3128 4425 
Q 3525 4100 3525 3541 
Q 3525 3141 3298 2862 
Q 3072 2584 2669 2484 
Q 3125 2378 3379 2068 
Q 3634 1759 3634 1313 
Q 3634 634 3220 271 
Q 2806 -91 2034 -91 
Q 1263 -91 848 271 
Q 434 634 434 1313 
Q 434 1759 690 2068 
Q 947 2378 1403 2484 
z
M 1172 3481 
Q 1172 3119 1398 2916 
Q 1625 2713 2034 2713 
Q 2441 2713 2670 2916 
Q 2900 3119 2900 3481 
Q 2900 3844 2670 4047 
Q 2441 4250 2034 4250 
Q 1625 4250 1398 4047 
Q 1172 3844 1172 3481 
z
" transform="scale(0.015625)"/>
     </defs>
     <use xlink:href="#DejaVuSans-31"/>
     <use xlink:href="#DejaVuSans-38" x="63.623047"/>
     <use xlink:href="#DejaVuSans-34" x="127.246094"/>
     <use xlink:href="#DejaVuSans-20" x="190.869141"/>
     <use xlink:href="#DejaVuSans-4d" x="222.65625"/>
     <use xlink:href="#DejaVuSans-44" x="308.935547"/>
     <use xlink:href="#DejaVuSans-6f" x="385.9375"/>
     <use xlink:href="#DejaVuSans-46" x="447.119141"/>
    </g>
   </g>
   <g id="text_13">
    <!-- 1472 MDoF -->
    <g style="fill: #262626" transform="translate(635.685434 129.09443)scale(0.12 -0.12)">
     <defs>
      <path id="DejaVuSans-37" d="M 525 4666 
L 3525 4666 
L 3525 4397 
L 1831 0 
L 1172 0 
L 2766 4134 
L 525 4134 
L 525 4666 
z
" transform="scale(0.015625)"/>
     </defs>
     <use xlink:href="#DejaVuSans-31"/>
     <use xlink:href="#DejaVuSans-34" x="63.623047"/>
     <use xlink:href="#DejaVuSans-37" x="127.246094"/>
     <use xlink:href="#DejaVuSans-32" x="190.869141"/>
     <use xlink:href="#DejaVuSans-20" x="254.492188"/>
     <use xlink:href="#DejaVuSans-4d" x="286.279297"/>
     <use xlink:href="#DejaVuSans-44" x="372.558594"/>
     <use xlink:href="#DejaVuSans-6f" x="449.560547"/>
     <use xlink:href="#DejaVuSans-46" x="510.742188"/>
    </g>
   </g>
   <g id="text_14">
    <!-- 1 -->
    <g style="fill: #262626" transform="translate(60.69976 287.592289)scale(0.12 -0.12)">
     <use xlink:href="#DejaVuSans-31"/>
    </g>
   </g>
   <g id="text_15">
    <!-- 11 -->
    <g style="fill: #262626" transform="translate(68.039332 301.938636)scale(0.12 -0.12)">
     <use xlink:href="#DejaVuSans-31"/>
     <use xlink:href="#DejaVuSans-31" x="63.623047"/>
    </g>
   </g>
   <g id="text_16">
    <!-- 23 MDoF -->
    <g style="fill: #262626" transform="translate(301.955206 219.290755)scale(0.12 -0.12)">
     <defs>
      <path id="DejaVuSans-33" d="M 2597 2516 
Q 3050 2419 3304 2112 
Q 3559 1806 3559 1356 
Q 3559 666 3084 287 
Q 2609 -91 1734 -91 
Q 1441 -91 1130 -33 
Q 819 25 488 141 
L 488 750 
Q 750 597 1062 519 
Q 1375 441 1716 441 
Q 2309 441 2620 675 
Q 2931 909 2931 1356 
Q 2931 1769 2642 2001 
Q 2353 2234 1838 2234 
L 1294 2234 
L 1294 2753 
L 1863 2753 
Q 2328 2753 2575 2939 
Q 2822 3125 2822 3475 
Q 2822 3834 2567 4026 
Q 2313 4219 1838 4219 
Q 1578 4219 1281 4162 
Q 984 4106 628 3988 
L 628 4550 
Q 988 4650 1302 4700 
Q 1616 4750 1894 4750 
Q 2613 4750 3031 4423 
Q 3450 4097 3450 3541 
Q 3450 3153 3228 2886 
Q 3006 2619 2597 2516 
z
" transform="scale(0.015625)"/>
     </defs>
     <use xlink:href="#DejaVuSans-32"/>
     <use xlink:href="#DejaVuSans-33" x="63.623047"/>
     <use xlink:href="#DejaVuSans-20" x="127.246094"/>
     <use xlink:href="#DejaVuSans-4d" x="159.033203"/>
     <use xlink:href="#DejaVuSans-44" x="245.3125"/>
     <use xlink:href="#DejaVuSans-6f" x="322.314453"/>
     <use xlink:href="#DejaVuSans-46" x="383.496094"/>
    </g>
   </g>
   <g id="text_17">
    <!-- 184 MDoF -->
    <g style="fill: #262626" transform="translate(300.002861 217.76958)scale(0.12 -0.12)">
     <use xlink:href="#DejaVuSans-31"/>
     <use xlink:href="#DejaVuSans-38" x="63.623047"/>
     <use xlink:href="#DejaVuSans-34" x="127.246094"/>
     <use xlink:href="#DejaVuSans-20" x="190.869141"/>
     <use xlink:href="#DejaVuSans-4d" x="222.65625"/>
     <use xlink:href="#DejaVuSans-44" x="308.935547"/>
     <use xlink:href="#DejaVuSans-6f" x="385.9375"/>
     <use xlink:href="#DejaVuSans-46" x="447.119141"/>
    </g>
   </g>
   <g id="text_18">
    <!-- 2 -->
    <g style="fill: #262626" transform="translate(97.593423 222.027148)scale(0.12 -0.12)">
     <use xlink:href="#DejaVuSans-32"/>
    </g>
   </g>
   <g id="text_19">
    <!-- 16 MDoF -->
    <g style="fill: #262626" transform="translate(275.248886 172.613243)scale(0.12 -0.12)">
     <defs>
      <path id="DejaVuSans-36" d="M 2113 2584 
Q 1688 2584 1439 2293 
Q 1191 2003 1191 1497 
Q 1191 994 1439 701 
Q 1688 409 2113 409 
Q 2538 409 2786 701 
Q 3034 994 3034 1497 
Q 3034 2003 2786 2293 
Q 2538 2584 2113 2584 
z
M 3366 4563 
L 3366 3988 
Q 3128 4100 2886 4159 
Q 2644 4219 2406 4219 
Q 1781 4219 1451 3797 
Q 1122 3375 1075 2522 
Q 1259 2794 1537 2939 
Q 1816 3084 2150 3084 
Q 2853 3084 3261 2657 
Q 3669 2231 3669 1497 
Q 3669 778 3244 343 
Q 2819 -91 2113 -91 
Q 1303 -91 875 529 
Q 447 1150 447 2328 
Q 447 3434 972 4092 
Q 1497 4750 2381 4750 
Q 2619 4750 2861 4703 
Q 3103 4656 3366 4563 
z
" transform="scale(0.015625)"/>
     </defs>
     <use xlink:href="#DejaVuSans-31"/>
     <use xlink:href="#DejaVuSans-36" x="63.623047"/>
     <use xlink:href="#DejaVuSans-20" x="127.246094"/>
     <use xlink:href="#DejaVuSans-4d" x="159.033203"/>
     <use xlink:href="#DejaVuSans-44" x="245.3125"/>
     <use xlink:href="#DejaVuSans-6f" x="322.314453"/>
     <use xlink:href="#DejaVuSans-46" x="383.496094"/>
    </g>
   </g>
   <g id="text_20">
    <!-- 4 -->
    <g style="fill: #262626" transform="translate(102.506562 114.967572)scale(0.12 -0.12)">
     <use xlink:href="#DejaVuSans-34"/>
    </g>
   </g>
   <g id="text_21">
    <!-- 39 -->
    <g style="fill: #262626" transform="translate(110.473259 144.1675)scale(0.12 -0.12)">
     <use xlink:href="#DejaVuSans-33"/>
     <use xlink:href="#DejaVuSans-39" x="63.623047"/>
    </g>
   </g>
   <g id="text_22">
    <!-- 39 MDoF -->
    <g style="fill: #262626" transform="translate(368.044234 83.819258)scale(0.12 -0.12)">
     <use xlink:href="#DejaVuSans-33"/>
     <use xlink:href="#DejaVuSans-39" x="63.623047"/>
     <use xlink:href="#DejaVuSans-20" x="127.246094"/>
     <use xlink:href="#DejaVuSans-4d" x="159.033203"/>
     <use xlink:href="#DejaVuSans-44" x="245.3125"/>
     <use xlink:href="#DejaVuSans-6f" x="322.314453"/>
     <use xlink:href="#DejaVuSans-46" x="383.496094"/>
    </g>
   </g>
   <g id="text_23">
    <!-- 318 MDoF -->
    <g style="fill: #262626" transform="translate(341.093516 41.042813)scale(0.12 -0.12)">
     <use xlink:href="#DejaVuSans-33"/>
     <use xlink:href="#DejaVuSans-31" x="63.623047"/>
     <use xlink:href="#DejaVuSans-38" x="127.246094"/>
     <use xlink:href="#DejaVuSans-20" x="190.869141"/>
     <use xlink:href="#DejaVuSans-4d" x="222.65625"/>
     <use xlink:href="#DejaVuSans-44" x="308.935547"/>
     <use xlink:href="#DejaVuSans-6f" x="385.9375"/>
     <use xlink:href="#DejaVuSans-46" x="447.119141"/>
    </g>
   </g>
   <g id="text_24">
    <!-- Nonlinear Jacobian evaluation efficiency for $Q_2$ elements -->
    <g style="fill: #262626" transform="translate(190.547997 22.08)scale(0.12 -0.12)">
     <defs>
      <path id="DejaVuSans-4e" d="M 628 4666 
L 1478 4666 
L 3547 763 
L 3547 4666 
L 4159 4666 
L 4159 0 
L 3309 0 
L 1241 3903 
L 1241 0 
L 628 0 
L 628 4666 
z
" transform="scale(0.015625)"/>
      <path id="DejaVuSans-6c" d="M 603 4863 
L 1178 4863 
L 1178 0 
L 603 0 
L 603 4863 
z
" transform="scale(0.015625)"/>
      <path id="DejaVuSans-61" d="M 2194 1759 
Q 1497 1759 1228 1600 
Q 959 1441 959 1056 
Q 959 750 1161 570 
Q 1363 391 1709 391 
Q 2188 391 2477 730 
Q 2766 1069 2766 1631 
L 2766 1759 
L 2194 1759 
z
M 3341 1997 
L 3341 0 
L 2766 0 
L 2766 531 
Q 2569 213 2275 61 
Q 1981 -91 1556 -91 
Q 1019 -91 701 211 
Q 384 513 384 1019 
Q 384 1609 779 1909 
Q 1175 2209 1959 2209 
L 2766 2209 
L 2766 2266 
Q 2766 2663 2505 2880 
Q 2244 3097 1772 3097 
Q 1472 3097 1187 3025 
Q 903 2953 641 2809 
L 641 3341 
Q 956 3463 1253 3523 
Q 1550 3584 1831 3584 
Q 2591 3584 2966 3190 
Q 3341 2797 3341 1997 
z
" transform="scale(0.015625)"/>
      <path id="DejaVuSans-72" d="M 2631 2963 
Q 2534 3019 2420 3045 
Q 2306 3072 2169 3072 
Q 1681 3072 1420 2755 
Q 1159 2438 1159 1844 
L 1159 0 
L 581 0 
L 581 3500 
L 1159 3500 
L 1159 2956 
Q 1341 3275 1631 3429 
Q 1922 3584 2338 3584 
Q 2397 3584 2469 3576 
Q 2541 3569 2628 3553 
L 2631 2963 
z
" transform="scale(0.015625)"/>
      <path id="DejaVuSans-4a" d="M 628 4666 
L 1259 4666 
L 1259 325 
Q 1259 -519 939 -900 
Q 619 -1281 -91 -1281 
L -331 -1281 
L -331 -750 
L -134 -750 
Q 284 -750 456 -515 
Q 628 -281 628 325 
L 628 4666 
z
" transform="scale(0.015625)"/>
      <path id="DejaVuSans-62" d="M 3116 1747 
Q 3116 2381 2855 2742 
Q 2594 3103 2138 3103 
Q 1681 3103 1420 2742 
Q 1159 2381 1159 1747 
Q 1159 1113 1420 752 
Q 1681 391 2138 391 
Q 2594 391 2855 752 
Q 3116 1113 3116 1747 
z
M 1159 2969 
Q 1341 3281 1617 3432 
Q 1894 3584 2278 3584 
Q 2916 3584 3314 3078 
Q 3713 2572 3713 1747 
Q 3713 922 3314 415 
Q 2916 -91 2278 -91 
Q 1894 -91 1617 61 
Q 1341 213 1159 525 
L 1159 0 
L 581 0 
L 581 4863 
L 1159 4863 
L 1159 2969 
z
" transform="scale(0.015625)"/>
      <path id="DejaVuSans-76" d="M 191 3500 
L 800 3500 
L 1894 563 
L 2988 3500 
L 3597 3500 
L 2284 0 
L 1503 0 
L 191 3500 
z
" transform="scale(0.015625)"/>
      <path id="DejaVuSans-75" d="M 544 1381 
L 544 3500 
L 1119 3500 
L 1119 1403 
Q 1119 906 1312 657 
Q 1506 409 1894 409 
Q 2359 409 2629 706 
Q 2900 1003 2900 1516 
L 2900 3500 
L 3475 3500 
L 3475 0 
L 2900 0 
L 2900 538 
Q 2691 219 2414 64 
Q 2138 -91 1772 -91 
Q 1169 -91 856 284 
Q 544 659 544 1381 
z
M 1991 3584 
L 1991 3584 
z
" transform="scale(0.015625)"/>
      <path id="DejaVuSans-74" d="M 1172 4494 
L 1172 3500 
L 2356 3500 
L 2356 3053 
L 1172 3053 
L 1172 1153 
Q 1172 725 1289 603 
Q 1406 481 1766 481 
L 2356 481 
L 2356 0 
L 1766 0 
Q 1100 0 847 248 
Q 594 497 594 1153 
L 594 3053 
L 172 3053 
L 172 3500 
L 594 3500 
L 594 4494 
L 1172 4494 
z
" transform="scale(0.015625)"/>
      <path id="DejaVuSans-Oblique-51" d="M 2309 -84 
Q 2275 -88 2237 -89 
Q 2200 -91 2125 -91 
Q 1250 -91 756 411 
Q 263 913 263 1797 
Q 263 2319 452 2844 
Q 641 3369 978 3788 
Q 1369 4269 1858 4509 
Q 2347 4750 2938 4750 
Q 3794 4750 4287 4245 
Q 4781 3741 4781 2869 
Q 4781 1928 4265 1147 
Q 3750 366 2919 44 
L 3553 -825 
L 2847 -825 
L 2309 -84 
z
M 2919 4238 
Q 2400 4238 2003 3986 
Q 1606 3734 1313 3219 
Q 1125 2891 1026 2522 
Q 928 2153 928 1778 
Q 928 1128 1239 775 
Q 1550 422 2119 422 
Q 2631 422 3032 676 
Q 3434 931 3719 1434 
Q 3909 1772 4009 2142 
Q 4109 2513 4109 2881 
Q 4109 3528 3796 3883 
Q 3484 4238 2919 4238 
z
" transform="scale(0.015625)"/>
     </defs>
     <use xlink:href="#DejaVuSans-4e" transform="translate(0 0.015625)"/>
     <use xlink:href="#DejaVuSans-6f" transform="translate(74.804688 0.015625)"/>
     <use xlink:href="#DejaVuSans-6e" transform="translate(135.986328 0.015625)"/>
     <use xlink:href="#DejaVuSans-6c" transform="translate(199.365234 0.015625)"/>
     <use xlink:href="#DejaVuSans-69" transform="translate(227.148438 0.015625)"/>
     <use xlink:href="#DejaVuSans-6e" transform="translate(254.931641 0.015625)"/>
     <use xlink:href="#DejaVuSans-65" transform="translate(318.310547 0.015625)"/>
     <use xlink:href="#DejaVuSans-61" transform="translate(379.833984 0.015625)"/>
     <use xlink:href="#DejaVuSans-72" transform="translate(441.113281 0.015625)"/>
     <use xlink:href="#DejaVuSans-20" transform="translate(482.226562 0.015625)"/>
     <use xlink:href="#DejaVuSans-4a" transform="translate(514.013672 0.015625)"/>
     <use xlink:href="#DejaVuSans-61" transform="translate(543.505859 0.015625)"/>
     <use xlink:href="#DejaVuSans-63" transform="translate(604.785156 0.015625)"/>
     <use xlink:href="#DejaVuSans-6f" transform="translate(659.765625 0.015625)"/>
     <use xlink:href="#DejaVuSans-62" transform="translate(720.947266 0.015625)"/>
     <use xlink:href="#DejaVuSans-69" transform="translate(784.423828 0.015625)"/>
     <use xlink:href="#DejaVuSans-61" transform="translate(812.207031 0.015625)"/>
     <use xlink:href="#DejaVuSans-6e" transform="translate(873.486328 0.015625)"/>
     <use xlink:href="#DejaVuSans-20" transform="translate(936.865234 0.015625)"/>
     <use xlink:href="#DejaVuSans-65" transform="translate(968.652344 0.015625)"/>
     <use xlink:href="#DejaVuSans-76" transform="translate(1030.175781 0.015625)"/>
     <use xlink:href="#DejaVuSans-61" transform="translate(1089.355469 0.015625)"/>
     <use xlink:href="#DejaVuSans-6c" transform="translate(1150.634766 0.015625)"/>
     <use xlink:href="#DejaVuSans-75" transform="translate(1178.417969 0.015625)"/>
     <use xlink:href="#DejaVuSans-61" transform="translate(1241.796875 0.015625)"/>
     <use xlink:href="#DejaVuSans-74" transform="translate(1303.076172 0.015625)"/>
     <use xlink:href="#DejaVuSans-69" transform="translate(1342.285156 0.015625)"/>
     <use xlink:href="#DejaVuSans-6f" transform="translate(1370.068359 0.015625)"/>
     <use xlink:href="#DejaVuSans-6e" transform="translate(1431.25 0.015625)"/>
     <use xlink:href="#DejaVuSans-20" transform="translate(1494.628906 0.015625)"/>
     <use xlink:href="#DejaVuSans-65" transform="translate(1526.416016 0.015625)"/>
     <use xlink:href="#DejaVuSans-66" transform="translate(1587.939453 0.015625)"/>
     <use xlink:href="#DejaVuSans-66" transform="translate(1623.144531 0.015625)"/>
     <use xlink:href="#DejaVuSans-69" transform="translate(1658.349609 0.015625)"/>
     <use xlink:href="#DejaVuSans-63" transform="translate(1686.132812 0.015625)"/>
     <use xlink:href="#DejaVuSans-69" transform="translate(1741.113281 0.015625)"/>
     <use xlink:href="#DejaVuSans-65" transform="translate(1768.896484 0.015625)"/>
     <use xlink:href="#DejaVuSans-6e" transform="translate(1830.419922 0.015625)"/>
     <use xlink:href="#DejaVuSans-63" transform="translate(1893.798828 0.015625)"/>
     <use xlink:href="#DejaVuSans-79" transform="translate(1948.779297 0.015625)"/>
     <use xlink:href="#DejaVuSans-20" transform="translate(2007.958984 0.015625)"/>
     <use xlink:href="#DejaVuSans-66" transform="translate(2039.746094 0.015625)"/>
     <use xlink:href="#DejaVuSans-6f" transform="translate(2074.951172 0.015625)"/>
     <use xlink:href="#DejaVuSans-72" transform="translate(2136.132812 0.015625)"/>
     <use xlink:href="#DejaVuSans-20" transform="translate(2177.246094 0.015625)"/>
     <use xlink:href="#DejaVuSans-Oblique-51" transform="translate(2209.033203 0.015625)"/>
     <use xlink:href="#DejaVuSans-32" transform="translate(2287.744141 -16.390625)scale(0.7)"/>
     <use xlink:href="#DejaVuSans-20" transform="translate(2335.014648 0.015625)"/>
     <use xlink:href="#DejaVuSans-65" transform="translate(2366.801758 0.015625)"/>
     <use xlink:href="#DejaVuSans-6c" transform="translate(2428.325195 0.015625)"/>
     <use xlink:href="#DejaVuSans-65" transform="translate(2456.108398 0.015625)"/>
     <use xlink:href="#DejaVuSans-6d" transform="translate(2517.631836 0.015625)"/>
     <use xlink:href="#DejaVuSans-65" transform="translate(2615.043945 0.015625)"/>
     <use xlink:href="#DejaVuSans-6e" transform="translate(2676.567383 0.015625)"/>
     <use xlink:href="#DejaVuSans-74" transform="translate(2739.946289 0.015625)"/>
     <use xlink:href="#DejaVuSans-73" transform="translate(2779.155273 0.015625)"/>
    </g>
   </g>
   <g id="legend_1">
    <g id="patch_5">
     <path d="M 558.123962 377.780313 
L 661.164743 377.780313 
Q 663.364743 377.780313 663.364743 375.580312 
L 663.364743 215.220937 
Q 663.364743 213.020937 661.164743 213.020937 
L 558.123962 213.020937 
Q 555.923962 213.020937 555.923962 215.220937 
L 555.923962 375.580312 
Q 555.923962 377.780313 558.123962 377.780313 
z
" style="fill: #ffffff; opacity: 0.8; stroke: #cccccc; stroke-linejoin: miter"/>
    </g>
    <g id="text_25">
     <!-- Hostname -->
     <g style="fill: #262626" transform="translate(591.123962 225.779219)scale(0.11 -0.11)">
      <defs>
       <path id="DejaVuSans-48" d="M 628 4666 
L 1259 4666 
L 1259 2753 
L 3553 2753 
L 3553 4666 
L 4184 4666 
L 4184 0 
L 3553 0 
L 3553 2222 
L 1259 2222 
L 1259 0 
L 628 0 
L 628 4666 
z
" transform="scale(0.015625)"/>
      </defs>
      <use xlink:href="#DejaVuSans-48"/>
      <use xlink:href="#DejaVuSans-6f" x="75.195312"/>
      <use xlink:href="#DejaVuSans-73" x="136.376953"/>
      <use xlink:href="#DejaVuSans-74" x="188.476562"/>
      <use xlink:href="#DejaVuSans-6e" x="227.685547"/>
      <use xlink:href="#DejaVuSans-61" x="291.064453"/>
      <use xlink:href="#DejaVuSans-6d" x="352.34375"/>
      <use xlink:href="#DejaVuSans-65" x="449.755859"/>
     </g>
    </g>
    <g id="line2d_36">
     <path d="M 560.323962 238.075156 
L 571.323962 238.075156 
L 582.323962 238.075156 
" style="fill: none; stroke: #ddaa33; stroke-width: 1.5; stroke-linecap: round"/>
    </g>
    <g id="text_26">
     <!-- Crusher -->
     <g style="fill: #262626" transform="translate(591.123962 241.925156)scale(0.11 -0.11)">
      <defs>
       <path id="DejaVuSans-43" d="M 4122 4306 
L 4122 3641 
Q 3803 3938 3442 4084 
Q 3081 4231 2675 4231 
Q 1875 4231 1450 3742 
Q 1025 3253 1025 2328 
Q 1025 1406 1450 917 
Q 1875 428 2675 428 
Q 3081 428 3442 575 
Q 3803 722 4122 1019 
L 4122 359 
Q 3791 134 3420 21 
Q 3050 -91 2638 -91 
Q 1578 -91 968 557 
Q 359 1206 359 2328 
Q 359 3453 968 4101 
Q 1578 4750 2638 4750 
Q 3056 4750 3426 4639 
Q 3797 4528 4122 4306 
z
" transform="scale(0.015625)"/>
       <path id="DejaVuSans-68" d="M 3513 2113 
L 3513 0 
L 2938 0 
L 2938 2094 
Q 2938 2591 2744 2837 
Q 2550 3084 2163 3084 
Q 1697 3084 1428 2787 
Q 1159 2491 1159 1978 
L 1159 0 
L 581 0 
L 581 4863 
L 1159 4863 
L 1159 2956 
Q 1366 3272 1645 3428 
Q 1925 3584 2291 3584 
Q 2894 3584 3203 3211 
Q 3513 2838 3513 2113 
z
" transform="scale(0.015625)"/>
      </defs>
      <use xlink:href="#DejaVuSans-43"/>
      <use xlink:href="#DejaVuSans-72" x="69.824219"/>
      <use xlink:href="#DejaVuSans-75" x="110.9375"/>
      <use xlink:href="#DejaVuSans-73" x="174.316406"/>
      <use xlink:href="#DejaVuSans-68" x="226.416016"/>
      <use xlink:href="#DejaVuSans-65" x="289.794922"/>
      <use xlink:href="#DejaVuSans-72" x="351.318359"/>
     </g>
    </g>
    <g id="line2d_37">
     <path d="M 560.323962 254.221094 
L 571.323962 254.221094 
L 582.323962 254.221094 
" style="fill: none; stroke: #bb5566; stroke-width: 1.5; stroke-linecap: round"/>
    </g>
    <g id="text_27">
     <!-- Summit -->
     <g style="fill: #262626" transform="translate(591.123962 258.071094)scale(0.11 -0.11)">
      <defs>
       <path id="DejaVuSans-53" d="M 3425 4513 
L 3425 3897 
Q 3066 4069 2747 4153 
Q 2428 4238 2131 4238 
Q 1616 4238 1336 4038 
Q 1056 3838 1056 3469 
Q 1056 3159 1242 3001 
Q 1428 2844 1947 2747 
L 2328 2669 
Q 3034 2534 3370 2195 
Q 3706 1856 3706 1288 
Q 3706 609 3251 259 
Q 2797 -91 1919 -91 
Q 1588 -91 1214 -16 
Q 841 59 441 206 
L 441 856 
Q 825 641 1194 531 
Q 1563 422 1919 422 
Q 2459 422 2753 634 
Q 3047 847 3047 1241 
Q 3047 1584 2836 1778 
Q 2625 1972 2144 2069 
L 1759 2144 
Q 1053 2284 737 2584 
Q 422 2884 422 3419 
Q 422 4038 858 4394 
Q 1294 4750 2059 4750 
Q 2388 4750 2728 4690 
Q 3069 4631 3425 4513 
z
" transform="scale(0.015625)"/>
      </defs>
      <use xlink:href="#DejaVuSans-53"/>
      <use xlink:href="#DejaVuSans-75" x="63.476562"/>
      <use xlink:href="#DejaVuSans-6d" x="126.855469"/>
      <use xlink:href="#DejaVuSans-6d" x="224.267578"/>
      <use xlink:href="#DejaVuSans-69" x="321.679688"/>
      <use xlink:href="#DejaVuSans-74" x="349.462891"/>
     </g>
    </g>
    <g id="line2d_38">
     <path d="M 560.323962 270.367031 
L 571.323962 270.367031 
L 582.323962 270.367031 
" style="fill: none; stroke: #005bb5; stroke-width: 1.5; stroke-linecap: round"/>
    </g>
    <g id="text_28">
     <!-- Lassen -->
     <g style="fill: #262626" transform="translate(591.123962 274.217031)scale(0.11 -0.11)">
      <defs>
       <path id="DejaVuSans-4c" d="M 628 4666 
L 1259 4666 
L 1259 531 
L 3531 531 
L 3531 0 
L 628 0 
L 628 4666 
z
" transform="scale(0.015625)"/>
      </defs>
      <use xlink:href="#DejaVuSans-4c"/>
      <use xlink:href="#DejaVuSans-61" x="55.712891"/>
      <use xlink:href="#DejaVuSans-73" x="116.992188"/>
      <use xlink:href="#DejaVuSans-73" x="169.091797"/>
      <use xlink:href="#DejaVuSans-65" x="221.191406"/>
      <use xlink:href="#DejaVuSans-6e" x="282.714844"/>
     </g>
    </g>
    <g id="line2d_39">
     <path d="M 560.323962 286.512969 
L 571.323962 286.512969 
L 582.323962 286.512969 
" style="fill: none; stroke: #000000; stroke-width: 1.5; stroke-linecap: round"/>
    </g>
    <g id="text_29">
     <!-- Perlmutter -->
     <g style="fill: #262626" transform="translate(591.123962 290.362969)scale(0.11 -0.11)">
      <use xlink:href="#DejaVuSans-50"/>
      <use xlink:href="#DejaVuSans-65" x="56.677734"/>
      <use xlink:href="#DejaVuSans-72" x="118.201172"/>
      <use xlink:href="#DejaVuSans-6c" x="159.314453"/>
      <use xlink:href="#DejaVuSans-6d" x="187.097656"/>
      <use xlink:href="#DejaVuSans-75" x="284.509766"/>
      <use xlink:href="#DejaVuSans-74" x="347.888672"/>
      <use xlink:href="#DejaVuSans-74" x="387.097656"/>
      <use xlink:href="#DejaVuSans-65" x="426.306641"/>
      <use xlink:href="#DejaVuSans-72" x="487.830078"/>
     </g>
    </g>
    <g id="text_30">
     <!-- MPI per GPU -->
     <g style="fill: #262626" transform="translate(591.123962 306.508906)scale(0.11 -0.11)">
      <defs>
       <path id="DejaVuSans-49" d="M 628 4666 
L 1259 4666 
L 1259 0 
L 628 0 
L 628 4666 
z
" transform="scale(0.015625)"/>
       <path id="DejaVuSans-70" d="M 1159 525 
L 1159 -1331 
L 581 -1331 
L 581 3500 
L 1159 3500 
L 1159 2969 
Q 1341 3281 1617 3432 
Q 1894 3584 2278 3584 
Q 2916 3584 3314 3078 
Q 3713 2572 3713 1747 
Q 3713 922 3314 415 
Q 2916 -91 2278 -91 
Q 1894 -91 1617 61 
Q 1341 213 1159 525 
z
M 3116 1747 
Q 3116 2381 2855 2742 
Q 2594 3103 2138 3103 
Q 1681 3103 1420 2742 
Q 1159 2381 1159 1747 
Q 1159 1113 1420 752 
Q 1681 391 2138 391 
Q 2594 391 2855 752 
Q 3116 1113 3116 1747 
z
" transform="scale(0.015625)"/>
      </defs>
      <use xlink:href="#DejaVuSans-4d"/>
      <use xlink:href="#DejaVuSans-50" x="86.279297"/>
      <use xlink:href="#DejaVuSans-49" x="146.582031"/>
      <use xlink:href="#DejaVuSans-20" x="176.074219"/>
      <use xlink:href="#DejaVuSans-70" x="207.861328"/>
      <use xlink:href="#DejaVuSans-65" x="271.337891"/>
      <use xlink:href="#DejaVuSans-72" x="332.861328"/>
      <use xlink:href="#DejaVuSans-20" x="373.974609"/>
      <use xlink:href="#DejaVuSans-47" x="405.761719"/>
      <use xlink:href="#DejaVuSans-50" x="483.251953"/>
      <use xlink:href="#DejaVuSans-55" x="543.554688"/>
     </g>
    </g>
    <g id="line2d_40">
     <path d="M 560.323962 318.804844 
L 571.323962 318.804844 
L 582.323962 318.804844 
" style="fill: none; stroke: #333333; stroke-width: 5; stroke-linecap: round"/>
    </g>
    <g id="text_31">
     <!-- 1 -->
     <g style="fill: #262626" transform="translate(591.123962 322.654844)scale(0.11 -0.11)">
      <use xlink:href="#DejaVuSans-31"/>
     </g>
    </g>
    <g id="text_32">
     <!-- Nodes -->
     <g style="fill: #262626" transform="translate(591.123962 338.800781)scale(0.11 -0.11)">
      <use xlink:href="#DejaVuSans-4e"/>
      <use xlink:href="#DejaVuSans-6f" x="74.804688"/>
      <use xlink:href="#DejaVuSans-64" x="135.986328"/>
      <use xlink:href="#DejaVuSans-65" x="199.462891"/>
      <use xlink:href="#DejaVuSans-73" x="260.986328"/>
     </g>
    </g>
    <g id="line2d_41">
     <path d="M 560.323962 351.096719 
L 571.323962 351.096719 
L 582.323962 351.096719 
" style="fill: none; stroke: #333333; stroke-width: 1.5; stroke-linecap: round"/>
    </g>
    <g id="text_33">
     <!-- 1 -->
     <g style="fill: #262626" transform="translate(591.123962 354.946719)scale(0.11 -0.11)">
      <use xlink:href="#DejaVuSans-31"/>
     </g>
    </g>
    <g id="line2d_42">
     <path d="M 560.323962 367.242656 
L 571.323962 367.242656 
L 582.323962 367.242656 
" style="fill: none; stroke-dasharray: 6,2.25; stroke-dashoffset: 0; stroke: #333333; stroke-width: 1.5"/>
    </g>
    <g id="text_34">
     <!-- 8 -->
     <g style="fill: #262626" transform="translate(591.123962 371.092656)scale(0.11 -0.11)">
      <use xlink:href="#DejaVuSans-38"/>
     </g>
    </g>
   </g>
  </g>
 </g>
 <defs>
  <clipPath id="p1cec53c80a">
   <rect x="52.07125" y="28.08" width="616.793493" height="355.200312"/>
  </clipPath>
 </defs>
</svg>
