<?xml version="1.0" standalone="no"?>
<!DOCTYPE svg PUBLIC "-//W3C//DTD SVG 1.1//EN" "http://www.w3.org/Graphics/SVG/1.1/DTD/svg11.dtd">
<svg version="1.1" width="1200" height="262" onload="init(evt)" viewBox="0 0 1200 262" xmlns="http://www.w3.org/2000/svg" xmlns:xlink="http://www.w3.org/1999/xlink">
<!-- Flame graph stack visualization. See https://github.com/brendangregg/FlameGraph for latest version, and http://www.brendangregg.com/flamegraphs.html for examples. -->
<!-- NOTES:  -->
<defs>
	<linearGradient id="background" y1="0" y2="1" x1="0" x2="0" >
		<stop stop-color="#eeeeee" offset="5%" />
		<stop stop-color="#eeeeb0" offset="95%" />
	</linearGradient>
</defs>
<style type="text/css">
	text { font-family:Verdana; font-size:12px; fill:rgb(0,0,0); }
	#search, #ignorecase { opacity:0.1; cursor:pointer; }
	#search:hover, #search.show, #ignorecase:hover, #ignorecase.show { opacity:1; }
	#subtitle { text-anchor:middle; font-color:rgb(160,160,160); }
	#title { text-anchor:middle; font-size:17px}
	#unzoom { cursor:pointer; }
	#frames > *:hover { stroke:black; stroke-width:0.5; cursor:pointer; }
	.hide { display:none; }
	.parent { opacity:0.5; }
</style>
<script type="text/ecmascript">
<![CDATA[
	"use strict";
	var details, searchbtn, unzoombtn, matchedtxt, svg, searching, currentSearchTerm, ignorecase, ignorecaseBtn;
	function init(evt) {
		details = document.getElementById("details").firstChild;
		searchbtn = document.getElementById("search");
		ignorecaseBtn = document.getElementById("ignorecase");
		unzoombtn = document.getElementById("unzoom");
		matchedtxt = document.getElementById("matched");
		svg = document.getElementsByTagName("svg")[0];
		searching = 0;
		currentSearchTerm = null;

		// use GET parameters to restore a flamegraphs state.
		var params = get_params();
		if (params.x && params.y)
			zoom(find_group(document.querySelector('[x="' + params.x + '"][y="' + params.y + '"]')));
                if (params.s) search(params.s);
	}

	// event listeners
	window.addEventListener("click", function(e) {
		var target = find_group(e.target);
		if (target) {
			if (target.nodeName == "a") {
				if (e.ctrlKey === false) return;
				e.preventDefault();
			}
			if (target.classList.contains("parent")) unzoom();
			zoom(target);
			if (!document.querySelector('.parent')) {
				clearzoom();
				return;
			}

			// set parameters for zoom state
			var el = target.querySelector("rect");
			if (el && el.attributes && el.attributes.y && el.attributes._orig_x) {
				var params = get_params()
				params.x = el.attributes._orig_x.value;
				params.y = el.attributes.y.value;
				history.replaceState(null, null, parse_params(params));
			}
		}
		else if (e.target.id == "unzoom") clearzoom();
		else if (e.target.id == "search") search_prompt();
		else if (e.target.id == "ignorecase") toggle_ignorecase();
	}, false)

	// mouse-over for info
	// show
	window.addEventListener("mouseover", function(e) {
		var target = find_group(e.target);
		if (target) details.nodeValue = "Function: " + g_to_text(target);
	}, false)

	// clear
	window.addEventListener("mouseout", function(e) {
		var target = find_group(e.target);
		if (target) details.nodeValue = ' ';
	}, false)

	// ctrl-F for search
	// ctrl-I to toggle case-sensitive search
	window.addEventListener("keydown",function (e) {
		if (e.keyCode === 114 || (e.ctrlKey && e.keyCode === 70)) {
			e.preventDefault();
			search_prompt();
		}
		else if (e.ctrlKey && e.keyCode === 73) {
			e.preventDefault();
			toggle_ignorecase();
		}
	}, false)

	// functions
	function get_params() {
		var params = {};
		var paramsarr = window.location.search.substr(1).split('&');
		for (var i = 0; i < paramsarr.length; ++i) {
			var tmp = paramsarr[i].split("=");
			if (!tmp[0] || !tmp[1]) continue;
			params[tmp[0]]  = decodeURIComponent(tmp[1]);
		}
		return params;
	}
	function parse_params(params) {
		var uri = "?";
		for (var key in params) {
			uri += key + '=' + encodeURIComponent(params[key]) + '&';
		}
		if (uri.slice(-1) == "&")
			uri = uri.substring(0, uri.length - 1);
		if (uri == '?')
			uri = window.location.href.split('?')[0];
		return uri;
	}
	function find_child(node, selector) {
		var children = node.querySelectorAll(selector);
		if (children.length) return children[0];
	}
	function find_group(node) {
		var parent = node.parentElement;
		if (!parent) return;
		if (parent.id == "frames") return node;
		return find_group(parent);
	}
	function orig_save(e, attr, val) {
		if (e.attributes["_orig_" + attr] != undefined) return;
		if (e.attributes[attr] == undefined) return;
		if (val == undefined) val = e.attributes[attr].value;
		e.setAttribute("_orig_" + attr, val);
	}
	function orig_load(e, attr) {
		if (e.attributes["_orig_"+attr] == undefined) return;
		e.attributes[attr].value = e.attributes["_orig_" + attr].value;
		e.removeAttribute("_orig_"+attr);
	}
	function g_to_text(e) {
		var text = find_child(e, "title").firstChild.nodeValue;
		return (text)
	}
	function g_to_func(e) {
		var func = g_to_text(e);
		// if there's any manipulation we want to do to the function
		// name before it's searched, do it here before returning.
		return (func);
	}
	function update_text(e) {
		var r = find_child(e, "rect");
		var t = find_child(e, "text");
		var w = parseFloat(r.attributes.width.value) -3;
		var txt = find_child(e, "title").textContent.replace(/\([^(]*\)$/,"");
		t.attributes.x.value = parseFloat(r.attributes.x.value) + 3;

		// Smaller than this size won't fit anything
		if (w < 2 * 12 * 0.59) {
			t.textContent = "";
			return;
		}

		t.textContent = txt;
		// Fit in full text width
		if (/^ *$/.test(txt) || t.getSubStringLength(0, txt.length) < w)
			return;

		for (var x = txt.length - 2; x > 0; x--) {
			if (t.getSubStringLength(0, x + 2) <= w) {
				t.textContent = txt.substring(0, x) + "..";
				return;
			}
		}
		t.textContent = "";
	}

	// zoom
	function zoom_reset(e) {
		if (e.attributes != undefined) {
			orig_load(e, "x");
			orig_load(e, "width");
		}
		if (e.childNodes == undefined) return;
		for (var i = 0, c = e.childNodes; i < c.length; i++) {
			zoom_reset(c[i]);
		}
	}
	function zoom_child(e, x, ratio) {
		if (e.attributes != undefined) {
			if (e.attributes.x != undefined) {
				orig_save(e, "x");
				e.attributes.x.value = (parseFloat(e.attributes.x.value) - x - 10) * ratio + 10;
				if (e.tagName == "text")
					e.attributes.x.value = find_child(e.parentNode, "rect[x]").attributes.x.value + 3;
			}
			if (e.attributes.width != undefined) {
				orig_save(e, "width");
				e.attributes.width.value = parseFloat(e.attributes.width.value) * ratio;
			}
		}

		if (e.childNodes == undefined) return;
		for (var i = 0, c = e.childNodes; i < c.length; i++) {
			zoom_child(c[i], x - 10, ratio);
		}
	}
	function zoom_parent(e) {
		if (e.attributes) {
			if (e.attributes.x != undefined) {
				orig_save(e, "x");
				e.attributes.x.value = 10;
			}
			if (e.attributes.width != undefined) {
				orig_save(e, "width");
				e.attributes.width.value = parseInt(svg.width.baseVal.value) - (10 * 2);
			}
		}
		if (e.childNodes == undefined) return;
		for (var i = 0, c = e.childNodes; i < c.length; i++) {
			zoom_parent(c[i]);
		}
	}
	function zoom(node) {
		var attr = find_child(node, "rect").attributes;
		var width = parseFloat(attr.width.value);
		var xmin = parseFloat(attr.x.value);
		var xmax = parseFloat(xmin + width);
		var ymin = parseFloat(attr.y.value);
		var ratio = (svg.width.baseVal.value - 2 * 10) / width;

		// XXX: Workaround for JavaScript float issues (fix me)
		var fudge = 0.0001;

		unzoombtn.classList.remove("hide");

		var el = document.getElementById("frames").children;
		for (var i = 0; i < el.length; i++) {
			var e = el[i];
			var a = find_child(e, "rect").attributes;
			var ex = parseFloat(a.x.value);
			var ew = parseFloat(a.width.value);
			var upstack;
			// Is it an ancestor
			if (0 == 0) {
				upstack = parseFloat(a.y.value) > ymin;
			} else {
				upstack = parseFloat(a.y.value) < ymin;
			}
			if (upstack) {
				// Direct ancestor
				if (ex <= xmin && (ex+ew+fudge) >= xmax) {
					e.classList.add("parent");
					zoom_parent(e);
					update_text(e);
				}
				// not in current path
				else
					e.classList.add("hide");
			}
			// Children maybe
			else {
				// no common path
				if (ex < xmin || ex + fudge >= xmax) {
					e.classList.add("hide");
				}
				else {
					zoom_child(e, xmin, ratio);
					update_text(e);
				}
			}
		}
		search();
	}
	function unzoom() {
		unzoombtn.classList.add("hide");
		var el = document.getElementById("frames").children;
		for(var i = 0; i < el.length; i++) {
			el[i].classList.remove("parent");
			el[i].classList.remove("hide");
			zoom_reset(el[i]);
			update_text(el[i]);
		}
		search();
	}
	function clearzoom() {
		unzoom();

		// remove zoom state
		var params = get_params();
		if (params.x) delete params.x;
		if (params.y) delete params.y;
		history.replaceState(null, null, parse_params(params));
	}

	// search
	function toggle_ignorecase() {
		ignorecase = !ignorecase;
		if (ignorecase) {
			ignorecaseBtn.classList.add("show");
		} else {
			ignorecaseBtn.classList.remove("show");
		}
		reset_search();
		search();
	}
	function reset_search() {
		var el = document.querySelectorAll("#frames rect");
		for (var i = 0; i < el.length; i++) {
			orig_load(el[i], "fill")
		}
		var params = get_params();
		delete params.s;
		history.replaceState(null, null, parse_params(params));
	}
	function search_prompt() {
		if (!searching) {
			var term = prompt("Enter a search term (regexp " +
			    "allowed, eg: ^ext4_)"
			    + (ignorecase ? ", ignoring case" : "")
			    + "\nPress Ctrl-i to toggle case sensitivity", "");
			if (term != null) search(term);
		} else {
			reset_search();
			searching = 0;
			currentSearchTerm = null;
			searchbtn.classList.remove("show");
			searchbtn.firstChild.nodeValue = "Search"
			matchedtxt.classList.add("hide");
			matchedtxt.firstChild.nodeValue = ""
		}
	}
	function search(term) {
		if (term) currentSearchTerm = term;

		var re = new RegExp(currentSearchTerm, ignorecase ? 'i' : '');
		var el = document.getElementById("frames").children;
		var matches = new Object();
		var maxwidth = 0;
		for (var i = 0; i < el.length; i++) {
			var e = el[i];
			var func = g_to_func(e);
			var rect = find_child(e, "rect");
			if (func == null || rect == null)
				continue;

			// Save max width. Only works as we have a root frame
			var w = parseFloat(rect.attributes.width.value);
			if (w > maxwidth)
				maxwidth = w;

			if (func.match(re)) {
				// highlight
				var x = parseFloat(rect.attributes.x.value);
				orig_save(rect, "fill");
				rect.attributes.fill.value = "rgb(230,0,230)";

				// remember matches
				if (matches[x] == undefined) {
					matches[x] = w;
				} else {
					if (w > matches[x]) {
						// overwrite with parent
						matches[x] = w;
					}
				}
				searching = 1;
			}
		}
		if (!searching)
			return;
		var params = get_params();
		params.s = currentSearchTerm;
		history.replaceState(null, null, parse_params(params));

		searchbtn.classList.add("show");
		searchbtn.firstChild.nodeValue = "Reset Search";

		// calculate percent matched, excluding vertical overlap
		var count = 0;
		var lastx = -1;
		var lastw = 0;
		var keys = Array();
		for (k in matches) {
			if (matches.hasOwnProperty(k))
				keys.push(k);
		}
		// sort the matched frames by their x location
		// ascending, then width descending
		keys.sort(function(a, b){
			return a - b;
		});
		// Step through frames saving only the biggest bottom-up frames
		// thanks to the sort order. This relies on the tree property
		// where children are always smaller than their parents.
		var fudge = 0.0001;	// JavaScript floating point
		for (var k in keys) {
			var x = parseFloat(keys[k]);
			var w = matches[keys[k]];
			if (x >= lastx + lastw - fudge) {
				count += w;
				lastx = x;
				lastw = w;
			}
		}
		// display matched percent
		matchedtxt.classList.remove("hide");
		var pct = 100 * count / maxwidth;
		if (pct != 100) pct = pct.toFixed(1)
		matchedtxt.firstChild.nodeValue = "Matched: " + pct + "%";
	}
]]>
</script>
<rect x="0.0" y="0" width="1200.0" height="262.0" fill="url(#background)"  />
<text id="title" x="600.00" y="24" >Schwarz-P Q2 with hypre</text>
<text id="details" x="10.00" y="245" > </text>
<text id="unzoom" x="10.00" y="24" class="hide">Reset Zoom</text>
<text id="search" x="1090.00" y="24" >Search</text>
<text id="ignorecase" x="1174.00" y="24" >ic</text>
<text id="matched" x="1090.00" y="245" > </text>
<g id="frames">
<g >
<title>RatelJacobianApp (2,016,154 samples, 4.84%)</title><rect x="35.7" y="133" width="57.2" height="15.0" fill="rgb(208,5,40)" rx="2" ry="2" />
<text  x="38.71" y="143.5" >RatelJ..</text>
</g>
<g >
<title>SFPack (6,725 samples, 0.02%)</title><rect x="90.7" y="85" width="0.2" height="15.0" fill="rgb(205,43,37)" rx="2" ry="2" />
<text  x="93.68" y="95.5" ></text>
</g>
<g >
<title>VecCopy (10,857 samples, 0.03%)</title><rect x="754.8" y="149" width="0.3" height="15.0" fill="rgb(250,29,23)" rx="2" ry="2" />
<text  x="757.77" y="159.5" ></text>
</g>
<g >
<title>all (41,624,741 samples, 100%)</title><rect x="10.0" y="213" width="1180.0" height="15.0" fill="rgb(208,44,36)" rx="2" ry="2" />
<text  x="13.00" y="223.5" ></text>
</g>
<g >
<title>VecAXPY (156,549 samples, 0.38%)</title><rect x="961.6" y="101" width="4.4" height="15.0" fill="rgb(243,164,3)" rx="2" ry="2" />
<text  x="964.60" y="111.5" ></text>
</g>
<g >
<title>MGInterp Level 1 (1,754,989 samples, 4.22%; 0.00%)</title><rect x="92.9" y="133" width="49.7" height="15.0" fill="rgb(255,255,255)" rx="2" ry="2" />
<text  x="95.87" y="143.5" >MGInt..</text>
</g>
<g >
<title>SFBcastEnd (7,410 samples, 0.02%)</title><rect x="867.9" y="69" width="0.2" height="15.0" fill="rgb(234,13,36)" rx="2" ry="2" />
<text  x="870.92" y="79.5" ></text>
</g>
<g >
<title>MatMult (93,689 samples, 0.23%)</title><rect x="11.3" y="197" width="2.6" height="15.0" fill="rgb(253,6,19)" rx="2" ry="2" />
<text  x="14.28" y="207.5" ></text>
</g>
<g >
<title>SFBcastEnd (14,322 samples, 0.03%)</title><rect x="87.0" y="117" width="0.4" height="15.0" fill="rgb(243,125,43)" rx="2" ry="2" />
<text  x="90.04" y="127.5" ></text>
</g>
<g >
<title>VecCopy (13,091 samples, 0.03%)</title><rect x="967.3" y="101" width="0.4" height="15.0" fill="rgb(250,2,51)" rx="2" ry="2" />
<text  x="970.33" y="111.5" ></text>
</g>
<g >
<title>SFUnpack (17,643 samples, 0.04%)</title><rect x="626.4" y="53" width="0.5" height="15.0" fill="rgb(216,139,38)" rx="2" ry="2" />
<text  x="629.41" y="63.5" ></text>
</g>
<g >
<title>MatMult (1,223,659 samples, 2.94%)</title><rect x="836.7" y="101" width="34.6" height="15.0" fill="rgb(209,19,23)" rx="2" ry="2" />
<text  x="839.65" y="111.5" >Ma..</text>
</g>
<g >
<title>RatelJacobianApp (2,098,109 samples, 5.04%)</title><rect x="142.6" y="85" width="59.5" height="15.0" fill="rgb(205,19,47)" rx="2" ry="2" />
<text  x="145.62" y="95.5" >RatelJ..</text>
</g>
<g >
<title>SFPack (5,578 samples, 0.01%)</title><rect x="199.0" y="37" width="0.2" height="15.0" fill="rgb(231,87,34)" rx="2" ry="2" />
<text  x="202.00" y="47.5" ></text>
</g>
<g >
<title>VecNorm (18,297 samples, 0.04%)</title><rect x="1189.3" y="181" width="0.5" height="15.0" fill="rgb(235,181,47)" rx="2" ry="2" />
<text  x="1192.31" y="191.5" ></text>
</g>
<g >
<title>SFReduceEnd (64,456 samples, 0.15%)</title><rect x="117.0" y="69" width="1.8" height="15.0" fill="rgb(228,95,30)" rx="2" ry="2" />
<text  x="120.01" y="79.5" ></text>
</g>
<g >
<title>VecSet (45,010 samples, 0.11%)</title><rect x="744.0" y="133" width="1.3" height="15.0" fill="rgb(220,218,25)" rx="2" ry="2" />
<text  x="747.05" y="143.5" ></text>
</g>
<g >
<title>MatMult (10,662,780 samples, 25.62%)</title><rect x="356.5" y="101" width="302.3" height="15.0" fill="rgb(214,19,20)" rx="2" ry="2" />
<text  x="359.52" y="111.5" >MatMult</text>
</g>
<g >
<title>VecAXPY (255,711 samples, 0.61%)</title><rect x="745.3" y="149" width="7.3" height="15.0" fill="rgb(215,181,50)" rx="2" ry="2" />
<text  x="748.32" y="159.5" ></text>
</g>
<g >
<title>VecPointwiseMult (114,232 samples, 0.27%)</title><rect x="886.1" y="85" width="3.3" height="15.0" fill="rgb(207,16,9)" rx="2" ry="2" />
<text  x="889.12" y="95.5" ></text>
</g>
<g >
<title>PCSetUp (7,626,613 samples, 18.32%)</title><rect x="759.9" y="165" width="216.2" height="15.0" fill="rgb(218,138,13)" rx="2" ry="2" />
<text  x="762.94" y="175.5" >PCSetUp</text>
</g>
<g >
<title>VecCopy (12,932 samples, 0.03%)</title><rect x="1188.5" y="149" width="0.3" height="15.0" fill="rgb(236,141,26)" rx="2" ry="2" />
<text  x="1191.48" y="159.5" ></text>
</g>
<g >
<title>SFPack (28,077 samples, 0.07%)</title><rect x="642.9" y="53" width="0.8" height="15.0" fill="rgb(220,169,53)" rx="2" ry="2" />
<text  x="645.91" y="63.5" ></text>
</g>
<g >
<title>DMRefine (14,910 samples, 0.04%)</title><rect x="10.7" y="197" width="0.4" height="15.0" fill="rgb(251,167,14)" rx="2" ry="2" />
<text  x="13.67" y="207.5" ></text>
</g>
<g >
<title>SFBcastEnd (17,740 samples, 0.04%)</title><rect x="195.4" y="69" width="0.5" height="15.0" fill="rgb(253,28,13)" rx="2" ry="2" />
<text  x="198.40" y="79.5" ></text>
</g>
<g >
<title>PCApply (5,320,469 samples, 12.78%)</title><rect x="205.3" y="101" width="150.8" height="15.0" fill="rgb(241,203,32)" rx="2" ry="2" />
<text  x="208.26" y="111.5" >PCApply</text>
</g>
<g >
<title>SFBcastEnd (4,984 samples, 0.01%)</title><rect x="1185.9" y="117" width="0.2" height="15.0" fill="rgb(254,112,54)" rx="2" ry="2" />
<text  x="1188.92" y="127.5" ></text>
</g>
<g >
<title>SFSetUp (13,097 samples, 0.03%)</title><rect x="34.9" y="197" width="0.3" height="15.0" fill="rgb(208,78,54)" rx="2" ry="2" />
<text  x="37.88" y="207.5" ></text>
</g>
<g >
<title>SFBcastBegin (110,903 samples, 0.27%)</title><rect x="864.8" y="69" width="3.1" height="15.0" fill="rgb(253,22,51)" rx="2" ry="2" />
<text  x="867.78" y="79.5" ></text>
</g>
<g >
<title>SFBcastBegin (172,298 samples, 0.41%)</title><rect x="82.2" y="117" width="4.8" height="15.0" fill="rgb(218,128,32)" rx="2" ry="2" />
<text  x="85.15" y="127.5" ></text>
</g>
<g >
<title>VecSet (5,869 samples, 0.01%)</title><rect x="970.3" y="101" width="0.2" height="15.0" fill="rgb(250,46,48)" rx="2" ry="2" />
<text  x="973.33" y="111.5" ></text>
</g>
<g >
<title>MatMult (2,098,109 samples, 5.04%)</title><rect x="142.6" y="101" width="59.5" height="15.0" fill="rgb(254,134,22)" rx="2" ry="2" />
<text  x="145.62" y="111.5" >MatMult</text>
</g>
<g >
<title>MatMultTranspose (133,969 samples, 0.32%; 0.00%)</title><rect x="972.3" y="149" width="3.8" height="15.0" fill="rgb(255,255,255)" rx="2" ry="2" />
<text  x="975.35" y="159.5" ></text>
</g>
<g >
<title>MatSetValuesCOO (330,719 samples, 0.79%)</title><rect x="1159.0" y="117" width="9.4" height="15.0" fill="rgb(240,118,2)" rx="2" ry="2" />
<text  x="1162.01" y="127.5" ></text>
</g>
<g >
<title>KSPSetUp (4,811,787 samples, 11.56%)</title><rect x="835.9" y="133" width="136.4" height="15.0" fill="rgb(215,19,38)" rx="2" ry="2" />
<text  x="838.94" y="143.5" >KSPSetUp</text>
</g>
<g >
<title>TSFunctionEval (76,701 samples, 0.18%)</title><rect x="976.1" y="149" width="2.2" height="15.0" fill="rgb(249,93,41)" rx="2" ry="2" />
<text  x="979.14" y="159.5" ></text>
</g>
<g >
<title>MGResid Level 1 (2,209,755 samples, 5.31%)</title><rect x="142.6" y="133" width="62.7" height="15.0" fill="rgb(209,108,42)" rx="2" ry="2" />
<text  x="145.62" y="143.5" >MGResi..</text>
</g>
<g >
<title>SFReduceEnd (5,176 samples, 0.01%)</title><rect x="34.4" y="197" width="0.1" height="15.0" fill="rgb(226,87,35)" rx="2" ry="2" />
<text  x="37.39" y="207.5" ></text>
</g>
<g >
<title>SFReduceEnd (9,641 samples, 0.02%)</title><rect x="885.8" y="85" width="0.3" height="15.0" fill="rgb(226,215,54)" rx="2" ry="2" />
<text  x="888.85" y="95.5" ></text>
</g>
<g >
<title>MatMult (2,016,154 samples, 4.84%)</title><rect x="35.7" y="149" width="57.2" height="15.0" fill="rgb(228,140,38)" rx="2" ry="2" />
<text  x="38.71" y="159.5" >MatMult</text>
</g>
<g >
<title>TSJacobianEval (6,704,545 samples, 16.11%)</title><rect x="978.3" y="149" width="190.1" height="15.0" fill="rgb(205,157,35)" rx="2" ry="2" />
<text  x="981.32" y="159.5" >TSJacobianEval</text>
</g>
<g >
<title>RatelRestrict (514,706 samples, 1.24%; +1.24%)</title><rect x="123.1" y="101" width="14.6" height="15.0" fill="rgb(255,54,54)" rx="2" ry="2" />
<text  x="126.12" y="111.5" ></text>
</g>
<g >
<title>DMPlexDistribute (5,332 samples, 0.01%)</title><rect x="10.3" y="197" width="0.2" height="15.0" fill="rgb(239,185,20)" rx="2" ry="2" />
<text  x="13.34" y="207.5" ></text>
</g>
<g >
<title>VecPointwiseMult (1,235,956 samples, 2.97%)</title><rect x="658.8" y="85" width="35.0" height="15.0" fill="rgb(226,47,50)" rx="2" ry="2" />
<text  x="661.79" y="95.5" >Ve..</text>
</g>
<g >
<title>SFPack (6,725 samples, 0.02%)</title><rect x="90.7" y="101" width="0.2" height="15.0" fill="rgb(208,67,44)" rx="2" ry="2" />
<text  x="93.68" y="111.5" ></text>
</g>
<g >
<title>PCApply (1,235,956 samples, 2.97%)</title><rect x="658.8" y="101" width="35.0" height="15.0" fill="rgb(234,84,39)" rx="2" ry="2" />
<text  x="661.79" y="111.5" >PC..</text>
</g>
<g >
<title>SFBcastBegin (19,089 samples, 0.05%)</title><rect x="1185.4" y="117" width="0.5" height="15.0" fill="rgb(243,0,52)" rx="2" ry="2" />
<text  x="1188.38" y="127.5" ></text>
</g>
<g >
<title>KSPSolve (13,685,167 samples, 32.88%)</title><rect x="356.1" y="117" width="387.9" height="15.0" fill="rgb(246,196,7)" rx="2" ry="2" />
<text  x="359.09" y="127.5" >KSPSolve</text>
</g>
<g >
<title>RatelJacobianApp (10,655,711 samples, 25.60%)</title><rect x="356.7" y="85" width="302.1" height="15.0" fill="rgb(222,152,19)" rx="2" ry="2" />
<text  x="359.72" y="95.5" >RatelJacobianApp</text>
</g>
<g >
<title>RatelRestrict 1 (173,034 samples, 0.42%)</title><rect x="137.7" y="101" width="4.9" height="15.0" fill="rgb(240,189,44)" rx="2" ry="2" />
<text  x="140.72" y="111.5" ></text>
</g>
<g >
<title>VecAXPBYCZ (809,072 samples, 1.94%)</title><rect x="693.8" y="101" width="23.0" height="15.0" fill="rgb(225,199,37)" rx="2" ry="2" />
<text  x="696.83" y="111.5" >V..</text>
</g>
<g >
<title>KSPSolve (4,786,654 samples, 11.50%)</title><rect x="836.7" y="117" width="135.6" height="15.0" fill="rgb(245,190,24)" rx="2" ry="2" />
<text  x="839.65" y="127.5" >KSPSolve</text>
</g>
<g >
<title>MatSetPreallCOO (709,167 samples, 1.70%)</title><rect x="13.9" y="197" width="20.1" height="15.0" fill="rgb(209,75,41)" rx="2" ry="2" />
<text  x="16.93" y="207.5" ></text>
</g>
<g >
<title>DualSpaceSetUp (6,612 samples, 0.02%)</title><rect x="11.1" y="165" width="0.2" height="15.0" fill="rgb(249,172,25)" rx="2" ry="2" />
<text  x="14.09" y="175.5" ></text>
</g>
<g >
<title>VecSet (39,886 samples, 0.10%)</title><rect x="91.7" y="117" width="1.2" height="15.0" fill="rgb(243,74,25)" rx="2" ry="2" />
<text  x="94.74" y="127.5" ></text>
</g>
<g >
<title>MGSetup Level 0 (2,674,168 samples, 6.42%)</title><rect x="760.1" y="149" width="75.8" height="15.0" fill="rgb(205,135,54)" rx="2" ry="2" />
<text  x="763.13" y="159.5" >MGSetup ..</text>
</g>
<g >
<title>SFPack (6,148 samples, 0.01%)</title><rect x="116.8" y="37" width="0.2" height="15.0" fill="rgb(230,178,17)" rx="2" ry="2" />
<text  x="119.84" y="47.5" ></text>
</g>
<g >
<title>TSFunctionEval (672,648 samples, 1.62%)</title><rect x="1168.4" y="133" width="19.1" height="15.0" fill="rgb(207,62,28)" rx="2" ry="2" />
<text  x="1171.38" y="143.5" ></text>
</g>
<g >
<title>KSPSolve (5,320,469 samples, 12.78%)</title><rect x="205.3" y="117" width="150.8" height="15.0" fill="rgb(235,62,51)" rx="2" ry="2" />
<text  x="208.26" y="127.5" >KSPSolve</text>
</g>
<g >
<title>VecSet (37,653 samples, 0.09%)</title><rect x="118.8" y="69" width="1.1" height="15.0" fill="rgb(241,204,15)" rx="2" ry="2" />
<text  x="121.84" y="79.5" ></text>
</g>
<g >
<title>SFReduceBegin (71,298 samples, 0.17%)</title><rect x="868.1" y="69" width="2.1" height="15.0" fill="rgb(229,120,9)" rx="2" ry="2" />
<text  x="871.13" y="79.5" ></text>
</g>
<g >
<title>VecAYPX (45,727 samples, 0.11%)</title><rect x="966.0" y="101" width="1.3" height="15.0" fill="rgb(235,87,50)" rx="2" ry="2" />
<text  x="969.04" y="111.5" ></text>
</g>
<g >
<title>DMCreateMat (12,086 samples, 0.03%)</title><rect x="10.0" y="197" width="0.3" height="15.0" fill="rgb(243,197,12)" rx="2" ry="2" />
<text  x="13.00" y="207.5" ></text>
</g>
<g >
<title>SFSetUp (32,420 samples, 0.08%)</title><rect x="33.1" y="165" width="0.9" height="15.0" fill="rgb(233,222,3)" rx="2" ry="2" />
<text  x="36.12" y="175.5" ></text>
</g>
<g >
<title>SNESSolve (40,699,915 samples, 97.78%)</title><rect x="35.5" y="181" width="1153.8" height="15.0" fill="rgb(241,116,47)" rx="2" ry="2" />
<text  x="38.52" y="191.5" >SNESSolve</text>
</g>
<g >
<title>SFSetGraph (12,100 samples, 0.03%)</title><rect x="34.5" y="197" width="0.4" height="15.0" fill="rgb(216,60,20)" rx="2" ry="2" />
<text  x="37.53" y="207.5" ></text>
</g>
<g >
<title>MatMultTranspose (687,740 samples, 1.65%; 0.00%)</title><rect x="123.1" y="117" width="19.5" height="15.0" fill="rgb(255,255,255)" rx="2" ry="2" />
<text  x="126.12" y="127.5" ></text>
</g>
<g >
<title>SFBcastBegin (7,694 samples, 0.02%)</title><rect x="112.6" y="69" width="0.2" height="15.0" fill="rgb(229,112,27)" rx="2" ry="2" />
<text  x="115.63" y="79.5" ></text>
</g>
<g >
<title>VecSet (25,204 samples, 0.06%)</title><rect x="870.6" y="69" width="0.7" height="15.0" fill="rgb(230,113,6)" rx="2" ry="2" />
<text  x="873.63" y="79.5" ></text>
</g>
<g >
<title>TSStep (40,709,659 samples, 97.80%)</title><rect x="35.2" y="197" width="1154.1" height="15.0" fill="rgb(207,211,2)" rx="2" ry="2" />
<text  x="38.25" y="207.5" >TSStep</text>
</g>
<g >
<title>SFReduceBegin (7,731 samples, 0.02%)</title><rect x="1186.1" y="117" width="0.2" height="15.0" fill="rgb(211,143,38)" rx="2" ry="2" />
<text  x="1189.06" y="127.5" ></text>
</g>
<g >
<title>SFPack (5,578 samples, 0.01%)</title><rect x="199.0" y="53" width="0.2" height="15.0" fill="rgb(246,130,25)" rx="2" ry="2" />
<text  x="202.00" y="63.5" ></text>
</g>
<g >
<title>VecSet (6,177 samples, 0.01%)</title><rect x="1189.8" y="197" width="0.2" height="15.0" fill="rgb(247,57,37)" rx="2" ry="2" />
<text  x="1192.82" y="207.5" ></text>
</g>
<g >
<title>VecAXPY (12,256 samples, 0.03%)</title><rect x="1188.1" y="149" width="0.4" height="15.0" fill="rgb(254,70,54)" rx="2" ry="2" />
<text  x="1191.13" y="159.5" ></text>
</g>
<g >
<title>SFBcastBegin (5,568 samples, 0.01%)</title><rect x="34.0" y="197" width="0.2" height="15.0" fill="rgb(212,48,9)" rx="2" ry="2" />
<text  x="37.04" y="207.5" ></text>
</g>
<g >
<title>VecTDot (65,348 samples, 0.16%)</title><rect x="970.5" y="101" width="1.8" height="15.0" fill="rgb(214,33,15)" rx="2" ry="2" />
<text  x="973.49" y="111.5" ></text>
</g>
<g >
<title>MatMultAdd (1,067,249 samples, 2.56%; 0.00%)</title><rect x="92.9" y="117" width="30.2" height="15.0" fill="rgb(255,255,255)" rx="2" ry="2" />
<text  x="95.87" y="127.5" >Ma..</text>
</g>
<g >
<title>RatelProlong (697,056 samples, 1.67%; +1.67%)</title><rect x="92.9" y="85" width="19.7" height="15.0" fill="rgb(255,0,0)" rx="2" ry="2" />
<text  x="95.87" y="95.5" ></text>
</g>
<g >
<title>VecSet (4,896 samples, 0.01%)</title><rect x="755.1" y="149" width="0.1" height="15.0" fill="rgb(236,152,51)" rx="2" ry="2" />
<text  x="758.08" y="159.5" ></text>
</g>
<g >
<title>SFBcastEnd (71,601 samples, 0.17%)</title><rect x="624.9" y="69" width="2.0" height="15.0" fill="rgb(250,40,42)" rx="2" ry="2" />
<text  x="627.88" y="79.5" ></text>
</g>
<g >
<title>RatelRestrict 1 (29,955 samples, 0.07%)</title><rect x="975.3" y="133" width="0.8" height="15.0" fill="rgb(240,191,2)" rx="2" ry="2" />
<text  x="978.30" y="143.5" ></text>
</g>
<g >
<title>MatSetPreallCOO (666,927 samples, 1.60%)</title><rect x="15.1" y="181" width="18.9" height="15.0" fill="rgb(231,174,39)" rx="2" ry="2" />
<text  x="18.13" y="191.5" ></text>
</g>
<g >
<title>SFReduceEnd (22,644 samples, 0.05%)</title><rect x="1167.7" y="101" width="0.7" height="15.0" fill="rgb(210,66,21)" rx="2" ry="2" />
<text  x="1170.74" y="111.5" ></text>
</g>
<g >
<title>SFReduceBegin (120,866 samples, 0.29%)</title><rect x="87.4" y="117" width="3.5" height="15.0" fill="rgb(249,229,28)" rx="2" ry="2" />
<text  x="90.44" y="127.5" ></text>
</g>
<g >
<title>MatAssemblyEnd (14,512 samples, 0.03%)</title><rect x="14.7" y="181" width="0.4" height="15.0" fill="rgb(227,73,11)" rx="2" ry="2" />
<text  x="17.72" y="191.5" ></text>
</g>
<g >
<title>SFReduceEnd (69,620 samples, 0.17%)</title><rect x="199.2" y="69" width="1.9" height="15.0" fill="rgb(218,159,52)" rx="2" ry="2" />
<text  x="202.16" y="79.5" ></text>
</g>
<g >
<title>PCSetUp (2,674,168 samples, 6.42%)</title><rect x="760.1" y="133" width="75.8" height="15.0" fill="rgb(233,173,50)" rx="2" ry="2" />
<text  x="763.13" y="143.5" >PCSetUp</text>
</g>
<g >
<title>SFReduceEnd (41,444 samples, 0.10%)</title><rect x="1186.3" y="117" width="1.2" height="15.0" fill="rgb(239,83,37)" rx="2" ry="2" />
<text  x="1189.28" y="127.5" ></text>
</g>
<g >
<title>SFBcastBegin (135,553 samples, 0.33%)</title><rect x="191.6" y="69" width="3.8" height="15.0" fill="rgb(209,79,3)" rx="2" ry="2" />
<text  x="194.56" y="79.5" ></text>
</g>
<g >
<title>SFReduceBegin (114,809 samples, 0.28%)</title><rect x="195.9" y="69" width="3.3" height="15.0" fill="rgb(245,18,12)" rx="2" ry="2" />
<text  x="198.90" y="79.5" ></text>
</g>
<g >
<title>SFReduceEnd (352,462 samples, 0.85%)</title><rect x="643.7" y="69" width="10.0" height="15.0" fill="rgb(234,146,8)" rx="2" ry="2" />
<text  x="646.70" y="79.5" ></text>
</g>
<g >
<title>SFReduceEnd (30,619 samples, 0.07%)</title><rect x="90.9" y="117" width="0.8" height="15.0" fill="rgb(238,35,33)" rx="2" ry="2" />
<text  x="93.87" y="127.5" ></text>
</g>
<g >
<title>SFBcastBegin (138,782 samples, 0.33%)</title><rect x="137.7" y="85" width="3.9" height="15.0" fill="rgb(244,36,25)" rx="2" ry="2" />
<text  x="140.72" y="95.5" ></text>
</g>
<g >
<title>VecAYPX (77,748 samples, 0.19%)</title><rect x="752.6" y="149" width="2.2" height="15.0" fill="rgb(231,221,50)" rx="2" ry="2" />
<text  x="755.57" y="159.5" ></text>
</g>
<g >
<title>RatelProlong 1 (256,617 samples, 0.62%)</title><rect x="112.6" y="85" width="7.3" height="15.0" fill="rgb(249,165,50)" rx="2" ry="2" />
<text  x="115.63" y="95.5" ></text>
</g>
<g >
<title>MGSmooth Level 1 (13,685,167 samples, 32.88%)</title><rect x="356.1" y="133" width="387.9" height="15.0" fill="rgb(247,166,20)" rx="2" ry="2" />
<text  x="359.09" y="143.5" >MGSmooth Level 1</text>
</g>
<g >
<title>SFReduceBegin (592,258 samples, 1.42%)</title><rect x="626.9" y="69" width="16.8" height="15.0" fill="rgb(235,163,52)" rx="2" ry="2" />
<text  x="629.91" y="79.5" ></text>
</g>
<g >
<title>SFReduceEnd (16,788 samples, 0.04%)</title><rect x="142.1" y="85" width="0.5" height="15.0" fill="rgb(227,196,1)" rx="2" ry="2" />
<text  x="145.14" y="95.5" ></text>
</g>
<g >
<title>DualSpaceSetUp (6,612 samples, 0.02%)</title><rect x="11.1" y="181" width="0.2" height="15.0" fill="rgb(247,132,15)" rx="2" ry="2" />
<text  x="14.09" y="191.5" ></text>
</g>
<g >
<title>DMPlexStratify (6,113 samples, 0.01%)</title><rect x="10.5" y="197" width="0.2" height="15.0" fill="rgb(210,194,32)" rx="2" ry="2" />
<text  x="13.49" y="207.5" ></text>
</g>
<g >
<title>SNESFunctionEval (696,517 samples, 1.67%)</title><rect x="1168.4" y="149" width="19.7" height="15.0" fill="rgb(243,158,5)" rx="2" ry="2" />
<text  x="1171.38" y="159.5" ></text>
</g>
<g >
<title>BuildTwoSided (32,420 samples, 0.08%)</title><rect x="33.1" y="149" width="0.9" height="15.0" fill="rgb(251,122,42)" rx="2" ry="2" />
<text  x="36.12" y="159.5" ></text>
</g>
<g >
<title>SFReduceEnd (27,274 samples, 0.07%)</title><rect x="960.8" y="85" width="0.8" height="15.0" fill="rgb(208,227,2)" rx="2" ry="2" />
<text  x="963.83" y="95.5" ></text>
</g>
<g >
<title>SFPack (28,077 samples, 0.07%)</title><rect x="642.9" y="37" width="0.8" height="15.0" fill="rgb(219,139,32)" rx="2" ry="2" />
<text  x="645.91" y="47.5" ></text>
</g>
<g >
<title>VecSet (179,936 samples, 0.43%)</title><rect x="653.7" y="69" width="5.1" height="15.0" fill="rgb(242,214,17)" rx="2" ry="2" />
<text  x="656.69" y="79.5" ></text>
</g>
<g >
<title>DualSpaceSetUp (6,612 samples, 0.02%)</title><rect x="11.1" y="197" width="0.2" height="15.0" fill="rgb(209,127,4)" rx="2" ry="2" />
<text  x="14.09" y="207.5" ></text>
</g>
<g >
<title>VecDot (9,756 samples, 0.02%)</title><rect x="1188.8" y="149" width="0.3" height="15.0" fill="rgb(239,66,36)" rx="2" ry="2" />
<text  x="1191.84" y="159.5" ></text>
</g>
<g >
<title>VecReduceArith (6,599 samples, 0.02%)</title><rect x="1189.1" y="149" width="0.2" height="15.0" fill="rgb(218,41,40)" rx="2" ry="2" />
<text  x="1192.12" y="159.5" ></text>
</g>
<g >
<title>SFBcastEnd (9,727 samples, 0.02%)</title><rect x="141.6" y="85" width="0.3" height="15.0" fill="rgb(217,17,30)" rx="2" ry="2" />
<text  x="144.65" y="95.5" ></text>
</g>
<g >
<title>MatResidual (2,209,755 samples, 5.31%)</title><rect x="142.6" y="117" width="62.7" height="15.0" fill="rgb(250,158,27)" rx="2" ry="2" />
<text  x="145.62" y="127.5" >MatRes..</text>
</g>
<g >
<title>SNESFunctionEval (76,701 samples, 0.18%)</title><rect x="976.1" y="165" width="2.2" height="15.0" fill="rgb(209,171,47)" rx="2" ry="2" />
<text  x="979.14" y="175.5" ></text>
</g>
<g >
<title>SFBcastEnd (5,822 samples, 0.01%)</title><rect x="112.8" y="69" width="0.2" height="15.0" fill="rgb(222,213,19)" rx="2" ry="2" />
<text  x="115.85" y="79.5" ></text>
</g>
<g >
<title>VecAXPBYCZ (23,869 samples, 0.06%)</title><rect x="1187.5" y="133" width="0.6" height="15.0" fill="rgb(229,104,40)" rx="2" ry="2" />
<text  x="1190.45" y="143.5" ></text>
</g>
<g >
<title>MGSetup Level 1 (4,811,787 samples, 11.56%)</title><rect x="835.9" y="149" width="136.4" height="15.0" fill="rgb(208,126,14)" rx="2" ry="2" />
<text  x="838.94" y="159.5" >MGSetup Level 1</text>
</g>
<g >
<title>VecAYPX (848,204 samples, 2.04%)</title><rect x="716.8" y="101" width="24.0" height="15.0" fill="rgb(249,48,42)" rx="2" ry="2" />
<text  x="719.77" y="111.5" >V..</text>
</g>
<g >
<title>KSPSolve (25,547,282 samples, 61.38%)</title><rect x="35.7" y="165" width="724.2" height="15.0" fill="rgb(211,110,20)" rx="2" ry="2" />
<text  x="38.71" y="175.5" >KSPSolve</text>
</g>
<g >
<title>SFReduceBegin (7,737 samples, 0.02%)</title><rect x="141.9" y="85" width="0.2" height="15.0" fill="rgb(225,114,17)" rx="2" ry="2" />
<text  x="144.93" y="95.5" ></text>
</g>
<g >
<title>MatAssemblyEnd (4,670 samples, 0.01%)</title><rect x="33.0" y="165" width="0.1" height="15.0" fill="rgb(246,6,42)" rx="2" ry="2" />
<text  x="35.99" y="175.5" ></text>
</g>
<g >
<title>VecAXPY (113,576 samples, 0.27%)</title><rect x="119.9" y="101" width="3.2" height="15.0" fill="rgb(248,96,54)" rx="2" ry="2" />
<text  x="122.90" y="111.5" ></text>
</g>
<g >
<title>SFReduceBegin (140,992 samples, 0.34%)</title><rect x="113.0" y="69" width="4.0" height="15.0" fill="rgb(211,41,24)" rx="2" ry="2" />
<text  x="116.01" y="79.5" ></text>
</g>
<g >
<title>PCApply (23,015,390 samples, 55.29%; 0.00%)</title><rect x="92.9" y="149" width="652.4" height="15.0" fill="rgb(255,255,255)" rx="2" ry="2" />
<text  x="95.87" y="159.5" >PCApply</text>
</g>
<g >
<title>PCApply (635,526 samples, 1.53%)</title><rect x="871.3" y="101" width="18.1" height="15.0" fill="rgb(220,114,49)" rx="2" ry="2" />
<text  x="874.34" y="111.5" ></text>
</g>
<g >
<title>VecAYPX (111,646 samples, 0.27%)</title><rect x="202.1" y="101" width="3.2" height="15.0" fill="rgb(240,119,2)" rx="2" ry="2" />
<text  x="205.10" y="111.5" ></text>
</g>
<g >
<title>VecCopy (114,015 samples, 0.27%)</title><rect x="740.8" y="101" width="3.2" height="15.0" fill="rgb(206,66,49)" rx="2" ry="2" />
<text  x="743.81" y="111.5" ></text>
</g>
<g >
<title>SFBcastBegin (29,955 samples, 0.07%)</title><rect x="975.3" y="117" width="0.8" height="15.0" fill="rgb(221,38,39)" rx="2" ry="2" />
<text  x="978.30" y="127.5" ></text>
</g>
<g >
<title>SFPack (6,148 samples, 0.01%)</title><rect x="116.8" y="53" width="0.2" height="15.0" fill="rgb(246,220,20)" rx="2" ry="2" />
<text  x="119.84" y="63.5" ></text>
</g>
<g >
<title>PCSetUp (2,548,355 samples, 6.12%)</title><rect x="889.4" y="101" width="72.2" height="15.0" fill="rgb(231,44,12)" rx="2" ry="2" />
<text  x="892.36" y="111.5" >PCSetUp</text>
</g>
<g >
<title>RatelJacobianApp (1,223,659 samples, 2.94%)</title><rect x="836.7" y="85" width="34.6" height="15.0" fill="rgb(246,135,5)" rx="2" ry="2" />
<text  x="839.65" y="95.5" >Ra..</text>
</g>
<g >
<title>SFBcastEnd (6,758 samples, 0.02%)</title><rect x="34.2" y="197" width="0.2" height="15.0" fill="rgb(208,49,23)" rx="2" ry="2" />
<text  x="37.19" y="207.5" ></text>
</g>
<g >
<title>VecNormalize (18,297 samples, 0.04%)</title><rect x="1189.3" y="197" width="0.5" height="15.0" fill="rgb(213,87,33)" rx="2" ry="2" />
<text  x="1192.31" y="207.5" ></text>
</g>
<g >
<title>VecTDot (166,526 samples, 0.40%)</title><rect x="755.2" y="149" width="4.7" height="15.0" fill="rgb(224,14,41)" rx="2" ry="2" />
<text  x="758.22" y="159.5" ></text>
</g>
<g >
<title>VecNorm (92,530 samples, 0.22%)</title><rect x="967.7" y="101" width="2.6" height="15.0" fill="rgb(242,19,5)" rx="2" ry="2" />
<text  x="970.71" y="111.5" ></text>
</g>
<g >
<title>SFReduceEnd (16,710 samples, 0.04%)</title><rect x="870.2" y="69" width="0.4" height="15.0" fill="rgb(240,1,30)" rx="2" ry="2" />
<text  x="873.15" y="79.5" ></text>
</g>
<g >
<title>MatSetValuesCOO (347,342 samples, 0.83%)</title><rect x="1158.5" y="133" width="9.9" height="15.0" fill="rgb(224,190,54)" rx="2" ry="2" />
<text  x="1161.54" y="143.5" ></text>
</g>
<g >
<title>MatMult (953,673 samples, 2.29%; 0.00%)</title><rect x="92.9" y="101" width="27.0" height="15.0" fill="rgb(255,255,255)" rx="2" ry="2" />
<text  x="95.87" y="111.5" >M..</text>
</g>
<g >
<title>SFBcastBegin (775,736 samples, 1.86%)</title><rect x="602.9" y="69" width="22.0" height="15.0" fill="rgb(239,29,22)" rx="2" ry="2" />
<text  x="605.89" y="79.5" >S..</text>
</g>
<g >
<title>MGSmooth Level 0 (5,320,469 samples, 12.78%)</title><rect x="205.3" y="133" width="150.8" height="15.0" fill="rgb(232,226,38)" rx="2" ry="2" />
<text  x="208.26" y="143.5" >MGSmooth Level 0</text>
</g>
<g >
<title>SNESJacobianEval (6,704,545 samples, 16.11%)</title><rect x="978.3" y="165" width="190.1" height="15.0" fill="rgb(210,224,24)" rx="2" ry="2" />
<text  x="981.32" y="175.5" >SNESJacobianEval</text>
</g>
<g >
<title>SNESLineSearch (738,060 samples, 1.77%)</title><rect x="1168.4" y="165" width="20.9" height="15.0" fill="rgb(221,62,32)" rx="2" ry="2" />
<text  x="1171.38" y="175.5" ></text>
</g>
<g >
<title>VecSet (34,057 samples, 0.08%)</title><rect x="201.1" y="69" width="1.0" height="15.0" fill="rgb(220,192,34)" rx="2" ry="2" />
<text  x="204.13" y="79.5" ></text>
</g>
<g >
<title>RatelRestrict (104,014 samples, 0.25%; +0.25%)</title><rect x="972.3" y="133" width="3.0" height="15.0" fill="rgb(255,178,178)" rx="2" ry="2" />
<text  x="975.35" y="143.5" ></text>
</g>
</g>
</svg>
